{"glyphs":{"0":{"ha":500,"x_min":64,"x_max":536,"o":"m 536 799 q 508 507 536 665 q 430 226 479 348 q 323 45 382 104 q 200 -14 265 -14 q 97 39 131 -14 q 64 196 64 91 q 114 574 64 365 q 239 894 164 783 q 400 1006 313 1006 q 501 953 466 1006 q 536 799 536 901 m 396 942 q 272 831 331 942 q 172 528 214 720 q 131 196 131 335 q 148 86 131 122 q 205 50 165 50 q 329 157 271 50 q 428 457 387 263 q 469 799 469 650 q 453 904 469 867 q 396 942 436 942 z "},"1":{"ha":500,"x_min":195,"x_max":469,"o":"m 260 0 l 195 0 l 347 721 l 370 821 l 392 913 q 355 874 374 893 q 225 764 336 856 l 195 810 l 407 991 l 469 991 l 260 0 z "},"2":{"ha":500,"x_min":-5,"x_max":546,"o":"m 390 0 l -5 0 l 1 53 l 240 347 q 390 546 349 481 q 455 676 431 611 q 479 811 479 742 q 368 945 479 945 q 304 933 335 945 q 225 888 273 922 l 195 940 q 276 986 232 966 q 376 1006 320 1006 q 501 957 456 1006 q 546 818 546 907 q 493 610 546 722 q 300 328 439 499 l 82 61 l 403 61 l 390 0 z "},"3":{"ha":500,"x_min":11,"x_max":546,"o":"m 546 818 q 489 621 546 701 q 338 518 433 541 l 336 514 q 452 314 452 471 q 416 145 452 220 q 317 28 381 69 q 172 -14 254 -14 q 11 20 68 -14 l 11 93 q 164 46 74 46 q 281 79 232 46 q 358 171 331 112 q 385 304 385 231 q 346 438 385 393 q 236 482 308 482 l 192 482 l 204 545 l 244 545 q 413 621 345 545 q 481 810 481 696 q 452 910 481 873 q 370 946 424 946 q 289 931 325 946 q 214 886 253 916 l 183 935 q 268 986 222 966 q 371 1006 313 1006 q 499 954 452 1006 q 546 818 546 903 z "},"4":{"ha":500,"x_min":11,"x_max":549,"o":"m 478 225 l 383 225 l 335 0 l 271 0 l 319 225 l 11 225 l 22 282 l 464 1003 l 549 1003 l 396 286 l 490 286 l 478 225 m 332 286 l 437 774 l 475 926 l 469 926 l 452 894 l 401 799 l 89 286 l 332 286 z "},"5":{"ha":500,"x_min":11,"x_max":553,"o":"m 404 334 q 368 483 404 429 q 257 536 332 536 q 214 533 235 536 q 149 514 193 530 l 122 557 l 243 991 l 553 991 l 539 928 l 292 928 l 193 583 q 273 593 231 593 q 419 529 368 593 q 471 345 471 465 q 432 160 471 242 q 322 32 394 78 q 155 -14 251 -14 q 72 -4 112 -14 q 11 18 33 5 l 11 93 q 158 46 62 46 q 336 125 269 46 q 404 334 404 204 z "},"6":{"ha":500,"x_min":71,"x_max":570,"o":"m 71 215 q 128 607 71 413 q 275 903 186 800 q 472 1006 365 1006 q 570 990 534 1006 l 551 926 q 473 942 520 942 q 295 830 373 942 q 163 503 217 718 l 167 503 q 245 583 198 553 q 347 612 292 612 q 451 560 412 612 q 489 421 489 507 q 453 200 489 307 q 357 40 416 94 q 225 -14 298 -14 q 112 47 153 -14 q 71 215 71 108 m 233 49 q 328 95 286 49 q 397 234 370 141 q 425 412 425 328 q 400 513 425 476 q 329 550 374 550 q 225 509 271 550 q 157 401 180 469 q 134 215 134 334 q 160 93 134 137 q 233 49 186 49 z "},"7":{"ha":500,"x_min":85,"x_max":595,"o":"m 85 0 l 517 928 l 165 928 l 178 991 l 595 991 l 587 936 l 154 0 l 85 0 z "},"8":{"ha":500,"x_min":24,"x_max":557,"o":"m 24 195 q 79 388 24 309 q 254 526 135 467 q 184 636 206 580 q 161 761 161 693 q 224 937 161 867 q 387 1006 286 1006 q 510 956 464 1006 q 557 821 557 907 q 503 646 557 724 q 349 515 448 568 q 439 389 412 452 q 465 256 465 326 q 399 62 465 138 q 227 -14 333 -14 q 76 42 129 -14 q 24 195 24 97 m 399 253 q 375 371 399 317 q 292 486 351 425 q 136 362 182 429 q 90 199 90 295 q 127 90 90 132 q 225 47 164 47 q 352 103 305 47 q 399 253 399 158 m 228 757 q 249 646 228 694 q 311 553 270 597 q 446 665 399 599 q 492 808 492 732 q 463 908 492 871 q 383 945 434 945 q 269 895 309 945 q 228 757 228 846 z "},"9":{"ha":500,"x_min":33,"x_max":532,"o":"m 532 789 q 478 383 532 578 q 337 87 425 188 q 138 -14 249 -14 q 33 1 71 -14 l 33 65 q 138 50 66 50 q 318 162 241 50 q 441 490 395 275 l 437 490 q 358 410 406 440 q 258 379 311 379 q 155 437 194 379 q 115 587 115 494 q 152 802 115 700 q 248 955 189 904 q 380 1006 306 1006 q 493 950 454 1006 q 532 789 532 895 m 372 943 q 276 898 319 943 q 205 765 233 852 q 178 595 178 677 q 203 481 178 522 q 273 441 228 441 q 377 484 330 441 q 446 601 423 526 q 469 781 469 675 q 445 900 469 857 q 372 943 420 943 z "}," ":{"ha":235,"x_min":0,"x_max":0,"o":""},"!":{"ha":323,"x_min":65,"x_max":359,"o":"m 180 249 l 139 249 l 277 991 l 359 991 l 180 249 m 65 36 q 84 105 65 77 q 135 134 103 134 q 163 119 153 134 q 174 82 174 105 q 155 15 174 41 q 107 -11 136 -11 q 78 1 90 -11 q 65 36 65 13 z "},"\"":{"ha":418,"x_min":144,"x_max":461,"o":"m 279 991 l 186 633 l 144 633 l 200 991 l 279 991 m 461 991 l 367 633 l 325 633 l 382 991 l 461 991 z "},"#":{"ha":530,"x_min":35,"x_max":603,"o":"m 36 317 l 49 378 l 151 378 l 237 648 l 135 648 l 147 707 l 257 707 l 345 991 l 400 991 l 311 707 l 449 707 l 539 991 l 590 991 l 503 707 l 603 707 l 590 648 l 484 648 l 397 378 l 504 378 l 492 317 l 379 317 l 279 0 l 224 0 l 325 317 l 187 317 l 89 0 l 35 0 l 134 317 l 36 317 m 207 378 l 343 378 l 431 648 l 292 648 l 207 378 z "},"$":{"ha":500,"x_min":36,"x_max":566,"o":"m 151 -81 l 186 83 q 36 119 83 87 l 36 189 q 97 161 56 174 q 199 146 138 147 l 275 504 q 197 573 218 548 q 163 630 176 599 q 151 701 151 661 q 208 858 151 798 q 366 929 264 918 l 393 1055 l 449 1055 l 422 932 q 566 893 503 930 l 533 832 q 408 871 466 869 l 338 539 q 415 464 393 494 q 450 394 437 433 q 463 306 463 356 q 406 154 463 213 q 241 85 349 96 l 207 -81 l 151 -81 m 399 304 q 377 400 399 362 q 322 467 355 439 l 256 149 q 362 198 325 158 q 399 304 399 238 m 216 705 q 233 640 216 671 q 290 576 250 610 l 353 867 q 216 705 216 848 z "},"%":{"ha":737,"x_min":103,"x_max":724,"o":"m 688 991 l 189 0 l 129 0 l 631 991 l 688 991 m 627 555 q 561 490 594 555 q 502 310 528 425 q 476 122 476 195 q 518 43 476 43 q 588 109 554 43 q 645 286 621 176 q 668 471 668 396 q 627 555 668 555 m 724 472 q 692 240 724 359 q 612 54 661 121 q 509 -14 564 -14 q 444 23 466 -14 q 422 123 422 60 q 453 351 422 231 q 533 540 484 471 q 636 608 581 608 q 701 571 679 608 q 724 472 724 534 m 307 953 q 241 888 275 953 q 182 707 208 823 q 157 519 157 592 q 199 440 157 440 q 268 507 235 440 q 325 683 302 573 q 349 868 349 793 q 307 953 349 953 m 404 869 q 372 636 404 756 q 292 450 340 517 q 189 383 243 383 q 125 419 148 383 q 103 521 103 455 q 134 746 103 627 q 213 936 164 866 q 317 1006 261 1006 q 381 969 358 1006 q 404 869 404 933 z "},"&":{"ha":509,"x_min":28,"x_max":519,"o":"m 395 0 l 363 113 q 269 13 311 39 q 178 -14 228 -14 q 67 33 107 -14 q 28 160 28 80 q 76 363 28 272 q 237 539 125 454 q 210 721 210 635 q 254 930 210 854 q 375 1006 298 1006 q 443 975 417 1006 q 469 884 469 943 q 427 691 469 786 q 306 522 384 595 l 386 237 q 463 437 432 322 l 519 437 q 470 291 506 373 q 406 171 433 210 l 461 0 l 395 0 m 253 486 q 92 172 92 357 q 182 49 92 49 q 257 74 222 49 q 345 176 292 99 l 253 486 m 290 578 q 380 710 349 632 q 411 872 411 787 q 364 945 411 945 q 294 888 320 945 q 268 733 268 831 q 290 578 268 650 z "},"'":{"ha":237,"x_min":144,"x_max":279,"o":"m 279 991 l 186 633 l 144 633 l 200 991 l 279 991 z "},"(":{"ha":345,"x_min":69,"x_max":463,"o":"m 69 149 q 158 594 69 376 q 411 991 246 812 l 463 991 q 222 584 303 797 q 140 149 140 370 q 157 -49 140 50 q 204 -220 173 -148 l 153 -220 q 92 -52 115 -154 q 69 149 69 50 z "},")":{"ha":345,"x_min":-56,"x_max":338,"o":"m 338 624 q 251 181 338 398 q -4 -220 163 -36 l -56 -220 q 185 188 104 -25 q 267 624 267 401 q 250 823 267 724 q 203 991 233 922 l 254 991 q 315 824 292 925 q 338 624 338 723 z "},"*":{"ha":456,"x_min":150,"x_max":504,"o":"m 392 1048 l 353 892 l 504 908 l 504 838 l 358 852 l 437 694 l 372 673 l 325 835 l 229 692 l 174 729 l 289 861 l 150 886 l 170 953 l 313 897 l 315 1060 l 392 1048 z "},"+":{"ha":500,"x_min":89,"x_max":518,"o":"m 329 530 l 518 530 l 518 481 l 329 481 l 329 253 l 277 253 l 277 481 l 89 481 l 89 530 l 277 530 l 277 760 l 329 760 l 329 530 z "},",":{"ha":257,"x_min":-14,"x_max":196,"o":"m 196 123 q 31 -179 127 -22 l -14 -179 q 52 -27 14 -119 q 113 139 90 65 l 191 139 l 196 123 z "},"-":{"ha":315,"x_min":64,"x_max":329,"o":"m 64 340 l 79 410 l 329 410 l 314 340 l 64 340 z "},".":{"ha":257,"x_min":66,"x_max":175,"o":"m 66 36 q 85 105 66 77 q 136 134 104 134 q 165 119 155 134 q 175 82 175 105 q 156 15 175 41 q 109 -11 138 -11 q 79 1 92 -11 q 66 36 66 13 z "},"/":{"ha":435,"x_min":-22,"x_max":568,"o":"m 568 991 l 40 0 l -22 0 l 505 991 l 568 991 z "},":":{"ha":257,"x_min":47,"x_max":285,"o":"m 47 36 q 66 105 47 77 q 117 134 84 134 q 145 119 135 134 q 155 82 155 105 q 137 15 155 41 q 89 -11 118 -11 q 60 1 72 -11 q 47 36 47 13 m 176 640 q 195 709 176 682 q 245 737 214 737 q 276 721 267 737 q 285 686 285 705 q 267 619 285 646 q 218 593 248 593 q 189 605 201 593 q 176 640 176 617 z "},";":{"ha":257,"x_min":-22,"x_max":294,"o":"m 187 123 q 22 -179 121 -17 l -22 -179 q 104 139 60 -1 l 182 139 l 187 123 m 186 640 q 205 709 186 682 q 256 737 224 737 q 286 721 277 737 q 294 686 294 705 q 276 619 294 646 q 228 593 258 593 q 198 605 211 593 q 186 640 186 617 z "},"<":{"ha":500,"x_min":52,"x_max":481,"o":"m 481 208 l 52 482 l 52 528 l 481 799 l 481 730 l 114 504 l 481 278 l 481 208 z "},"=":{"ha":500,"x_min":92,"x_max":521,"o":"m 521 371 l 521 315 l 92 315 l 92 371 l 521 371 m 521 663 l 521 607 l 92 607 l 92 663 l 521 663 z "},">":{"ha":500,"x_min":115,"x_max":545,"o":"m 115 264 l 482 490 l 115 717 l 115 785 l 545 514 l 545 468 l 115 195 l 115 264 z "},"?":{"ha":353,"x_min":49,"x_max":450,"o":"m 111 249 l 118 283 q 237 543 145 418 l 285 607 q 363 738 344 687 q 382 846 382 789 q 358 921 382 897 q 297 945 334 945 q 248 937 270 945 q 186 901 225 930 l 160 954 q 302 1006 233 1006 q 412 965 373 1006 q 450 852 450 924 q 438 763 450 805 q 403 682 425 722 q 313 554 380 642 q 231 439 256 482 q 188 349 205 395 q 161 249 170 302 l 111 249 m 49 36 q 67 105 49 77 q 118 134 85 134 q 146 119 136 134 q 157 82 157 105 q 138 15 157 41 q 90 -11 119 -11 q 61 1 73 -11 q 49 36 49 13 z "},"@":{"ha":753,"x_min":75,"x_max":771,"o":"m 771 694 q 736 447 771 581 q 650 236 702 312 q 542 160 599 160 q 484 182 503 160 q 465 240 465 203 q 472 301 465 269 q 342 157 422 157 q 267 278 267 157 q 303 490 267 376 q 392 662 339 604 q 509 720 445 720 q 604 700 563 720 l 524 380 q 507 279 507 315 q 551 214 507 214 q 623 287 586 214 q 688 481 660 360 q 715 686 715 603 q 674 877 715 811 q 551 942 633 942 q 350 844 446 942 q 194 571 254 745 q 135 197 135 396 q 181 2 135 72 q 309 -68 228 -68 q 385 -57 348 -68 q 446 -32 422 -47 l 453 -85 q 302 -122 382 -122 q 137 -39 199 -122 q 75 189 75 44 q 143 598 75 412 q 324 891 210 784 q 566 999 438 999 q 716 919 661 999 q 771 694 771 838 m 492 665 q 413 612 451 665 q 349 466 374 558 q 323 290 323 374 q 363 216 323 216 q 420 273 393 216 q 479 452 447 330 l 534 660 q 492 665 518 665 z "},"A":{"ha":496,"x_min":-53,"x_max":441,"o":"m 376 0 l 376 359 l 168 359 l 18 0 l -53 0 l 358 996 l 441 996 l 441 0 l 376 0 m 376 427 l 376 677 l 380 918 q 345 815 370 883 q 192 427 320 747 l 376 427 z "},"B":{"ha":554,"x_min":45,"x_max":602,"o":"m 254 991 l 407 991 q 548 941 495 991 q 602 806 602 890 q 551 616 602 692 q 412 524 500 541 l 411 519 q 491 459 460 507 q 522 346 522 411 q 488 165 522 243 q 387 43 453 86 q 229 0 321 0 l 45 0 l 254 991 m 228 551 l 328 551 q 435 583 389 551 q 506 670 481 614 q 532 798 532 727 q 497 895 532 863 q 392 926 463 926 l 309 926 l 228 551 m 215 488 l 125 64 l 232 64 q 395 137 336 64 q 453 335 453 210 q 418 447 453 406 q 322 488 384 488 l 215 488 z "},"C":{"ha":493,"x_min":92,"x_max":642,"o":"m 501 942 q 335 854 413 942 q 207 613 256 767 q 158 317 158 460 q 193 114 158 178 q 310 49 228 49 q 427 75 361 49 l 427 11 q 300 -14 363 -14 q 144 65 196 -14 q 92 304 92 143 q 150 647 92 478 q 303 911 208 815 q 509 1007 398 1007 q 642 965 591 1007 l 600 907 q 501 942 559 942 z "},"D":{"ha":607,"x_min":45,"x_max":619,"o":"m 619 710 q 563 341 619 507 q 407 87 507 175 q 174 0 307 0 l 45 0 l 254 991 l 401 991 q 563 920 506 991 q 619 710 619 849 m 187 64 q 371 142 290 64 q 500 376 452 221 q 549 710 549 532 q 392 926 549 926 l 309 926 l 125 64 l 187 64 z "},"E":{"ha":481,"x_min":45,"x_max":578,"o":"m 368 0 l 45 0 l 254 991 l 578 991 l 564 926 l 309 926 l 229 551 l 469 551 l 456 488 l 215 488 l 125 64 l 380 64 l 368 0 z "},"F":{"ha":444,"x_min":45,"x_max":579,"o":"m 113 0 l 45 0 l 254 991 l 579 991 l 566 926 l 309 926 l 221 510 l 463 510 l 449 446 l 207 446 l 113 0 z "},"G":{"ha":656,"x_min":92,"x_max":722,"o":"m 437 503 l 637 503 l 534 22 q 339 -14 441 -14 q 92 297 92 -14 q 126 561 92 422 q 220 803 161 700 q 355 957 279 906 q 518 1007 431 1007 q 722 943 633 1007 l 679 884 q 594 930 633 918 q 514 942 556 942 q 375 893 439 942 q 263 752 312 844 q 186 534 215 659 q 158 293 158 409 q 204 106 158 163 q 346 49 251 49 q 476 68 414 49 l 555 439 l 424 439 l 437 503 z "},"H":{"ha":627,"x_min":45,"x_max":686,"o":"m 476 0 l 410 0 l 513 486 l 214 486 l 111 0 l 45 0 l 254 991 l 321 991 l 228 553 l 526 553 l 619 991 l 686 991 l 476 0 z "},"J":{"ha":244,"x_min":-154,"x_max":322,"o":"m -77 -250 q -154 -233 -124 -250 l -135 -171 q -74 -184 -106 -184 q -3 -147 -28 -184 q 40 -24 22 -110 l 256 991 l 322 991 l 104 -39 q 38 -199 81 -148 q -77 -250 -5 -250 z "},"K":{"ha":504,"x_min":45,"x_max":643,"o":"m 452 0 l 383 0 l 282 481 l 195 393 l 111 0 l 45 0 l 254 991 l 321 991 l 210 467 l 293 589 l 575 991 l 643 991 l 336 539 l 452 0 z "},"L":{"ha":433,"x_min":45,"x_max":368,"o":"m 45 0 l 254 991 l 321 991 l 125 64 l 368 64 l 355 0 l 45 0 z "},"M":{"ha":851,"x_min":45,"x_max":911,"o":"m 335 0 l 300 903 l 296 903 l 266 740 l 110 0 l 45 0 l 254 991 l 363 991 l 386 240 l 389 129 l 387 69 l 389 69 q 461 239 400 103 l 796 991 l 911 991 l 701 0 l 633 0 l 795 761 l 828 901 l 825 901 l 421 0 l 335 0 z "},"N":{"ha":665,"x_min":45,"x_max":725,"o":"m 515 0 l 433 0 l 297 889 l 292 889 q 261 711 282 811 l 111 0 l 45 0 l 254 991 l 343 991 l 473 113 l 478 113 l 488 171 l 511 298 l 659 991 l 725 991 l 515 0 z "},"O":{"ha":650,"x_min":92,"x_max":663,"o":"m 279 -14 q 92 257 92 -14 q 123 538 92 390 q 207 793 154 686 q 328 953 260 901 q 476 1006 396 1006 q 663 746 663 1006 q 608 368 663 553 q 468 85 554 183 q 279 -14 382 -14 m 158 256 q 285 50 158 50 q 402 105 347 50 q 500 261 458 159 q 570 498 543 362 q 596 746 596 633 q 469 942 596 942 q 353 892 408 942 q 255 743 298 842 q 185 505 212 643 q 158 256 158 368 z "},"P":{"ha":524,"x_min":45,"x_max":582,"o":"m 582 783 q 543 591 582 677 q 432 458 505 506 q 262 410 359 410 l 197 410 l 111 0 l 45 0 l 254 991 l 370 991 q 525 935 468 991 q 582 783 582 878 m 211 473 l 258 473 q 445 552 379 473 q 511 772 511 630 q 472 886 511 845 q 359 926 432 926 l 307 926 l 211 473 z "},"Q":{"ha":650,"x_min":92,"x_max":663,"o":"m 279 -14 q 92 257 92 -14 q 123 538 92 390 q 207 793 154 686 q 328 953 260 901 q 476 1006 396 1006 q 663 733 663 1006 q 622 413 663 576 q 515 145 581 251 q 367 5 448 40 l 444 -236 l 366 -236 l 300 -12 l 279 -14 m 158 252 q 285 50 158 50 q 439 150 369 50 q 553 424 510 250 q 596 751 596 598 q 469 942 596 942 q 313 847 383 942 q 201 577 243 751 q 158 252 158 402 z "},"R":{"ha":539,"x_min":45,"x_max":581,"o":"m 203 433 l 111 0 l 45 0 l 254 991 l 376 991 q 526 936 471 991 q 581 782 581 880 q 554 627 581 701 q 480 506 528 554 q 371 446 432 458 l 453 0 l 380 0 l 301 433 l 203 433 m 215 494 l 286 494 q 452 568 393 494 q 511 777 511 642 q 472 888 511 849 q 359 926 432 926 l 307 926 l 215 494 z "},"S":{"ha":493,"x_min":7,"x_max":572,"o":"m 444 271 q 374 62 444 138 q 179 -14 303 -14 q 79 -2 125 -14 q 7 25 32 9 l 7 98 q 184 50 89 50 q 325 109 275 50 q 375 269 375 168 q 364 347 375 313 q 334 412 353 382 q 260 501 315 442 q 186 589 207 557 q 155 657 166 621 q 144 736 144 692 q 177 876 144 813 q 270 972 210 939 q 408 1006 329 1006 q 500 994 452 1006 q 572 965 549 981 l 536 901 q 401 940 475 940 q 302 915 345 940 q 237 845 260 890 q 214 746 214 800 q 234 652 214 695 q 313 551 254 610 q 397 452 375 488 q 431 372 418 416 q 444 271 444 328 z "},"T":{"ha":433,"x_min":129,"x_max":581,"o":"m 197 0 l 129 0 l 325 926 l 151 926 l 165 991 l 581 991 l 567 926 l 393 926 l 197 0 z "},"U":{"ha":618,"x_min":87,"x_max":686,"o":"m 686 991 l 541 311 q 438 63 503 140 q 261 -14 372 -14 q 132 39 176 -14 q 87 187 87 92 q 100 298 87 238 l 249 991 l 315 991 l 165 290 q 153 187 153 236 q 269 50 153 50 q 396 111 347 50 q 473 310 445 172 l 619 991 l 686 991 z "},"V":{"ha":494,"x_min":157,"x_max":644,"o":"m 576 991 l 644 991 l 231 0 l 157 0 l 157 991 l 224 991 l 224 375 q 208 82 224 262 q 293 309 231 153 l 576 991 z "},"W":{"ha":861,"x_min":139,"x_max":1002,"o":"m 933 991 l 1002 991 l 603 0 l 521 0 l 553 742 l 564 904 l 510 743 l 221 0 l 139 0 l 157 991 l 225 991 l 207 309 q 195 75 202 165 l 212 125 l 279 306 l 543 991 l 616 991 l 595 334 q 578 75 587 162 q 664 309 635 239 l 933 991 z "},"X":{"ha":441,"x_min":-39,"x_max":581,"o":"m 371 0 l 302 0 l 267 452 l 31 0 l -39 0 l 245 536 l 191 991 l 258 991 l 304 581 l 513 991 l 581 991 l 325 504 l 371 0 z "},"Y":{"ha":418,"x_min":122,"x_max":575,"o":"m 257 479 l 505 991 l 575 991 l 272 387 l 191 0 l 122 0 l 204 387 l 154 991 l 222 991 l 257 479 z "},"Z":{"ha":393,"x_min":-17,"x_max":517,"o":"m 315 0 l -17 0 l -4 60 l 431 926 l 182 926 l 196 991 l 517 991 l 504 930 l 62 64 l 328 64 l 315 0 z "},"[":{"ha":393,"x_min":17,"x_max":518,"o":"m 260 -220 l 17 -220 l 275 991 l 518 991 l 504 930 l 326 930 l 94 -158 l 273 -158 l 260 -220 z "},"\\":{"ha":435,"x_min":183,"x_max":358,"o":"m 248 991 l 358 0 l 293 0 l 183 991 l 248 991 z "},"]":{"ha":393,"x_min":-43,"x_max":457,"o":"m -29 -158 l 147 -158 l 379 930 l 200 930 l 214 991 l 457 991 l 199 -220 l -43 -220 l -29 -158 z "},"^":{"ha":500,"x_min":75,"x_max":532,"o":"m 469 514 l 386 914 l 147 514 l 75 514 l 368 991 l 424 991 l 532 514 l 469 514 z "},"_":{"ha":514,"x_min":-24,"x_max":505,"o":"m 494 -180 l -24 -180 l -12 -125 l 505 -125 l 494 -180 z "},"`":{"ha":688,"x_min":387,"x_max":530,"o":"m 504 842 q 435 944 471 880 q 387 1053 399 1008 l 387 1064 l 473 1064 q 530 854 491 958 l 530 842 l 504 842 z "},"a":{"ha":554,"x_min":81,"x_max":583,"o":"m 216 -14 q 81 178 81 -14 q 123 458 81 319 q 233 674 165 597 q 380 750 300 750 q 498 648 471 750 l 503 648 l 529 736 l 583 736 l 428 0 l 376 0 l 389 106 l 386 106 q 216 -14 309 -14 m 229 43 q 343 113 290 43 q 433 319 396 184 q 469 575 469 455 q 445 660 469 631 q 378 689 421 689 q 267 620 318 689 q 182 418 216 551 q 147 168 147 286 q 165 75 147 106 q 229 43 183 43 z "},"b":{"ha":545,"x_min":49,"x_max":551,"o":"m 415 750 q 551 558 551 750 q 509 276 551 415 q 398 62 466 138 q 252 -14 331 -14 q 174 14 205 -14 q 134 89 142 42 l 129 89 l 98 0 l 49 0 l 271 1055 l 335 1055 l 254 679 l 240 624 l 243 624 q 323 718 278 686 q 415 750 368 750 m 403 693 q 286 622 339 693 q 197 423 232 551 q 163 171 163 294 q 254 45 163 45 q 365 115 314 45 q 451 318 416 185 q 485 568 485 451 q 467 662 485 630 q 403 693 449 693 z "},"c":{"ha":399,"x_min":81,"x_max":484,"o":"m 243 -14 q 122 41 164 -14 q 81 197 81 95 q 123 478 81 345 q 234 681 166 611 q 386 750 302 750 q 484 728 444 750 l 457 669 q 380 689 421 689 q 266 623 318 689 q 181 435 214 557 q 147 196 147 313 q 256 45 147 45 q 353 72 298 45 l 353 14 q 243 -14 302 -14 z "},"d":{"ha":554,"x_min":81,"x_max":652,"o":"m 216 -14 q 81 178 81 -14 q 123 458 81 319 q 233 674 165 597 q 380 750 300 750 q 459 722 427 750 q 498 647 490 693 l 503 647 l 587 1055 l 652 1055 l 428 0 l 376 0 l 389 106 l 386 106 q 216 -14 309 -14 m 229 43 q 343 112 290 43 q 433 316 396 182 q 469 572 469 450 q 448 660 469 630 q 378 689 426 689 q 267 620 318 689 q 182 418 216 551 q 147 168 147 286 q 165 75 147 106 q 229 43 183 43 z "},"e":{"ha":490,"x_min":81,"x_max":504,"o":"m 253 -14 q 126 43 172 -14 q 81 201 81 100 q 122 474 81 347 q 233 675 163 601 q 380 750 303 750 q 472 716 439 750 q 504 612 504 682 q 464 467 504 529 q 348 374 423 404 q 170 343 273 343 l 161 343 q 147 208 147 276 q 272 45 147 45 q 332 54 304 45 q 396 83 360 62 l 396 18 q 253 -14 339 -14 m 370 690 q 255 610 309 690 q 170 399 201 530 q 440 614 440 399 q 425 670 440 650 q 370 690 410 690 z "},"f":{"ha":277,"x_min":-136,"x_max":481,"o":"m -77 -334 q -136 -326 -111 -334 l -136 -264 q -79 -272 -111 -272 q -30 -254 -47 -272 q 2 -194 -12 -236 q 35 -68 17 -152 l 195 679 l 113 679 l 119 715 l 208 743 l 222 810 q 266 961 242 907 q 320 1039 289 1015 q 406 1063 351 1063 q 481 1046 450 1063 l 453 986 q 397 1000 425 1000 q 348 982 366 1000 q 316 922 331 964 q 272 736 302 879 l 370 736 l 357 679 l 260 679 l 97 -72 q 53 -234 74 -180 q 3 -311 32 -288 q -77 -334 -25 -334 z "},"g":{"ha":453,"x_min":-50,"x_max":557,"o":"m 557 736 l 547 690 l 454 679 q 475 582 475 640 q 445 430 475 508 q 365 307 414 351 q 254 262 315 262 l 237 262 l 222 264 q 138 157 138 205 q 143 131 138 141 q 160 115 149 121 q 240 87 172 109 q 360 21 326 61 q 395 -87 395 -20 q 323 -265 395 -197 q 138 -334 251 -334 q -1 -288 48 -334 q -50 -160 -50 -243 q -6 -30 -50 -89 q 119 65 38 28 q 77 142 77 94 q 98 210 77 177 q 176 283 120 243 q 118 425 118 332 q 152 588 118 509 q 236 709 185 668 q 350 750 288 750 q 416 736 393 750 l 557 736 m 11 -155 q 44 -251 11 -222 q 143 -281 78 -281 q 280 -231 226 -281 q 335 -100 335 -180 q 308 -24 335 -56 q 224 24 280 7 l 163 40 q 54 -37 98 18 q 11 -155 11 -92 m 180 415 q 200 339 180 365 q 256 313 219 313 q 332 348 298 313 q 389 455 366 384 q 411 593 411 527 q 338 697 411 697 q 261 659 296 697 q 203 548 227 621 q 180 415 180 474 z "},"h":{"ha":532,"x_min":50,"x_max":529,"o":"m 342 0 l 458 553 q 465 610 465 580 q 397 686 465 686 q 278 618 326 686 q 200 404 230 549 l 114 0 l 50 0 l 273 1055 l 338 1055 l 271 747 l 243 633 l 245 633 q 410 750 309 750 q 498 717 467 750 q 529 623 529 684 q 519 541 529 585 l 406 0 l 342 0 z "},"i":{"ha":236,"x_min":46,"x_max":322,"o":"m 110 0 l 46 0 l 203 736 l 267 736 l 110 0 m 235 920 q 250 979 235 954 q 290 1004 266 1004 q 322 965 322 1004 q 307 901 322 926 q 268 876 292 876 q 235 920 235 876 z "},"j":{"ha":236,"x_min":-139,"x_max":322,"o":"m 235 920 q 250 979 235 954 q 290 1004 266 1004 q 322 965 322 1004 q 307 901 322 926 q 268 876 292 876 q 235 920 235 876 m 203 736 l 267 736 l 94 -72 q 50 -233 71 -180 q 0 -310 29 -286 q -79 -334 -28 -334 q -139 -326 -114 -334 l -139 -264 q -82 -272 -114 -272 q -33 -254 -50 -272 q 0 -194 -15 -236 q 32 -68 14 -152 l 203 736 z "},"k":{"ha":433,"x_min":49,"x_max":528,"o":"m 187 372 l 220 412 l 275 484 l 458 736 l 528 736 l 319 444 l 385 0 l 318 0 l 261 389 l 175 294 l 113 0 l 49 0 l 273 1055 l 338 1055 l 216 501 q 186 372 211 474 l 187 372 z "},"l":{"ha":235,"x_min":49,"x_max":338,"o":"m 113 0 l 49 0 l 273 1055 l 338 1055 l 113 0 z "},"m":{"ha":794,"x_min":49,"x_max":790,"o":"m 604 0 l 721 551 q 728 608 728 583 q 664 686 728 686 q 565 638 608 686 q 505 510 522 589 l 399 0 l 335 0 l 449 542 q 457 608 457 581 q 390 686 457 686 q 276 621 321 686 q 199 404 231 556 l 113 0 l 49 0 l 204 736 l 258 736 l 241 633 l 244 633 q 407 750 306 750 q 485 726 456 750 q 519 648 513 701 q 592 725 554 699 q 681 750 630 750 q 762 716 733 750 q 790 615 790 682 q 781 533 790 576 l 668 0 l 604 0 z "},"n":{"ha":530,"x_min":49,"x_max":528,"o":"m 340 0 l 457 553 q 464 610 464 580 q 396 686 464 686 q 277 618 325 686 q 199 404 229 549 l 113 0 l 49 0 l 204 736 l 258 736 l 241 633 l 244 633 q 408 750 307 750 q 496 717 465 750 q 528 623 528 684 q 518 541 528 585 l 404 0 l 340 0 z "},"o":{"ha":529,"x_min":81,"x_max":532,"o":"m 231 -14 q 119 41 158 -14 q 81 195 81 95 q 105 401 81 291 q 169 589 130 512 q 261 708 208 666 q 379 750 314 750 q 491 694 451 750 q 532 536 532 638 q 507 334 532 442 q 442 148 482 226 q 349 28 402 71 q 231 -14 295 -14 m 147 182 q 239 45 147 45 q 350 114 299 45 q 433 308 401 182 q 465 550 465 433 q 371 689 465 689 q 264 623 314 689 q 181 429 214 556 q 147 182 147 301 z "},"p":{"ha":545,"x_min":-18,"x_max":553,"o":"m 416 750 q 553 558 553 750 q 510 277 553 416 q 400 62 467 138 q 253 -14 333 -14 q 175 14 207 -14 q 135 89 143 42 l 131 89 l 46 -319 l -18 -319 l 205 736 l 261 736 l 244 631 l 248 631 q 416 750 325 750 m 404 693 q 287 622 340 693 q 199 423 233 551 q 164 171 164 294 q 256 45 164 45 q 367 115 315 45 q 452 318 418 185 q 486 568 486 451 q 468 662 486 630 q 404 693 450 693 z "},"q":{"ha":554,"x_min":81,"x_max":583,"o":"m 216 -14 q 81 178 81 -14 q 123 458 81 319 q 233 674 165 597 q 380 750 300 750 q 498 648 471 750 l 503 648 l 529 736 l 583 736 l 357 -334 l 293 -334 l 363 -3 l 392 107 l 389 107 q 216 -14 311 -14 m 229 43 q 343 113 290 43 q 433 319 396 184 q 469 575 469 455 q 445 660 469 631 q 378 689 421 689 q 267 620 318 689 q 182 418 216 551 q 147 168 147 286 q 165 75 147 106 q 229 43 183 43 z "},"r":{"ha":342,"x_min":49,"x_max":444,"o":"m 395 750 q 444 742 421 750 l 427 676 q 382 686 406 686 q 275 607 324 686 q 196 390 225 528 l 113 0 l 49 0 l 204 736 l 252 736 l 232 607 l 235 607 q 395 750 294 750 z "},"s":{"ha":403,"x_min":20,"x_max":461,"o":"m 155 -14 q 76 -4 117 -14 q 20 17 35 5 l 20 92 q 74 61 36 75 q 151 47 113 47 q 254 86 217 47 q 290 195 290 124 q 283 249 290 224 q 263 295 275 274 q 211 361 252 316 q 151 434 167 409 q 127 487 136 458 q 118 553 118 515 q 172 695 118 641 q 313 750 227 750 q 461 708 405 750 l 427 650 q 310 689 378 689 q 218 654 254 689 q 182 561 182 619 q 196 488 182 521 q 252 411 211 456 q 318 331 300 358 q 345 272 335 304 q 355 201 355 240 q 303 42 355 98 q 155 -14 252 -14 z "},"t":{"ha":273,"x_min":65,"x_max":357,"o":"m 222 54 l 222 0 q 151 -14 184 -14 q 65 89 65 -14 q 74 157 65 115 l 184 679 l 118 679 l 126 717 l 196 736 l 250 911 l 297 911 l 260 736 l 357 736 l 345 679 l 248 679 l 140 175 q 131 103 131 132 q 142 59 131 73 q 178 46 153 46 q 222 54 199 46 z "},"u":{"ha":533,"x_min":83,"x_max":561,"o":"m 268 736 l 158 224 q 146 132 146 171 q 210 49 146 49 q 411 332 351 49 l 497 736 l 561 736 l 404 0 l 354 0 l 359 92 l 357 92 q 195 -14 288 -14 q 83 121 83 -14 q 97 233 83 174 l 204 736 l 268 736 z "},"v":{"ha":399,"x_min":121,"x_max":509,"o":"m 121 0 l 121 736 l 184 736 l 184 289 q 181 193 184 263 q 174 83 178 123 l 178 83 q 212 179 192 125 q 441 736 233 233 l 509 736 l 197 0 l 121 0 z "},"w":{"ha":686,"x_min":115,"x_max":790,"o":"m 412 0 l 432 498 l 440 653 q 404 546 413 573 q 195 0 394 519 l 115 0 l 129 736 l 193 736 l 184 307 q 170 83 182 188 l 172 83 q 199 161 178 102 q 419 736 220 220 l 493 736 l 482 307 q 472 130 480 246 l 469 83 l 472 83 l 513 190 l 725 736 l 790 736 l 494 0 l 412 0 z "},"x":{"ha":412,"x_min":-18,"x_max":500,"o":"m 212 387 l 150 736 l 215 736 l 262 441 l 432 736 l 500 736 l 278 371 l 351 0 l 286 0 l 232 313 l 50 0 l -18 0 l 212 387 z "},"y":{"ha":399,"x_min":-107,"x_max":510,"o":"m -46 -334 q -107 -321 -77 -334 l -107 -262 q -47 -273 -82 -273 q 15 -244 -11 -273 q 79 -126 41 -214 l 127 -11 l 122 736 l 186 736 l 186 302 q 178 83 186 193 l 182 83 q 248 262 218 190 l 443 736 l 510 736 l 129 -165 q 50 -296 90 -259 q -46 -334 11 -334 z "},"z":{"ha":330,"x_min":-3,"x_max":410,"o":"m 264 0 l -3 0 l 7 52 l 329 679 l 150 679 l 163 736 l 410 736 l 399 684 l 75 57 l 277 57 l 264 0 z "},"{":{"ha":450,"x_min":85,"x_max":568,"o":"m 568 991 l 555 937 q 444 905 479 936 q 395 803 409 873 l 343 564 q 287 445 328 488 q 174 387 247 402 l 174 385 q 251 345 226 373 q 275 268 275 316 q 268 208 275 245 l 222 -5 q 215 -64 215 -43 q 239 -139 215 -115 q 318 -165 263 -164 l 318 -220 q 191 -179 231 -217 q 151 -68 151 -141 q 160 -3 151 -37 l 205 216 q 211 264 211 238 q 85 363 211 363 l 96 410 q 219 447 176 410 q 278 555 262 484 l 332 807 q 407 948 352 905 q 568 991 462 991 z "},"|":{"ha":500,"x_min":90,"x_max":447,"o":"m 153 -334 l 90 -334 l 385 1055 l 447 1055 l 153 -334 z "},"}":{"ha":450,"x_min":-40,"x_max":443,"o":"m -40 -220 l -28 -165 q 83 -134 48 -164 q 134 -31 119 -103 l 184 208 q 240 327 200 284 q 354 385 281 370 l 354 387 q 277 427 302 399 q 253 504 253 456 q 260 564 253 531 l 306 778 q 313 836 313 812 q 289 911 313 886 q 210 937 264 936 l 210 991 q 337 951 297 989 q 376 840 376 913 q 368 775 376 810 l 322 555 q 317 509 317 534 q 443 410 317 410 l 432 363 q 309 326 351 363 q 250 216 266 289 l 196 -35 q 120 -177 176 -134 q -40 -220 65 -220 z "},"~":{"ha":500,"x_min":75,"x_max":534,"o":"m 408 424 q 294 461 353 424 q 244 489 269 476 q 191 501 220 501 q 75 419 142 501 l 75 486 q 203 558 134 558 q 268 545 236 558 q 332 512 299 532 q 421 482 382 482 q 477 502 450 482 q 534 561 504 522 l 534 494 q 408 424 479 424 z "}," ":{"ha":325,"x_min":0,"x_max":0,"o":""},"¡":{"ha":323,"x_min":36,"x_max":330,"o":"m 215 478 l 257 478 l 119 -265 l 36 -265 l 215 478 m 330 690 q 312 621 330 650 q 261 593 294 593 q 233 607 243 593 q 222 644 222 621 q 241 711 222 686 q 289 737 260 737 q 318 725 306 737 q 330 690 330 713 z "},"¢":{"ha":500,"x_min":131,"x_max":533,"o":"m 204 -14 l 236 135 q 131 330 131 165 q 166 589 131 463 q 261 793 202 715 q 396 888 321 870 l 421 1006 l 478 1006 l 454 890 q 533 869 502 886 l 507 811 q 431 831 471 831 q 316 763 368 831 q 231 571 264 695 q 197 332 197 448 q 223 220 197 254 q 297 186 248 186 q 350 195 328 186 q 387 212 372 204 l 403 155 q 354 137 385 144 q 292 127 323 129 l 261 -14 l 204 -14 z "},"£":{"ha":500,"x_min":5,"x_max":602,"o":"m 461 1006 q 533 994 502 1006 q 602 950 565 982 l 558 897 q 456 945 515 945 q 369 900 401 945 q 317 760 336 855 l 267 521 l 418 521 l 406 463 l 254 463 l 212 268 q 104 64 180 117 l 414 64 l 400 0 l 5 0 l 18 56 q 95 129 61 75 q 146 267 128 182 l 187 463 l 92 463 l 104 521 l 200 521 l 256 782 q 328 947 279 889 q 461 1006 376 1006 z "},"¤":{"ha":693,"x_min":125,"x_max":663,"o":"m 154 490 q 207 640 154 570 l 125 724 l 160 758 l 241 675 q 395 730 312 730 q 545 676 477 730 l 627 758 l 663 724 l 581 642 q 635 490 635 574 q 581 339 635 406 l 663 256 l 628 221 l 545 302 q 395 250 475 250 q 241 304 309 250 l 161 221 l 125 258 l 207 339 q 154 490 154 409 m 210 490 q 263 360 210 414 q 395 306 316 306 q 526 360 473 306 q 579 490 579 415 q 525 621 579 567 q 395 675 471 675 q 263 621 317 675 q 210 490 210 567 z "},"¥":{"ha":500,"x_min":71,"x_max":590,"o":"m 243 444 l 218 991 l 281 991 l 297 486 l 526 991 l 590 991 l 335 444 l 457 444 l 444 389 l 309 389 l 281 253 l 415 253 l 404 197 l 269 197 l 227 0 l 161 0 l 203 197 l 71 197 l 82 253 l 214 253 l 241 389 l 111 389 l 123 444 l 243 444 z "},"¦":{"ha":500,"x_min":90,"x_max":447,"o":"m 334 514 l 271 514 l 385 1055 l 447 1055 l 334 514 m 153 -334 l 90 -334 l 205 208 l 268 208 l 153 -334 z "},"§":{"ha":427,"x_min":18,"x_max":517,"o":"m 375 1055 q 517 1013 461 1055 l 484 962 q 375 1002 432 1002 q 276 966 314 1002 q 239 876 239 930 q 255 812 239 839 q 326 746 271 785 q 411 666 387 703 q 435 587 435 629 q 407 480 435 526 q 317 396 380 434 q 371 275 371 342 q 343 165 371 212 q 268 92 315 118 q 163 66 220 66 q 78 76 118 66 q 18 100 39 85 l 18 168 q 83 135 43 147 q 163 122 123 122 q 264 162 222 122 q 306 265 306 202 q 299 309 306 290 q 280 344 293 328 q 229 389 267 360 q 129 482 154 444 q 103 564 103 520 q 236 741 103 680 q 190 803 203 771 q 176 871 176 834 q 233 1002 176 949 q 375 1055 290 1055 m 370 576 q 352 639 370 613 q 296 692 335 665 l 275 707 q 165 572 165 665 q 194 500 165 532 q 283 431 222 468 q 370 576 370 487 z "},"¨":{"ha":688,"x_min":307,"x_max":579,"o":"m 307 924 q 322 979 307 957 q 363 1000 338 1000 q 395 961 395 1000 q 380 903 395 925 q 340 880 366 880 q 307 924 307 880 m 492 924 q 507 979 492 957 q 547 1000 523 1000 q 579 961 579 1000 q 565 903 579 925 q 525 880 550 880 q 492 924 492 880 z "},"©":{"ha":1156,"x_min":118,"x_max":1137,"o":"m 659 741 q 508 676 562 741 q 453 497 453 612 q 504 311 453 371 q 653 250 554 250 q 787 279 710 250 l 787 220 q 646 189 718 189 q 450 268 519 189 q 382 492 382 347 q 457 717 382 633 q 659 802 532 802 q 812 766 739 802 l 787 710 q 659 741 721 741 m 118 496 q 186 750 118 631 q 372 937 254 869 q 628 1006 491 1006 q 881 939 763 1006 q 1068 752 1000 871 q 1137 496 1137 632 q 1070 243 1137 361 q 886 56 1004 125 q 628 -14 768 -14 q 369 57 488 -14 q 184 244 250 127 q 118 496 118 361 m 180 496 q 243 269 180 372 q 408 107 305 165 q 628 49 510 49 q 851 109 749 49 q 1015 272 954 169 q 1075 496 1075 375 q 1017 716 1075 614 q 855 881 959 819 q 628 943 751 943 q 404 883 507 943 q 241 720 301 823 q 180 496 180 617 z "},"ª":{"ha":346,"x_min":97,"x_max":401,"o":"m 289 554 l 290 611 l 286 611 q 235 561 260 575 q 179 546 210 546 q 120 572 144 546 q 97 640 97 597 q 140 755 97 712 q 264 807 184 799 l 330 814 l 340 861 q 346 905 346 883 q 332 945 346 935 q 296 956 319 956 q 226 937 264 956 l 210 929 l 196 974 q 249 994 217 985 q 311 1003 281 1003 q 401 922 401 1003 q 393 863 401 898 l 328 554 l 289 554 m 153 644 q 199 593 153 593 q 267 629 236 593 q 311 725 298 665 l 321 770 l 281 765 q 153 644 153 752 z "},"«":{"ha":522,"x_min":86,"x_max":564,"o":"m 315 615 l 354 587 l 167 357 l 252 119 l 208 100 l 86 349 l 89 367 l 315 615 m 526 615 l 564 587 l 378 357 l 461 119 l 419 100 l 296 349 l 298 367 l 526 615 z "},"¬":{"ha":500,"x_min":71,"x_max":500,"o":"m 500 526 l 500 214 l 450 214 l 450 471 l 71 471 l 71 526 l 500 526 z "},"­":{"ha":315,"x_min":64,"x_max":329,"o":"m 64 340 l 79 410 l 329 410 l 314 340 l 64 340 z "},"®":{"ha":1156,"x_min":118,"x_max":1137,"o":"m 530 496 l 607 496 q 704 527 669 496 q 739 619 739 559 q 606 736 739 736 l 530 736 l 530 496 m 810 623 q 783 528 810 569 q 708 464 757 486 l 869 197 l 787 197 l 644 441 l 530 441 l 530 197 l 463 197 l 463 794 l 606 794 q 756 752 702 794 q 810 623 810 710 m 118 496 q 186 750 118 631 q 372 937 254 869 q 628 1006 491 1006 q 881 939 763 1006 q 1068 752 1000 871 q 1137 496 1137 632 q 1070 243 1137 361 q 886 56 1004 125 q 628 -14 768 -14 q 369 57 488 -14 q 184 244 250 127 q 118 496 118 361 m 180 496 q 243 269 180 372 q 408 107 305 165 q 628 49 510 49 q 851 109 749 49 q 1015 272 954 169 q 1075 496 1075 375 q 1017 716 1075 614 q 855 881 959 819 q 628 943 751 943 q 404 883 507 943 q 241 720 301 823 q 180 496 180 617 z "},"¯":{"ha":514,"x_min":154,"x_max":690,"o":"m 677 1055 l 154 1055 l 167 1111 l 690 1111 l 677 1055 z "},"°":{"ha":518,"x_min":163,"x_max":568,"o":"m 163 803 q 221 949 163 892 q 366 1006 280 1006 q 510 948 452 1006 q 568 803 568 890 q 510 658 568 715 q 366 600 452 600 q 220 656 277 600 q 163 803 163 713 m 220 803 q 262 695 220 739 q 366 652 305 652 q 468 695 425 652 q 511 803 511 738 q 469 911 511 868 q 366 954 426 954 q 261 910 303 954 q 220 803 220 867 z "},"±":{"ha":500,"x_min":28,"x_max":457,"o":"m 28 50 l 457 50 l 457 0 l 28 0 l 28 50 m 267 467 l 457 467 l 457 416 l 267 416 l 267 179 l 216 179 l 216 416 l 28 416 l 28 467 l 216 467 l 216 704 l 267 704 l 267 467 z "},"²":{"ha":335,"x_min":35,"x_max":407,"o":"m 319 397 l 35 397 l 40 450 l 235 660 q 319 771 292 718 q 347 876 347 824 q 328 934 347 914 q 278 954 309 954 q 227 944 250 954 q 168 904 204 935 l 142 951 q 210 994 176 981 q 285 1007 243 1007 q 374 971 341 1007 q 407 879 407 936 q 390 790 407 831 q 343 707 373 748 q 224 572 313 665 l 110 452 l 330 452 l 319 397 z "},"³":{"ha":335,"x_min":39,"x_max":407,"o":"m 407 876 q 376 773 407 816 q 294 710 345 730 l 293 704 q 358 585 358 668 q 303 442 358 498 q 161 386 248 386 q 39 408 83 386 l 39 468 q 93 445 66 452 q 161 437 119 437 q 260 478 221 437 q 298 579 298 519 q 271 656 298 629 q 200 684 244 684 l 163 684 l 172 733 l 211 733 q 308 773 269 733 q 347 872 347 812 q 329 932 347 911 q 277 953 310 953 q 217 942 243 953 q 164 911 191 930 l 140 958 q 201 992 168 978 q 281 1007 234 1007 q 373 971 338 1007 q 407 876 407 935 z "},"´":{"ha":688,"x_min":339,"x_max":585,"o":"m 339 842 l 339 852 q 490 1064 444 979 l 585 1064 l 585 1053 q 492 947 556 1010 q 374 842 429 884 l 339 842 z "},"µ":{"ha":530,"x_min":-22,"x_max":561,"o":"m 268 736 l 158 224 q 146 132 146 171 q 210 49 146 49 q 411 332 351 49 l 497 736 l 561 736 l 404 0 l 354 0 l 359 92 l 357 92 q 200 -14 288 -14 q 115 41 140 -14 q 101 -43 108 -5 q 39 -334 94 -81 l -22 -334 l 204 736 l 268 736 z "},"¶":{"ha":590,"x_min":153,"x_max":644,"o":"m 383 -176 l 323 -176 l 571 990 l 485 990 l 237 -176 l 178 -176 l 294 375 q 245 367 279 367 q 179 409 205 367 q 153 519 153 450 q 197 790 153 660 q 314 987 242 920 q 472 1055 385 1055 l 644 1055 l 383 -176 z "},"·":{"ha":257,"x_min":126,"x_max":235,"o":"m 126 465 q 145 534 126 507 q 196 562 164 562 q 226 546 217 562 q 235 511 235 530 q 216 444 235 471 q 168 418 198 418 q 139 430 151 418 q 126 465 126 442 z "},"¸":{"ha":283,"x_min":-18,"x_max":224,"o":"m 224 -180 q 177 -291 224 -248 q 56 -334 131 -334 q 15 -331 39 -334 q -18 -326 -9 -329 l -18 -273 q 52 -281 -1 -281 q 134 -256 104 -281 q 164 -189 164 -231 q 140 -139 164 -159 q 61 -109 117 -119 l 131 0 l 186 0 l 132 -78 q 200 -118 176 -90 q 224 -180 224 -145 z "},"¹":{"ha":335,"x_min":144,"x_max":371,"o":"m 244 397 l 186 397 l 288 867 l 302 925 q 256 887 272 899 q 168 827 240 876 l 144 873 l 310 991 l 371 991 l 244 397 z "},"º":{"ha":378,"x_min":111,"x_max":432,"o":"m 432 869 q 404 710 432 790 q 331 588 375 629 q 232 546 287 546 q 143 580 176 546 q 111 677 111 614 q 140 842 111 761 q 214 963 168 922 q 315 1003 259 1003 q 400 970 368 1003 q 432 869 432 937 m 310 956 q 240 921 271 956 q 191 817 210 886 q 171 681 171 747 q 184 612 171 634 q 232 590 198 590 q 303 624 271 590 q 353 727 334 658 q 372 868 372 796 q 358 934 372 913 q 310 956 343 956 z "},"»":{"ha":522,"x_min":33,"x_max":511,"o":"m 282 100 l 243 127 l 431 358 l 346 596 l 389 615 l 511 367 l 509 349 l 282 100 m 71 100 l 33 127 l 220 358 l 136 596 l 178 615 l 301 367 l 298 349 l 71 100 z "},"¼":{"ha":872,"x_min":65,"x_max":892,"o":"m 780 142 l 719 142 l 688 1 l 635 1 l 662 142 l 458 142 l 464 186 l 760 599 l 817 599 l 730 198 l 791 198 l 780 142 m 673 198 l 715 389 q 741 505 732 471 l 728 482 l 673 399 l 530 198 l 673 198 m 256 397 l 198 397 l 300 867 l 315 925 q 268 887 284 899 q 180 827 252 876 l 157 873 l 322 991 l 383 991 l 256 397 m 892 991 l 131 0 l 65 0 l 827 991 l 892 991 z "},"½":{"ha":872,"x_min":57,"x_max":892,"o":"m 804 1 l 519 1 l 525 54 l 720 263 q 804 374 777 321 q 832 479 832 427 q 813 537 832 517 q 763 557 793 557 q 712 548 734 557 q 653 507 689 538 l 627 555 q 695 597 661 585 q 770 610 728 610 q 859 575 826 610 q 892 482 892 539 q 875 393 892 435 q 828 310 858 351 q 709 176 798 269 l 595 55 l 815 55 l 804 1 m 256 397 l 198 397 l 300 867 l 315 925 q 268 887 284 899 q 180 827 252 876 l 157 873 l 322 991 l 383 991 l 256 397 m 884 991 l 123 0 l 57 0 l 819 991 l 884 991 z "},"¾":{"ha":872,"x_min":68,"x_max":926,"o":"m 809 142 l 748 142 l 718 1 l 665 1 l 691 142 l 487 142 l 493 186 l 789 599 l 846 599 l 760 198 l 821 198 l 809 142 m 703 198 l 744 389 q 770 505 761 471 l 757 482 l 703 399 l 559 198 l 703 198 m 436 876 q 405 773 436 816 q 323 710 374 730 l 322 704 q 387 585 387 668 q 332 442 387 498 q 191 386 277 386 q 68 408 113 386 l 68 468 q 122 445 95 452 q 191 437 149 437 q 289 478 250 437 q 328 579 328 519 q 300 656 328 629 q 229 684 273 684 l 192 684 l 201 733 l 240 733 q 337 773 298 733 q 376 872 376 812 q 358 932 376 911 q 306 953 339 953 q 246 942 272 953 q 193 911 220 930 l 170 958 q 230 992 197 978 q 310 1007 263 1007 q 402 971 368 1007 q 436 876 436 935 m 926 991 l 165 0 l 100 0 l 861 991 l 926 991 z "},"¿":{"ha":353,"x_min":-20,"x_max":382,"o":"m 317 478 q 294 381 304 412 q 269 315 285 349 q 233 248 253 280 q 143 119 214 215 q 70 -5 90 50 q 49 -119 49 -60 q 71 -194 49 -170 q 129 -218 92 -218 q 178 -211 156 -218 q 240 -175 201 -203 l 267 -228 q 123 -279 194 -279 q 17 -239 54 -279 q -20 -126 -20 -198 q -7 -36 -20 -78 q 28 45 5 5 q 118 172 51 85 q 202 291 178 249 q 243 378 227 332 q 269 478 260 423 l 317 478 m 382 690 q 363 621 382 649 q 313 593 344 593 q 282 609 292 593 q 273 644 273 625 q 292 711 273 686 q 340 737 310 737 q 370 725 357 737 q 382 690 382 713 z "},"À":{"ha":496,"x_min":-53,"x_max":460,"o":"m 376 0 l 376 359 l 168 359 l 18 0 l -53 0 l 358 996 l 441 996 l 441 0 l 376 0 m 376 427 l 376 677 l 380 918 q 345 815 370 883 q 192 427 320 747 l 376 427 m 434 1071 q 365 1173 401 1109 q 317 1282 329 1237 l 317 1293 l 404 1293 q 460 1084 421 1187 l 460 1071 l 434 1071 z "},"Á":{"ha":496,"x_min":-53,"x_max":598,"o":"m 376 0 l 376 359 l 168 359 l 18 0 l -53 0 l 358 996 l 441 996 l 441 0 l 376 0 m 376 427 l 376 677 l 380 918 q 345 815 370 883 q 192 427 320 747 l 376 427 m 353 1071 l 353 1082 q 504 1293 457 1208 l 598 1293 l 598 1282 q 506 1176 570 1239 q 387 1071 442 1113 l 353 1071 z "},"Â":{"ha":496,"x_min":-53,"x_max":552,"o":"m 376 0 l 376 359 l 168 359 l 18 0 l -53 0 l 358 996 l 441 996 l 441 0 l 376 0 m 376 427 l 376 677 l 380 918 q 345 815 370 883 q 192 427 320 747 l 376 427 m 517 1071 q 433 1208 477 1131 q 284 1071 343 1119 l 254 1071 l 256 1084 q 418 1293 365 1207 l 477 1293 q 509 1191 484 1259 q 552 1084 534 1124 l 549 1071 l 517 1071 z "},"Ã":{"ha":496,"x_min":-53,"x_max":608,"o":"m 376 0 l 376 359 l 168 359 l 18 0 l -53 0 l 358 996 l 441 996 l 441 0 l 376 0 m 376 427 l 376 677 l 380 918 q 345 815 370 883 q 192 427 320 747 l 376 427 m 500 1078 q 457 1092 477 1078 q 418 1122 437 1105 q 382 1153 399 1139 q 348 1166 365 1166 q 306 1143 321 1166 q 279 1076 290 1119 l 231 1076 q 282 1195 252 1158 q 353 1232 313 1232 q 397 1218 378 1232 q 434 1188 417 1204 q 468 1157 452 1171 q 500 1143 484 1143 q 533 1159 521 1143 q 560 1235 545 1174 l 608 1235 q 563 1111 588 1144 q 500 1078 538 1078 z "},"Ä":{"ha":496,"x_min":-53,"x_max":559,"o":"m 376 0 l 376 359 l 168 359 l 18 0 l -53 0 l 358 996 l 441 996 l 441 0 l 376 0 m 376 427 l 376 677 l 380 918 q 345 815 370 883 q 192 427 320 747 l 376 427 m 287 1153 q 302 1208 287 1186 q 342 1230 317 1230 q 374 1190 374 1230 q 360 1132 374 1154 q 320 1109 345 1109 q 287 1153 287 1109 m 471 1153 q 487 1208 471 1186 q 527 1230 503 1230 q 559 1190 559 1230 q 544 1132 559 1154 q 505 1109 530 1109 q 471 1153 471 1109 z "},"Å":{"ha":496,"x_min":-53,"x_max":530,"o":"m 376 0 l 376 359 l 168 359 l 18 0 l -53 0 l 358 996 l 441 996 l 441 0 l 376 0 m 376 427 l 376 677 l 380 918 q 345 815 370 883 q 192 427 320 747 l 376 427 m 530 1084 q 495 989 530 1024 q 401 954 460 954 q 306 989 340 954 q 271 1081 271 1023 q 306 1173 271 1139 q 401 1207 340 1207 q 494 1173 458 1207 q 530 1084 530 1138 m 481 1081 q 460 1140 481 1116 q 401 1163 439 1163 q 341 1140 363 1163 q 320 1081 320 1116 q 339 1022 320 1044 q 401 1000 359 1000 q 459 1022 437 1000 q 481 1081 481 1044 z "},"Æ":{"ha":703,"x_min":-52,"x_max":800,"o":"m 590 0 l 267 0 l 343 359 l 183 359 l 17 0 l -52 0 l 412 991 l 800 991 l 786 926 l 530 926 l 452 551 l 693 551 l 679 488 l 437 488 l 347 64 l 603 64 l 590 0 m 212 427 l 357 427 l 463 925 l 443 925 l 212 427 z "},"Ç":{"ha":493,"x_min":92,"x_max":642,"o":"m 501 942 q 335 854 413 942 q 207 613 256 767 q 158 317 158 460 q 193 114 158 178 q 310 49 228 49 q 427 75 361 49 l 427 11 q 300 -14 363 -14 q 144 65 196 -14 q 92 304 92 143 q 150 647 92 478 q 303 911 208 815 q 509 1007 398 1007 q 642 965 591 1007 l 600 907 q 501 942 559 942 m 353 -180 q 306 -291 353 -248 q 184 -334 260 -334 q 144 -331 168 -334 q 111 -326 119 -329 l 111 -273 q 180 -281 128 -281 q 263 -256 233 -281 q 293 -189 293 -231 q 269 -139 293 -159 q 190 -109 245 -119 l 260 0 l 315 0 l 261 -78 q 329 -118 305 -90 q 353 -180 353 -145 z "},"È":{"ha":481,"x_min":45,"x_max":578,"o":"m 368 0 l 45 0 l 254 991 l 578 991 l 564 926 l 309 926 l 229 551 l 469 551 l 456 488 l 215 488 l 125 64 l 380 64 l 368 0 m 438 1071 q 369 1173 406 1109 q 321 1282 333 1237 l 321 1293 l 408 1293 q 465 1084 425 1187 l 465 1071 l 438 1071 z "},"É":{"ha":481,"x_min":45,"x_max":607,"o":"m 368 0 l 45 0 l 254 991 l 578 991 l 564 926 l 309 926 l 229 551 l 469 551 l 456 488 l 215 488 l 125 64 l 380 64 l 368 0 m 361 1071 l 361 1082 q 513 1293 466 1208 l 607 1293 l 607 1282 q 515 1176 578 1239 q 396 1071 451 1113 l 361 1071 z "},"Ê":{"ha":481,"x_min":45,"x_max":578,"o":"m 368 0 l 45 0 l 254 991 l 578 991 l 564 926 l 309 926 l 229 551 l 469 551 l 456 488 l 215 488 l 125 64 l 380 64 l 368 0 m 538 1071 q 454 1208 498 1131 q 305 1071 364 1119 l 275 1071 l 277 1084 q 439 1293 386 1207 l 498 1293 q 530 1191 505 1259 q 573 1084 555 1124 l 570 1071 l 538 1071 z "},"Ë":{"ha":481,"x_min":45,"x_max":578,"o":"m 368 0 l 45 0 l 254 991 l 578 991 l 564 926 l 309 926 l 229 551 l 469 551 l 456 488 l 215 488 l 125 64 l 380 64 l 368 0 m 305 1153 q 320 1208 305 1186 q 361 1230 336 1230 q 393 1190 393 1230 q 378 1132 393 1154 q 338 1109 363 1109 q 305 1153 305 1109 m 490 1153 q 505 1208 490 1186 q 545 1230 521 1230 q 577 1190 577 1230 q 563 1132 577 1154 q 523 1109 548 1109 q 490 1153 490 1109 z "},"Ð":{"ha":607,"x_min":45,"x_max":619,"o":"m 619 710 q 563 341 619 507 q 407 87 507 175 q 174 0 307 0 l 45 0 l 146 485 l 86 485 l 98 547 l 158 547 l 254 991 l 401 991 q 563 920 506 991 q 619 710 619 849 m 187 64 q 371 142 290 64 q 500 376 452 221 q 549 710 549 532 q 392 926 549 926 l 309 926 l 227 547 l 355 547 l 343 485 l 212 485 l 125 64 l 187 64 z "},"Ñ":{"ha":665,"x_min":45,"x_max":725,"o":"m 515 0 l 433 0 l 297 889 l 292 889 q 261 711 282 811 l 111 0 l 45 0 l 254 991 l 343 991 l 473 113 l 478 113 l 488 171 l 511 298 l 659 991 l 725 991 l 515 0 m 589 1078 q 545 1092 565 1078 q 506 1122 525 1105 q 470 1153 488 1139 q 436 1166 453 1166 q 394 1143 409 1166 q 367 1076 378 1119 l 319 1076 q 371 1195 340 1158 q 441 1232 401 1232 q 486 1218 466 1232 q 523 1188 505 1204 q 556 1157 540 1171 q 589 1143 572 1143 q 621 1159 609 1143 q 648 1235 633 1174 l 696 1235 q 651 1111 676 1144 q 589 1078 627 1078 z "},"Ò":{"ha":650,"x_min":92,"x_max":663,"o":"m 279 -14 q 92 257 92 -14 q 123 538 92 390 q 207 793 154 686 q 328 953 260 901 q 476 1006 396 1006 q 663 746 663 1006 q 608 368 663 553 q 468 85 554 183 q 279 -14 382 -14 m 158 256 q 285 50 158 50 q 402 105 347 50 q 500 261 458 159 q 570 498 543 362 q 596 746 596 633 q 469 942 596 942 q 353 892 408 942 q 255 743 298 842 q 185 505 212 643 q 158 256 158 368 m 516 1071 q 447 1173 484 1109 q 399 1282 411 1237 l 399 1293 l 486 1293 q 543 1084 503 1187 l 543 1071 l 516 1071 z "},"Ó":{"ha":650,"x_min":92,"x_max":694,"o":"m 279 -14 q 92 257 92 -14 q 123 538 92 390 q 207 793 154 686 q 328 953 260 901 q 476 1006 396 1006 q 663 746 663 1006 q 608 368 663 553 q 468 85 554 183 q 279 -14 382 -14 m 158 256 q 285 50 158 50 q 402 105 347 50 q 500 261 458 159 q 570 498 543 362 q 596 746 596 633 q 469 942 596 942 q 353 892 408 942 q 255 743 298 842 q 185 505 212 643 q 158 256 158 368 m 449 1071 l 449 1082 q 600 1293 553 1208 l 694 1293 l 694 1282 q 602 1176 666 1239 q 484 1071 538 1113 l 449 1071 z "},"Ô":{"ha":650,"x_min":92,"x_max":663,"o":"m 279 -14 q 92 257 92 -14 q 123 538 92 390 q 207 793 154 686 q 328 953 260 901 q 476 1006 396 1006 q 663 746 663 1006 q 608 368 663 553 q 468 85 554 183 q 279 -14 382 -14 m 158 256 q 285 50 158 50 q 402 105 347 50 q 500 261 458 159 q 570 498 543 362 q 596 746 596 633 q 469 942 596 942 q 353 892 408 942 q 255 743 298 842 q 185 505 212 643 q 158 256 158 368 m 595 1071 q 510 1208 555 1131 q 361 1071 420 1119 l 331 1071 l 334 1084 q 496 1293 442 1207 l 554 1293 q 586 1191 562 1259 q 629 1084 611 1124 l 627 1071 l 595 1071 z "},"Õ":{"ha":650,"x_min":92,"x_max":682,"o":"m 279 -14 q 92 257 92 -14 q 123 538 92 390 q 207 793 154 686 q 328 953 260 901 q 476 1006 396 1006 q 663 746 663 1006 q 608 368 663 553 q 468 85 554 183 q 279 -14 382 -14 m 158 256 q 285 50 158 50 q 402 105 347 50 q 500 261 458 159 q 570 498 543 362 q 596 746 596 633 q 469 942 596 942 q 353 892 408 942 q 255 743 298 842 q 185 505 212 643 q 158 256 158 368 m 574 1078 q 531 1092 551 1078 q 492 1122 511 1105 q 456 1153 473 1139 q 422 1166 439 1166 q 379 1143 395 1166 q 353 1076 364 1119 l 305 1076 q 356 1195 326 1158 q 427 1232 387 1232 q 471 1218 452 1232 q 508 1188 491 1204 q 542 1157 526 1171 q 574 1143 558 1143 q 607 1159 595 1143 q 634 1235 618 1174 l 682 1235 q 637 1111 662 1144 q 574 1078 612 1078 z "},"Ö":{"ha":650,"x_min":92,"x_max":663,"o":"m 279 -14 q 92 257 92 -14 q 123 538 92 390 q 207 793 154 686 q 328 953 260 901 q 476 1006 396 1006 q 663 746 663 1006 q 608 368 663 553 q 468 85 554 183 q 279 -14 382 -14 m 158 256 q 285 50 158 50 q 402 105 347 50 q 500 261 458 159 q 570 498 543 362 q 596 746 596 633 q 469 942 596 942 q 353 892 408 942 q 255 743 298 842 q 185 505 212 643 q 158 256 158 368 m 371 1153 q 386 1208 371 1186 q 427 1230 401 1230 q 458 1190 458 1230 q 444 1132 458 1154 q 404 1109 429 1109 q 371 1153 371 1109 m 555 1153 q 571 1208 555 1186 q 611 1230 587 1230 q 643 1190 643 1230 q 628 1132 643 1154 q 589 1109 614 1109 q 555 1153 555 1109 z "},"×":{"ha":500,"x_min":90,"x_max":518,"o":"m 302 525 l 482 704 l 518 669 l 339 490 l 514 314 l 479 279 l 302 456 l 125 277 l 90 313 l 268 490 l 92 667 l 126 701 l 302 525 z "},"Ø":{"ha":650,"x_min":16,"x_max":743,"o":"m 279 -14 q 138 56 185 -14 l 62 -64 l 16 -36 l 110 115 q 92 257 92 172 q 123 538 92 390 q 207 793 154 686 q 328 953 260 901 q 476 1006 396 1006 q 621 932 574 1006 l 694 1048 l 743 1018 l 648 868 q 663 746 663 814 q 608 368 663 553 q 468 85 554 183 q 279 -14 382 -14 m 158 256 q 161 197 158 214 l 578 863 q 469 942 547 942 q 353 892 408 942 q 255 743 298 842 q 185 505 212 643 q 158 256 158 368 m 285 50 q 402 105 347 50 q 500 261 458 159 q 570 498 543 362 q 596 746 596 633 l 595 782 l 179 122 q 285 50 210 50 z "},"Ù":{"ha":618,"x_min":87,"x_max":686,"o":"m 686 991 l 541 311 q 438 63 503 140 q 261 -14 372 -14 q 132 39 176 -14 q 87 187 87 92 q 100 298 87 238 l 249 991 l 315 991 l 165 290 q 153 187 153 236 q 269 50 153 50 q 396 111 347 50 q 473 310 445 172 l 619 991 l 686 991 m 486 1071 q 417 1173 454 1109 q 370 1282 381 1237 l 370 1293 l 456 1293 q 513 1084 473 1187 l 513 1071 l 486 1071 z "},"Ú":{"ha":618,"x_min":87,"x_max":686,"o":"m 686 991 l 541 311 q 438 63 503 140 q 261 -14 372 -14 q 132 39 176 -14 q 87 187 87 92 q 100 298 87 238 l 249 991 l 315 991 l 165 290 q 153 187 153 236 q 269 50 153 50 q 396 111 347 50 q 473 310 445 172 l 619 991 l 686 991 m 408 1071 l 408 1082 q 559 1293 513 1208 l 654 1293 l 654 1282 q 562 1176 625 1239 q 443 1071 498 1113 l 408 1071 z "},"Û":{"ha":618,"x_min":87,"x_max":686,"o":"m 686 991 l 541 311 q 438 63 503 140 q 261 -14 372 -14 q 132 39 176 -14 q 87 187 87 92 q 100 298 87 238 l 249 991 l 315 991 l 165 290 q 153 187 153 236 q 269 50 153 50 q 396 111 347 50 q 473 310 445 172 l 619 991 l 686 991 m 591 1071 q 506 1208 551 1131 q 357 1071 416 1119 l 327 1071 l 330 1084 q 492 1293 438 1207 l 550 1293 q 582 1191 557 1259 q 625 1084 607 1124 l 623 1071 l 591 1071 z "},"Ü":{"ha":618,"x_min":87,"x_max":686,"o":"m 686 991 l 541 311 q 438 63 503 140 q 261 -14 372 -14 q 132 39 176 -14 q 87 187 87 92 q 100 298 87 238 l 249 991 l 315 991 l 165 290 q 153 187 153 236 q 269 50 153 50 q 396 111 347 50 q 473 310 445 172 l 619 991 l 686 991 m 357 1153 q 373 1208 357 1186 q 413 1230 388 1230 q 445 1190 445 1230 q 430 1132 445 1154 q 391 1109 416 1109 q 357 1153 357 1109 m 542 1153 q 557 1208 542 1186 q 597 1230 573 1230 q 629 1190 629 1230 q 615 1132 629 1154 q 575 1109 600 1109 q 542 1153 542 1109 z "},"Ý":{"ha":418,"x_min":122,"x_max":575,"o":"m 257 479 l 505 991 l 575 991 l 272 387 l 191 0 l 122 0 l 204 387 l 154 991 l 222 991 l 257 479 m 319 1071 l 319 1082 q 470 1293 423 1208 l 564 1293 l 564 1282 q 472 1176 536 1239 q 353 1071 408 1113 l 319 1071 z "},"Þ":{"ha":513,"x_min":45,"x_max":543,"o":"m 321 991 l 282 808 l 326 808 q 484 751 425 808 q 543 600 543 694 q 501 402 543 490 q 388 271 459 315 q 224 227 316 227 l 158 227 l 111 0 l 45 0 l 254 991 l 321 991 m 172 290 l 220 290 q 406 369 340 290 q 472 589 472 448 q 321 743 472 743 l 268 743 l 172 290 z "},"ß":{"ha":503,"x_min":-149,"x_max":551,"o":"m 422 1063 q 517 1024 483 1063 q 551 921 551 985 q 530 822 551 870 q 449 704 509 774 q 385 612 401 647 q 370 545 370 578 q 386 471 370 508 q 421 392 402 433 q 453 310 439 353 q 467 216 467 267 q 411 51 467 115 q 264 -14 355 -14 q 200 -5 229 -14 q 155 17 171 4 l 155 85 q 267 47 208 47 q 365 91 328 47 q 401 208 401 134 q 367 355 401 276 l 346 401 q 304 538 304 484 q 323 629 304 587 q 382 715 342 671 q 463 822 439 778 q 486 921 486 866 q 466 980 486 961 q 411 999 446 999 q 329 956 361 999 q 278 823 296 912 l 85 -72 q 39 -236 60 -183 q -10 -311 18 -288 q -89 -334 -39 -334 q -149 -326 -123 -334 l -149 -264 q -92 -272 -124 -272 q -42 -254 -60 -272 q -10 -194 -24 -236 q 22 -68 5 -152 l 211 817 q 288 1001 237 939 q 422 1063 338 1063 z "},"à":{"ha":554,"x_min":81,"x_max":583,"o":"m 216 -14 q 81 178 81 -14 q 123 458 81 319 q 233 674 165 597 q 380 750 300 750 q 498 648 471 750 l 503 648 l 529 736 l 583 736 l 428 0 l 376 0 l 389 106 l 386 106 q 216 -14 309 -14 m 229 43 q 343 113 290 43 q 433 319 396 184 q 469 575 469 455 q 445 660 469 631 q 378 689 421 689 q 267 620 318 689 q 182 418 216 551 q 147 168 147 286 q 165 75 147 106 q 229 43 183 43 m 397 842 q 329 944 365 880 q 281 1053 292 1008 l 281 1064 l 367 1064 q 424 854 385 958 l 424 842 l 397 842 z "},"á":{"ha":554,"x_min":81,"x_max":583,"o":"m 216 -14 q 81 178 81 -14 q 123 458 81 319 q 233 674 165 597 q 380 750 300 750 q 498 648 471 750 l 503 648 l 529 736 l 583 736 l 428 0 l 376 0 l 389 106 l 386 106 q 216 -14 309 -14 m 229 43 q 343 113 290 43 q 433 319 396 184 q 469 575 469 455 q 445 660 469 631 q 378 689 421 689 q 267 620 318 689 q 182 418 216 551 q 147 168 147 286 q 165 75 147 106 q 229 43 183 43 m 317 842 l 317 852 q 469 1064 422 979 l 563 1064 l 563 1053 q 471 947 534 1010 q 352 842 407 884 l 317 842 z "},"â":{"ha":554,"x_min":81,"x_max":583,"o":"m 216 -14 q 81 178 81 -14 q 123 458 81 319 q 233 674 165 597 q 380 750 300 750 q 498 648 471 750 l 503 648 l 529 736 l 583 736 l 428 0 l 376 0 l 389 106 l 386 106 q 216 -14 309 -14 m 229 43 q 343 113 290 43 q 433 319 396 184 q 469 575 469 455 q 445 660 469 631 q 378 689 421 689 q 267 620 318 689 q 182 418 216 551 q 147 168 147 286 q 165 75 147 106 q 229 43 183 43 m 504 843 q 419 981 464 903 q 271 843 330 891 l 240 843 l 243 856 q 405 1065 351 979 l 463 1065 q 495 963 471 1031 q 538 856 520 896 l 536 843 l 504 843 z "},"ã":{"ha":554,"x_min":81,"x_max":591,"o":"m 216 -14 q 81 178 81 -14 q 123 458 81 319 q 233 674 165 597 q 380 750 300 750 q 498 648 471 750 l 503 648 l 529 736 l 583 736 l 428 0 l 376 0 l 389 106 l 386 106 q 216 -14 309 -14 m 229 43 q 343 113 290 43 q 433 319 396 184 q 469 575 469 455 q 445 660 469 631 q 378 689 421 689 q 267 620 318 689 q 182 418 216 551 q 147 168 147 286 q 165 75 147 106 q 229 43 183 43 m 484 848 q 440 862 460 848 q 401 893 420 876 q 365 923 382 909 q 331 937 348 937 q 289 913 304 937 q 262 847 273 890 l 214 847 q 266 966 235 928 q 336 1003 296 1003 q 380 989 361 1003 q 417 959 400 975 q 451 928 435 942 q 484 914 467 914 q 516 929 504 914 q 543 1006 528 945 l 591 1006 q 546 882 571 915 q 484 848 522 848 z "},"ä":{"ha":554,"x_min":81,"x_max":583,"o":"m 216 -14 q 81 178 81 -14 q 123 458 81 319 q 233 674 165 597 q 380 750 300 750 q 498 648 471 750 l 503 648 l 529 736 l 583 736 l 428 0 l 376 0 l 389 106 l 386 106 q 216 -14 309 -14 m 229 43 q 343 113 290 43 q 433 319 396 184 q 469 575 469 455 q 445 660 469 631 q 378 689 421 689 q 267 620 318 689 q 182 418 216 551 q 147 168 147 286 q 165 75 147 106 q 229 43 183 43 m 280 924 q 295 979 280 957 q 336 1000 311 1000 q 368 961 368 1000 q 353 903 368 925 q 313 880 338 880 q 280 924 280 880 m 465 924 q 480 979 465 957 q 520 1000 496 1000 q 552 961 552 1000 q 537 903 552 925 q 498 880 523 880 q 465 924 465 880 z "},"å":{"ha":554,"x_min":81,"x_max":583,"o":"m 216 -14 q 81 178 81 -14 q 123 458 81 319 q 233 674 165 597 q 380 750 300 750 q 498 648 471 750 l 503 648 l 529 736 l 583 736 l 428 0 l 376 0 l 389 106 l 386 106 q 216 -14 309 -14 m 229 43 q 343 113 290 43 q 433 319 396 184 q 469 575 469 455 q 445 660 469 631 q 378 689 421 689 q 267 620 318 689 q 182 418 216 551 q 147 168 147 286 q 165 75 147 106 q 229 43 183 43 m 524 978 q 490 883 524 918 q 395 848 455 848 q 300 883 334 848 q 266 975 266 918 q 300 1067 266 1033 q 395 1101 334 1101 q 488 1067 452 1101 q 524 978 524 1032 m 476 975 q 455 1034 476 1010 q 395 1057 433 1057 q 336 1034 357 1057 q 315 975 315 1010 q 334 917 315 939 q 395 895 353 895 q 454 917 431 895 q 476 975 476 939 z "},"æ":{"ha":808,"x_min":81,"x_max":822,"o":"m 216 -14 q 81 178 81 -14 q 123 458 81 319 q 233 674 165 597 q 380 750 300 750 q 446 727 420 750 q 485 646 471 703 l 511 736 l 566 736 l 543 640 q 699 750 618 750 q 790 716 758 750 q 822 612 822 682 q 782 467 822 529 q 666 374 741 404 q 488 343 591 343 l 479 343 q 465 208 465 276 q 497 84 465 124 q 593 45 529 45 q 718 82 653 45 l 718 24 q 653 -5 684 4 q 582 -14 623 -14 q 483 19 522 -14 q 432 111 444 52 l 410 0 l 358 0 l 374 106 q 216 -14 314 -14 m 229 43 q 337 111 289 43 q 416 313 386 180 q 447 575 447 446 q 429 660 447 630 q 378 689 411 689 q 267 620 318 689 q 182 418 216 551 q 147 168 147 286 q 165 75 147 106 q 229 43 183 43 m 688 690 q 579 617 631 690 q 489 399 528 543 q 690 453 621 399 q 758 614 758 507 q 743 670 758 650 q 688 690 728 690 z "},"ç":{"ha":399,"x_min":48,"x_max":484,"o":"m 243 -14 q 122 41 164 -14 q 81 197 81 95 q 123 478 81 345 q 234 681 166 611 q 386 750 302 750 q 484 728 444 750 l 457 669 q 380 689 421 689 q 266 623 318 689 q 181 435 214 557 q 147 196 147 313 q 256 45 147 45 q 353 72 298 45 l 353 14 q 243 -14 302 -14 m 290 -180 q 244 -291 290 -248 q 122 -334 197 -334 q 81 -331 106 -334 q 48 -326 57 -329 l 48 -273 q 118 -281 66 -281 q 201 -256 171 -281 q 231 -189 231 -231 q 207 -139 231 -159 q 127 -109 183 -119 l 197 0 l 252 0 l 199 -78 q 267 -118 243 -90 q 290 -180 290 -145 z "},"è":{"ha":490,"x_min":81,"x_max":504,"o":"m 253 -14 q 126 43 172 -14 q 81 201 81 100 q 122 474 81 347 q 233 675 163 601 q 380 750 303 750 q 472 716 439 750 q 504 612 504 682 q 464 467 504 529 q 348 374 423 404 q 170 343 273 343 l 161 343 q 147 208 147 276 q 272 45 147 45 q 332 54 304 45 q 396 83 360 62 l 396 18 q 253 -14 339 -14 m 370 690 q 255 610 309 690 q 170 399 201 530 q 440 614 440 399 q 425 670 440 650 q 370 690 410 690 m 388 842 q 319 944 355 880 q 271 1053 283 1008 l 271 1064 l 357 1064 q 414 854 375 958 l 414 842 l 388 842 z "},"é":{"ha":490,"x_min":81,"x_max":570,"o":"m 253 -14 q 126 43 172 -14 q 81 201 81 100 q 122 474 81 347 q 233 675 163 601 q 380 750 303 750 q 472 716 439 750 q 504 612 504 682 q 464 467 504 529 q 348 374 423 404 q 170 343 273 343 l 161 343 q 147 208 147 276 q 272 45 147 45 q 332 54 304 45 q 396 83 360 62 l 396 18 q 253 -14 339 -14 m 370 690 q 255 610 309 690 q 170 399 201 530 q 440 614 440 399 q 425 670 440 650 q 370 690 410 690 m 324 842 l 324 852 q 475 1064 429 979 l 570 1064 l 570 1053 q 477 947 541 1010 q 359 842 414 884 l 324 842 z "},"ê":{"ha":490,"x_min":81,"x_max":540,"o":"m 253 -14 q 126 43 172 -14 q 81 201 81 100 q 122 474 81 347 q 233 675 163 601 q 380 750 303 750 q 472 716 439 750 q 504 612 504 682 q 464 467 504 529 q 348 374 423 404 q 170 343 273 343 l 161 343 q 147 208 147 276 q 272 45 147 45 q 332 54 304 45 q 396 83 360 62 l 396 18 q 253 -14 339 -14 m 370 690 q 255 610 309 690 q 170 399 201 530 q 440 614 440 399 q 425 670 440 650 q 370 690 410 690 m 505 842 q 420 979 465 901 q 272 842 331 890 l 241 842 l 244 854 q 406 1064 353 978 l 465 1064 q 497 962 472 1029 q 540 854 522 895 l 537 842 l 505 842 z "},"ë":{"ha":490,"x_min":81,"x_max":552,"o":"m 253 -14 q 126 43 172 -14 q 81 201 81 100 q 122 474 81 347 q 233 675 163 601 q 380 750 303 750 q 472 716 439 750 q 504 612 504 682 q 464 467 504 529 q 348 374 423 404 q 170 343 273 343 l 161 343 q 147 208 147 276 q 272 45 147 45 q 332 54 304 45 q 396 83 360 62 l 396 18 q 253 -14 339 -14 m 370 690 q 255 610 309 690 q 170 399 201 530 q 440 614 440 399 q 425 670 440 650 q 370 690 410 690 m 280 924 q 295 979 280 957 q 336 1000 311 1000 q 368 961 368 1000 q 353 903 368 925 q 313 880 338 880 q 280 924 280 880 m 465 924 q 480 979 465 957 q 520 1000 496 1000 q 552 961 552 1000 q 537 903 552 925 q 498 880 523 880 q 465 924 465 880 z "},"ì":{"ha":236,"x_min":46,"x_max":299,"o":"m 110 0 l 46 0 l 203 736 l 267 736 l 110 0 m 273 842 q 204 944 240 880 q 156 1053 168 1008 l 156 1064 l 242 1064 q 299 854 260 958 l 299 842 l 273 842 z "},"í":{"ha":236,"x_min":46,"x_max":448,"o":"m 110 0 l 46 0 l 203 736 l 267 736 l 110 0 m 202 842 l 202 852 q 353 1064 307 979 l 448 1064 l 448 1053 q 355 947 419 1010 q 237 842 292 884 l 202 842 z "},"î":{"ha":236,"x_min":46,"x_max":384,"o":"m 110 0 l 46 0 l 203 736 l 267 736 l 110 0 m 349 842 q 264 979 309 901 q 116 842 175 890 l 85 842 l 88 854 q 250 1064 197 978 l 309 1064 q 341 962 316 1029 q 384 854 366 895 l 381 842 l 349 842 z "},"ï":{"ha":236,"x_min":46,"x_max":395,"o":"m 110 0 l 46 0 l 203 736 l 267 736 l 110 0 m 123 924 q 139 979 123 957 q 179 1000 154 1000 q 211 961 211 1000 q 196 903 211 925 q 157 880 182 880 q 123 924 123 880 m 308 924 q 323 979 308 957 q 363 1000 339 1000 q 395 961 395 1000 q 381 903 395 925 q 341 880 366 880 q 308 924 308 880 z "},"ð":{"ha":522,"x_min":54,"x_max":557,"o":"m 513 599 q 475 286 513 429 q 370 65 437 143 q 212 -14 302 -14 q 96 39 138 -14 q 54 192 54 92 q 94 413 54 298 q 195 588 134 528 q 330 647 257 647 q 396 631 371 647 q 436 586 422 614 q 460 485 451 557 q 436 742 460 647 q 355 901 412 837 l 201 810 l 179 850 l 325 935 q 220 1026 294 972 l 256 1067 q 386 962 321 1025 l 536 1050 l 557 1014 l 414 929 q 490 774 467 853 q 513 599 513 695 m 215 45 q 319 93 273 45 q 396 237 366 141 q 427 432 427 333 q 402 546 427 507 q 332 586 378 586 q 227 537 273 586 q 150 389 180 488 q 121 197 121 291 q 144 82 121 119 q 215 45 168 45 z "},"ñ":{"ha":530,"x_min":49,"x_max":593,"o":"m 340 0 l 457 553 q 464 610 464 580 q 396 686 464 686 q 277 618 325 686 q 199 404 229 549 l 113 0 l 49 0 l 204 736 l 258 736 l 241 633 l 244 633 q 408 750 307 750 q 496 717 465 750 q 528 623 528 684 q 518 541 528 585 l 404 0 l 340 0 m 486 848 q 443 862 463 848 q 404 893 422 876 q 368 923 385 909 q 334 937 351 937 q 291 913 307 937 q 264 847 276 890 l 217 847 q 268 966 238 928 q 339 1003 298 1003 q 383 989 363 1003 q 420 959 403 975 q 454 928 437 942 q 486 914 470 914 q 518 929 507 914 q 546 1006 530 945 l 593 1006 q 549 882 574 915 q 486 848 524 848 z "},"ò":{"ha":529,"x_min":81,"x_max":532,"o":"m 231 -14 q 119 41 158 -14 q 81 195 81 95 q 105 401 81 291 q 169 589 130 512 q 261 708 208 666 q 379 750 314 750 q 491 694 451 750 q 532 536 532 638 q 507 334 532 442 q 442 148 482 226 q 349 28 402 71 q 231 -14 295 -14 m 147 182 q 239 45 147 45 q 350 114 299 45 q 433 308 401 182 q 465 550 465 433 q 371 689 465 689 q 264 623 314 689 q 181 429 214 556 q 147 182 147 301 m 401 842 q 333 944 369 880 q 285 1053 296 1008 l 285 1064 l 371 1064 q 428 854 389 958 l 428 842 l 401 842 z "},"ó":{"ha":529,"x_min":81,"x_max":577,"o":"m 231 -14 q 119 41 158 -14 q 81 195 81 95 q 105 401 81 291 q 169 589 130 512 q 261 708 208 666 q 379 750 314 750 q 491 694 451 750 q 532 536 532 638 q 507 334 532 442 q 442 148 482 226 q 349 28 402 71 q 231 -14 295 -14 m 147 182 q 239 45 147 45 q 350 114 299 45 q 433 308 401 182 q 465 550 465 433 q 371 689 465 689 q 264 623 314 689 q 181 429 214 556 q 147 182 147 301 m 332 842 l 332 852 q 483 1064 436 979 l 577 1064 l 577 1053 q 485 947 549 1010 q 366 842 421 884 l 332 842 z "},"ô":{"ha":529,"x_min":81,"x_max":540,"o":"m 231 -14 q 119 41 158 -14 q 81 195 81 95 q 105 401 81 291 q 169 589 130 512 q 261 708 208 666 q 379 750 314 750 q 491 694 451 750 q 532 536 532 638 q 507 334 532 442 q 442 148 482 226 q 349 28 402 71 q 231 -14 295 -14 m 147 182 q 239 45 147 45 q 350 114 299 45 q 433 308 401 182 q 465 550 465 433 q 371 689 465 689 q 264 623 314 689 q 181 429 214 556 q 147 182 147 301 m 505 842 q 420 979 465 901 q 272 842 331 890 l 241 842 l 244 854 q 406 1064 353 978 l 465 1064 q 497 962 472 1029 q 540 854 522 895 l 537 842 l 505 842 z "},"õ":{"ha":529,"x_min":81,"x_max":584,"o":"m 231 -14 q 119 41 158 -14 q 81 195 81 95 q 105 401 81 291 q 169 589 130 512 q 261 708 208 666 q 379 750 314 750 q 491 694 451 750 q 532 536 532 638 q 507 334 532 442 q 442 148 482 226 q 349 28 402 71 q 231 -14 295 -14 m 147 182 q 239 45 147 45 q 350 114 299 45 q 433 308 401 182 q 465 550 465 433 q 371 689 465 689 q 264 623 314 689 q 181 429 214 556 q 147 182 147 301 m 477 848 q 433 862 453 848 q 394 893 413 876 q 358 923 376 909 q 324 937 341 937 q 282 913 297 937 q 255 847 267 890 l 208 847 q 259 966 229 928 q 330 1003 289 1003 q 374 989 354 1003 q 411 959 393 975 q 444 928 428 942 q 477 914 460 914 q 509 929 497 914 q 536 1006 521 945 l 584 1006 q 539 882 564 915 q 477 848 515 848 z "},"ö":{"ha":529,"x_min":81,"x_max":549,"o":"m 231 -14 q 119 41 158 -14 q 81 195 81 95 q 105 401 81 291 q 169 589 130 512 q 261 708 208 666 q 379 750 314 750 q 491 694 451 750 q 532 536 532 638 q 507 334 532 442 q 442 148 482 226 q 349 28 402 71 q 231 -14 295 -14 m 147 182 q 239 45 147 45 q 350 114 299 45 q 433 308 401 182 q 465 550 465 433 q 371 689 465 689 q 264 623 314 689 q 181 429 214 556 q 147 182 147 301 m 277 924 q 293 979 277 957 q 333 1000 308 1000 q 365 961 365 1000 q 350 903 365 925 q 311 880 336 880 q 277 924 277 880 m 462 924 q 477 979 462 957 q 517 1000 493 1000 q 549 961 549 1000 q 535 903 549 925 q 495 880 520 880 q 462 924 462 880 z "},"÷":{"ha":500,"x_min":89,"x_max":518,"o":"m 518 515 l 518 465 l 89 465 l 89 515 l 518 515 m 256 277 q 302 342 256 342 q 336 327 322 342 q 350 277 350 312 q 336 227 350 242 q 302 211 322 211 q 269 227 282 211 q 256 277 256 242 m 256 703 q 302 768 256 768 q 336 753 322 768 q 350 703 350 739 q 336 653 350 668 q 302 637 322 637 q 256 703 256 637 z "},"ø":{"ha":529,"x_min":7,"x_max":612,"o":"m 231 -14 q 125 33 163 -14 l 50 -79 l 7 -50 l 96 85 q 81 195 81 128 q 105 401 81 291 q 169 589 130 512 q 261 708 208 666 q 379 750 314 750 q 496 688 456 750 l 567 794 l 612 765 l 521 628 q 532 536 532 589 q 507 334 532 442 q 442 148 482 226 q 349 28 402 71 q 231 -14 295 -14 m 454 625 q 371 689 433 689 q 262 620 313 689 q 179 420 212 550 q 146 163 146 290 l 454 625 m 239 45 q 349 111 298 45 q 432 298 399 177 q 467 545 465 418 l 163 90 q 239 45 185 45 z "},"ù":{"ha":533,"x_min":83,"x_max":561,"o":"m 268 736 l 158 224 q 146 132 146 171 q 210 49 146 49 q 411 332 351 49 l 497 736 l 561 736 l 404 0 l 354 0 l 359 92 l 357 92 q 195 -14 288 -14 q 83 121 83 -14 q 97 233 83 174 l 204 736 l 268 736 m 412 842 q 343 944 379 880 q 295 1053 307 1008 l 295 1064 l 381 1064 q 438 854 399 958 l 438 842 l 412 842 z "},"ú":{"ha":533,"x_min":83,"x_max":576,"o":"m 268 736 l 158 224 q 146 132 146 171 q 210 49 146 49 q 411 332 351 49 l 497 736 l 561 736 l 404 0 l 354 0 l 359 92 l 357 92 q 195 -14 288 -14 q 83 121 83 -14 q 97 233 83 174 l 204 736 l 268 736 m 330 842 l 330 852 q 481 1064 435 979 l 576 1064 l 576 1053 q 484 947 547 1010 q 365 842 420 884 l 330 842 z "},"û":{"ha":533,"x_min":83,"x_max":561,"o":"m 268 736 l 158 224 q 146 132 146 171 q 210 49 146 49 q 411 332 351 49 l 497 736 l 561 736 l 404 0 l 354 0 l 359 92 l 357 92 q 195 -14 288 -14 q 83 121 83 -14 q 97 233 83 174 l 204 736 l 268 736 m 509 842 q 425 979 469 901 q 276 842 335 890 l 245 842 l 248 854 q 410 1064 357 978 l 469 1064 q 501 962 476 1029 q 544 854 526 895 l 541 842 l 509 842 z "},"ü":{"ha":533,"x_min":83,"x_max":561,"o":"m 268 736 l 158 224 q 146 132 146 171 q 210 49 146 49 q 411 332 351 49 l 497 736 l 561 736 l 404 0 l 354 0 l 359 92 l 357 92 q 195 -14 288 -14 q 83 121 83 -14 q 97 233 83 174 l 204 736 l 268 736 m 271 924 q 286 979 271 957 q 326 1000 301 1000 q 358 961 358 1000 q 343 903 358 925 q 304 880 329 880 q 271 924 271 880 m 455 924 q 471 979 455 957 q 511 1000 486 1000 q 543 961 543 1000 q 528 903 543 925 q 488 880 513 880 q 455 924 455 880 z "},"ý":{"ha":399,"x_min":-107,"x_max":519,"o":"m -46 -334 q -107 -321 -77 -334 l -107 -262 q -47 -273 -82 -273 q 15 -244 -11 -273 q 79 -126 41 -214 l 127 -11 l 122 736 l 186 736 l 186 302 q 178 83 186 193 l 182 83 q 248 262 218 190 l 443 736 l 510 736 l 129 -165 q 50 -296 90 -259 q -46 -334 11 -334 m 273 842 l 273 852 q 425 1064 378 979 l 519 1064 l 519 1053 q 427 947 490 1010 q 308 842 363 884 l 273 842 z "},"þ":{"ha":545,"x_min":-18,"x_max":553,"o":"m 416 750 q 553 558 553 750 q 510 277 553 416 q 400 62 467 138 q 253 -14 333 -14 q 175 14 207 -14 q 135 89 143 42 l 131 89 l 46 -319 l -18 -319 l 273 1055 l 338 1055 l 244 631 l 248 631 q 416 750 325 750 m 404 693 q 287 622 340 693 q 199 423 233 551 q 164 171 164 294 q 256 45 164 45 q 367 115 315 45 q 452 318 418 185 q 486 568 486 451 q 468 662 486 630 q 404 693 450 693 z "},"ÿ":{"ha":399,"x_min":-107,"x_max":510,"o":"m -46 -334 q -107 -321 -77 -334 l -107 -262 q -47 -273 -82 -273 q 15 -244 -11 -273 q 79 -126 41 -214 l 127 -11 l 122 736 l 186 736 l 186 302 q 178 83 186 193 l 182 83 q 248 262 218 190 l 443 736 l 510 736 l 129 -165 q 50 -296 90 -259 q -46 -334 11 -334 m 205 924 q 220 979 205 957 q 260 1000 235 1000 q 292 961 292 1000 q 278 903 292 925 q 238 880 263 880 q 205 924 205 880 m 389 924 q 405 979 389 957 q 445 1000 420 1000 q 477 961 477 1000 q 462 903 477 925 q 422 880 448 880 q 389 924 389 880 z "},"Ā":{"ha":496,"x_min":-53,"x_max":595,"o":"m 376 0 l 376 359 l 168 359 l 18 0 l -53 0 l 358 996 l 441 996 l 441 0 l 376 0 m 376 427 l 376 677 l 380 918 q 345 815 370 883 q 192 427 320 747 l 376 427 m 256 1133 l 595 1133 l 585 1078 l 245 1078 l 256 1133 z "},"ā":{"ha":554,"x_min":81,"x_max":594,"o":"m 216 -14 q 81 178 81 -14 q 123 458 81 319 q 233 674 165 597 q 380 750 300 750 q 498 648 471 750 l 503 648 l 529 736 l 583 736 l 428 0 l 376 0 l 389 106 l 386 106 q 216 -14 309 -14 m 229 43 q 343 113 290 43 q 433 319 396 184 q 469 575 469 455 q 445 660 469 631 q 378 689 421 689 q 267 620 318 689 q 182 418 216 551 q 147 168 147 286 q 165 75 147 106 q 229 43 183 43 m 255 904 l 594 904 l 583 848 l 244 848 l 255 904 z "},"Ă":{"ha":496,"x_min":-53,"x_max":565,"o":"m 376 0 l 376 359 l 168 359 l 18 0 l -53 0 l 358 996 l 441 996 l 441 0 l 376 0 m 376 427 l 376 677 l 380 918 q 345 815 370 883 q 192 427 320 747 l 376 427 m 565 1232 q 514 1113 550 1156 q 413 1071 479 1071 q 327 1103 358 1071 q 296 1193 296 1135 q 300 1232 296 1219 l 345 1232 l 344 1222 l 344 1211 q 365 1151 344 1169 q 418 1132 386 1132 q 477 1155 454 1132 q 517 1232 500 1179 l 565 1232 z "},"ă":{"ha":554,"x_min":81,"x_max":583,"o":"m 216 -14 q 81 178 81 -14 q 123 458 81 319 q 233 674 165 597 q 380 750 300 750 q 498 648 471 750 l 503 648 l 529 736 l 583 736 l 428 0 l 376 0 l 389 106 l 386 106 q 216 -14 309 -14 m 229 43 q 343 113 290 43 q 433 319 396 184 q 469 575 469 455 q 445 660 469 631 q 378 689 421 689 q 267 620 318 689 q 182 418 216 551 q 147 168 147 286 q 165 75 147 106 q 229 43 183 43 m 562 1003 q 512 884 547 926 q 410 842 476 842 q 325 873 355 842 q 294 964 294 905 q 297 1003 294 989 l 342 1003 l 341 993 l 341 982 q 362 921 341 940 q 415 903 383 903 q 475 926 452 903 q 515 1003 498 949 l 562 1003 z "},"Ą":{"ha":496,"x_min":-53,"x_max":441,"o":"m 376 0 l 376 359 l 168 359 l 18 0 l -53 0 l 358 996 l 441 996 l 441 0 l 376 0 m 376 427 l 376 677 l 380 918 q 345 815 370 883 q 192 427 320 747 l 376 427 m 315 -196 q 363 -250 315 -250 q 410 -243 385 -250 l 399 -292 q 336 -302 374 -302 q 271 -276 293 -302 q 248 -207 248 -249 q 278 -105 248 -155 q 382 0 307 -56 l 432 0 q 315 -196 315 -102 z "},"ą":{"ha":554,"x_min":81,"x_max":583,"o":"m 216 -14 q 81 178 81 -14 q 123 458 81 319 q 233 674 165 597 q 380 750 300 750 q 498 648 471 750 l 503 648 l 529 736 l 583 736 l 428 0 l 376 0 l 389 106 l 386 106 q 216 -14 309 -14 m 229 43 q 343 113 290 43 q 433 319 396 184 q 469 575 469 455 q 445 660 469 631 q 378 689 421 689 q 267 620 318 689 q 182 418 216 551 q 147 168 147 286 q 165 75 147 106 q 229 43 183 43 m 307 -196 q 355 -250 307 -250 q 401 -243 376 -250 l 391 -292 q 328 -302 366 -302 q 262 -276 285 -302 q 240 -207 240 -249 q 270 -105 240 -155 q 374 0 299 -56 l 424 0 q 307 -196 307 -102 z "},"Ć":{"ha":493,"x_min":92,"x_max":643,"o":"m 501 942 q 335 854 413 942 q 207 613 256 767 q 158 317 158 460 q 193 114 158 178 q 310 49 228 49 q 427 75 361 49 l 427 11 q 300 -14 363 -14 q 144 65 196 -14 q 92 304 92 143 q 150 647 92 478 q 303 911 208 815 q 509 1007 398 1007 q 642 965 591 1007 l 600 907 q 501 942 559 942 m 397 1071 l 397 1082 q 549 1293 502 1208 l 643 1293 l 643 1282 q 551 1176 614 1239 q 432 1071 487 1113 l 397 1071 z "},"ć":{"ha":399,"x_min":81,"x_max":545,"o":"m 243 -14 q 122 41 164 -14 q 81 197 81 95 q 123 478 81 345 q 234 681 166 611 q 386 750 302 750 q 484 728 444 750 l 457 669 q 380 689 421 689 q 266 623 318 689 q 181 435 214 557 q 147 196 147 313 q 256 45 147 45 q 353 72 298 45 l 353 14 q 243 -14 302 -14 m 300 842 l 300 852 q 451 1064 404 979 l 545 1064 l 545 1053 q 453 947 517 1010 q 334 842 389 884 l 300 842 z "},"Ĉ":{"ha":493,"x_min":92,"x_max":642,"o":"m 501 942 q 335 854 413 942 q 207 613 256 767 q 158 317 158 460 q 193 114 158 178 q 310 49 228 49 q 427 75 361 49 l 427 11 q 300 -14 363 -14 q 144 65 196 -14 q 92 304 92 143 q 150 647 92 478 q 303 911 208 815 q 509 1007 398 1007 q 642 965 591 1007 l 600 907 q 501 942 559 942 m 606 1071 q 521 1208 566 1131 q 372 1071 431 1119 l 342 1071 l 345 1084 q 507 1293 453 1207 l 565 1293 q 597 1191 572 1259 q 640 1084 622 1124 l 637 1071 l 606 1071 z "},"ĉ":{"ha":399,"x_min":81,"x_max":515,"o":"m 243 -14 q 122 41 164 -14 q 81 197 81 95 q 123 478 81 345 q 234 681 166 611 q 386 750 302 750 q 484 728 444 750 l 457 669 q 380 689 421 689 q 266 623 318 689 q 181 435 214 557 q 147 196 147 313 q 256 45 147 45 q 353 72 298 45 l 353 14 q 243 -14 302 -14 m 480 842 q 395 979 440 901 q 247 842 306 890 l 216 842 l 219 854 q 381 1064 328 978 l 439 1064 q 472 962 447 1029 q 515 854 496 895 l 512 842 l 480 842 z "},"Ċ":{"ha":493,"x_min":92,"x_max":642,"o":"m 501 942 q 335 854 413 942 q 207 613 256 767 q 158 317 158 460 q 193 114 158 178 q 310 49 228 49 q 427 75 361 49 l 427 11 q 300 -14 363 -14 q 144 65 196 -14 q 92 304 92 143 q 150 647 92 478 q 303 911 208 815 q 509 1007 398 1007 q 642 965 591 1007 l 600 907 q 501 942 559 942 m 493 1156 q 509 1215 493 1190 q 549 1240 524 1240 q 581 1201 581 1240 q 566 1137 581 1162 q 526 1112 551 1112 q 493 1156 493 1112 z "},"ċ":{"ha":399,"x_min":81,"x_max":484,"o":"m 243 -14 q 122 41 164 -14 q 81 197 81 95 q 123 478 81 345 q 234 681 166 611 q 386 750 302 750 q 484 728 444 750 l 457 669 q 380 689 421 689 q 266 623 318 689 q 181 435 214 557 q 147 196 147 313 q 256 45 147 45 q 353 72 298 45 l 353 14 q 243 -14 302 -14 m 365 920 q 380 979 365 954 q 420 1004 396 1004 q 452 965 452 1004 q 437 901 452 926 q 398 876 422 876 q 365 920 365 876 z "},"Č":{"ha":493,"x_min":92,"x_max":714,"o":"m 501 942 q 335 854 413 942 q 207 613 256 767 q 158 317 158 460 q 193 114 158 178 q 310 49 228 49 q 427 75 361 49 l 427 11 q 300 -14 363 -14 q 144 65 196 -14 q 92 304 92 143 q 150 647 92 478 q 303 911 208 815 q 509 1007 398 1007 q 642 965 591 1007 l 600 907 q 501 942 559 942 m 450 1293 q 534 1156 471 1261 q 684 1293 626 1247 l 714 1293 l 711 1280 q 623 1175 674 1240 q 549 1071 572 1109 l 490 1071 q 459 1171 482 1106 q 415 1280 435 1236 l 418 1293 l 450 1293 z "},"č":{"ha":399,"x_min":81,"x_max":581,"o":"m 243 -14 q 122 41 164 -14 q 81 197 81 95 q 123 478 81 345 q 234 681 166 611 q 386 750 302 750 q 484 728 444 750 l 457 669 q 380 689 421 689 q 266 623 318 689 q 181 435 214 557 q 147 196 147 313 q 256 45 147 45 q 353 72 298 45 l 353 14 q 243 -14 302 -14 m 317 1064 q 401 926 338 1031 q 551 1064 493 1018 l 581 1064 l 578 1051 q 490 945 541 1010 q 416 842 439 880 l 357 842 q 326 942 349 877 q 282 1051 302 1007 l 285 1064 l 317 1064 z "},"Ď":{"ha":607,"x_min":45,"x_max":629,"o":"m 619 710 q 563 341 619 507 q 407 87 507 175 q 174 0 307 0 l 45 0 l 254 991 l 401 991 q 563 920 506 991 q 619 710 619 849 m 187 64 q 371 142 290 64 q 500 376 452 221 q 549 710 549 532 q 392 926 549 926 l 309 926 l 125 64 l 187 64 m 365 1293 q 450 1156 387 1261 q 599 1293 541 1247 l 629 1293 l 627 1280 q 538 1175 589 1240 q 464 1071 488 1109 l 406 1071 q 374 1171 397 1106 q 330 1280 351 1236 l 333 1293 l 365 1293 z "},"ď":{"ha":554,"x_min":81,"x_max":844,"o":"m 216 -14 q 81 178 81 -14 q 123 458 81 319 q 233 674 165 597 q 380 750 300 750 q 459 722 427 750 q 498 647 490 693 l 503 647 l 587 1055 l 652 1055 l 428 0 l 376 0 l 389 106 l 386 106 q 216 -14 309 -14 m 229 43 q 343 112 290 43 q 433 316 396 182 q 469 572 469 450 q 448 660 469 630 q 378 689 426 689 q 267 620 318 689 q 182 418 216 551 q 147 168 147 286 q 165 75 147 106 q 229 43 183 43 m 694 844 q 772 1055 750 983 l 844 1055 l 844 1042 q 789 933 829 1001 q 722 833 749 866 l 694 833 l 694 844 z "},"Đ":{"ha":607,"x_min":45,"x_max":619,"o":"m 619 710 q 563 341 619 507 q 407 87 507 175 q 174 0 307 0 l 45 0 l 146 485 l 86 485 l 98 547 l 158 547 l 254 991 l 401 991 q 563 920 506 991 q 619 710 619 849 m 187 64 q 371 142 290 64 q 500 376 452 221 q 549 710 549 532 q 392 926 549 926 l 309 926 l 227 547 l 355 547 l 343 485 l 212 485 l 125 64 l 187 64 z "},"đ":{"ha":554,"x_min":81,"x_max":705,"o":"m 216 -14 q 81 178 81 -14 q 123 458 81 319 q 233 674 165 597 q 380 750 300 750 q 459 722 427 750 q 498 647 490 693 l 503 647 l 547 867 l 403 867 l 415 924 l 559 924 l 587 1055 l 652 1055 l 623 924 l 705 924 l 693 867 l 611 867 l 428 0 l 376 0 l 389 106 l 386 106 q 216 -14 309 -14 m 229 43 q 343 112 290 43 q 433 316 396 182 q 469 572 469 450 q 448 660 469 630 q 378 689 426 689 q 267 620 318 689 q 182 418 216 551 q 147 168 147 286 q 165 75 147 106 q 229 43 183 43 z "},"Ē":{"ha":481,"x_min":45,"x_max":611,"o":"m 368 0 l 45 0 l 254 991 l 578 991 l 564 926 l 309 926 l 229 551 l 469 551 l 456 488 l 215 488 l 125 64 l 380 64 l 368 0 m 272 1133 l 611 1133 l 600 1078 l 261 1078 l 272 1133 z "},"ē":{"ha":490,"x_min":81,"x_max":581,"o":"m 253 -14 q 126 43 172 -14 q 81 201 81 100 q 122 474 81 347 q 233 675 163 601 q 380 750 303 750 q 472 716 439 750 q 504 612 504 682 q 464 467 504 529 q 348 374 423 404 q 170 343 273 343 l 161 343 q 147 208 147 276 q 272 45 147 45 q 332 54 304 45 q 396 83 360 62 l 396 18 q 253 -14 339 -14 m 370 690 q 255 610 309 690 q 170 399 201 530 q 440 614 440 399 q 425 670 440 650 q 370 690 410 690 m 242 904 l 581 904 l 570 848 l 231 848 l 242 904 z "},"Ĕ":{"ha":481,"x_min":45,"x_max":584,"o":"m 368 0 l 45 0 l 254 991 l 578 991 l 564 926 l 309 926 l 229 551 l 469 551 l 456 488 l 215 488 l 125 64 l 380 64 l 368 0 m 584 1232 q 533 1113 569 1156 q 432 1071 498 1071 q 346 1103 377 1071 q 315 1193 315 1135 q 319 1232 315 1219 l 364 1232 l 363 1222 l 363 1211 q 384 1151 363 1169 q 437 1132 405 1132 q 496 1155 473 1132 q 536 1232 519 1179 l 584 1232 z "},"ĕ":{"ha":490,"x_min":81,"x_max":569,"o":"m 253 -14 q 126 43 172 -14 q 81 201 81 100 q 122 474 81 347 q 233 675 163 601 q 380 750 303 750 q 472 716 439 750 q 504 612 504 682 q 464 467 504 529 q 348 374 423 404 q 170 343 273 343 l 161 343 q 147 208 147 276 q 272 45 147 45 q 332 54 304 45 q 396 83 360 62 l 396 18 q 253 -14 339 -14 m 370 690 q 255 610 309 690 q 170 399 201 530 q 440 614 440 399 q 425 670 440 650 q 370 690 410 690 m 569 1003 q 518 884 554 926 q 417 842 483 842 q 331 873 362 842 q 300 964 300 905 q 304 1003 300 989 l 349 1003 l 348 993 l 348 982 q 369 921 348 940 q 422 903 390 903 q 481 926 458 903 q 522 1003 505 949 l 569 1003 z "},"Ė":{"ha":481,"x_min":45,"x_max":578,"o":"m 368 0 l 45 0 l 254 991 l 578 991 l 564 926 l 309 926 l 229 551 l 469 551 l 456 488 l 215 488 l 125 64 l 380 64 l 368 0 m 410 1129 q 425 1189 410 1164 q 465 1214 441 1214 q 497 1175 497 1214 q 482 1111 497 1136 q 443 1086 467 1086 q 410 1129 410 1086 z "},"ė":{"ha":490,"x_min":81,"x_max":504,"o":"m 253 -14 q 126 43 172 -14 q 81 201 81 100 q 122 474 81 347 q 233 675 163 601 q 380 750 303 750 q 472 716 439 750 q 504 612 504 682 q 464 467 504 529 q 348 374 423 404 q 170 343 273 343 l 161 343 q 147 208 147 276 q 272 45 147 45 q 332 54 304 45 q 396 83 360 62 l 396 18 q 253 -14 339 -14 m 370 690 q 255 610 309 690 q 170 399 201 530 q 440 614 440 399 q 425 670 440 650 q 370 690 410 690 m 391 920 q 407 979 391 954 q 447 1004 422 1004 q 479 965 479 1004 q 464 901 479 926 q 425 876 449 876 q 391 920 391 876 z "},"Ę":{"ha":481,"x_min":45,"x_max":578,"o":"m 368 0 l 45 0 l 254 991 l 578 991 l 564 926 l 309 926 l 229 551 l 469 551 l 456 488 l 215 488 l 125 64 l 380 64 l 368 0 m 203 -196 q 251 -250 203 -250 q 297 -243 272 -250 l 286 -292 q 223 -302 261 -302 q 158 -276 180 -302 q 136 -207 136 -249 q 165 -105 136 -155 q 269 0 195 -56 l 319 0 q 203 -196 203 -102 z "},"ę":{"ha":490,"x_min":81,"x_max":504,"o":"m 253 -14 q 126 43 172 -14 q 81 201 81 100 q 122 474 81 347 q 233 675 163 601 q 380 750 303 750 q 472 716 439 750 q 504 612 504 682 q 464 467 504 529 q 348 374 423 404 q 170 343 273 343 l 161 343 q 147 208 147 276 q 272 45 147 45 q 332 54 304 45 q 396 83 360 62 l 396 18 q 253 -14 339 -14 m 370 690 q 255 610 309 690 q 170 399 201 530 q 440 614 440 399 q 425 670 440 650 q 370 690 410 690 m 279 -172 q 328 -227 279 -227 q 374 -219 349 -227 l 363 -268 q 300 -279 338 -279 q 235 -252 257 -279 q 212 -183 212 -225 q 242 -82 212 -131 q 346 24 271 -33 l 396 24 q 279 -172 279 -79 z "},"Ě":{"ha":481,"x_min":45,"x_max":618,"o":"m 368 0 l 45 0 l 254 991 l 578 991 l 564 926 l 309 926 l 229 551 l 469 551 l 456 488 l 215 488 l 125 64 l 380 64 l 368 0 m 353 1293 q 438 1156 375 1261 q 587 1293 530 1247 l 618 1293 l 615 1280 q 527 1175 578 1240 q 452 1071 476 1109 l 394 1071 q 362 1171 386 1106 q 319 1280 339 1236 l 321 1293 l 353 1293 z "},"ě":{"ha":490,"x_min":81,"x_max":590,"o":"m 253 -14 q 126 43 172 -14 q 81 201 81 100 q 122 474 81 347 q 233 675 163 601 q 380 750 303 750 q 472 716 439 750 q 504 612 504 682 q 464 467 504 529 q 348 374 423 404 q 170 343 273 343 l 161 343 q 147 208 147 276 q 272 45 147 45 q 332 54 304 45 q 396 83 360 62 l 396 18 q 253 -14 339 -14 m 370 690 q 255 610 309 690 q 170 399 201 530 q 440 614 440 399 q 425 670 440 650 q 370 690 410 690 m 326 1064 q 410 926 347 1031 q 559 1064 502 1018 l 590 1064 l 587 1051 q 499 945 550 1010 q 425 842 448 880 l 366 842 q 335 942 358 877 q 291 1051 311 1007 l 294 1064 l 326 1064 z "},"Ĝ":{"ha":656,"x_min":92,"x_max":722,"o":"m 437 503 l 637 503 l 534 22 q 339 -14 441 -14 q 92 297 92 -14 q 126 561 92 422 q 220 803 161 700 q 355 957 279 906 q 518 1007 431 1007 q 722 943 633 1007 l 679 884 q 594 930 633 918 q 514 942 556 942 q 375 893 439 942 q 263 752 312 844 q 186 534 215 659 q 158 293 158 409 q 204 106 158 163 q 346 49 251 49 q 476 68 414 49 l 555 439 l 424 439 l 437 503 m 640 1071 q 555 1208 600 1131 q 407 1071 466 1119 l 376 1071 l 379 1084 q 541 1293 488 1207 l 600 1293 q 632 1191 607 1259 q 675 1084 656 1124 l 672 1071 l 640 1071 z "},"ĝ":{"ha":453,"x_min":-50,"x_max":557,"o":"m 557 736 l 547 690 l 454 679 q 475 582 475 640 q 445 430 475 508 q 365 307 414 351 q 254 262 315 262 l 237 262 l 222 264 q 138 157 138 205 q 143 131 138 141 q 160 115 149 121 q 240 87 172 109 q 360 21 326 61 q 395 -87 395 -20 q 323 -265 395 -197 q 138 -334 251 -334 q -1 -288 48 -334 q -50 -160 -50 -243 q -6 -30 -50 -89 q 119 65 38 28 q 77 142 77 94 q 98 210 77 177 q 176 283 120 243 q 118 425 118 332 q 152 588 118 509 q 236 709 185 668 q 350 750 288 750 q 416 736 393 750 l 557 736 m 11 -155 q 44 -251 11 -222 q 143 -281 78 -281 q 280 -231 226 -281 q 335 -100 335 -180 q 308 -24 335 -56 q 224 24 280 7 l 163 40 q 54 -37 98 18 q 11 -155 11 -92 m 180 415 q 200 339 180 365 q 256 313 219 313 q 332 348 298 313 q 389 455 366 384 q 411 593 411 527 q 338 697 411 697 q 261 659 296 697 q 203 548 227 621 q 180 415 180 474 m 484 842 q 399 979 444 901 q 251 842 310 890 l 220 842 l 223 854 q 385 1064 332 978 l 444 1064 q 476 962 451 1029 q 519 854 500 895 l 516 842 l 484 842 z "},"Ğ":{"ha":656,"x_min":92,"x_max":722,"o":"m 437 503 l 637 503 l 534 22 q 339 -14 441 -14 q 92 297 92 -14 q 126 561 92 422 q 220 803 161 700 q 355 957 279 906 q 518 1007 431 1007 q 722 943 633 1007 l 679 884 q 594 930 633 918 q 514 942 556 942 q 375 893 439 942 q 263 752 312 844 q 186 534 215 659 q 158 293 158 409 q 204 106 158 163 q 346 49 251 49 q 476 68 414 49 l 555 439 l 424 439 l 437 503 m 692 1232 q 641 1113 677 1156 q 540 1071 606 1071 q 454 1103 485 1071 q 423 1193 423 1135 q 427 1232 423 1219 l 472 1232 l 471 1222 l 471 1211 q 492 1151 471 1169 q 545 1132 513 1132 q 604 1155 581 1132 q 644 1232 627 1179 l 692 1232 z "},"ğ":{"ha":453,"x_min":-50,"x_max":557,"o":"m 557 736 l 547 690 l 454 679 q 475 582 475 640 q 445 430 475 508 q 365 307 414 351 q 254 262 315 262 l 237 262 l 222 264 q 138 157 138 205 q 143 131 138 141 q 160 115 149 121 q 240 87 172 109 q 360 21 326 61 q 395 -87 395 -20 q 323 -265 395 -197 q 138 -334 251 -334 q -1 -288 48 -334 q -50 -160 -50 -243 q -6 -30 -50 -89 q 119 65 38 28 q 77 142 77 94 q 98 210 77 177 q 176 283 120 243 q 118 425 118 332 q 152 588 118 509 q 236 709 185 668 q 350 750 288 750 q 416 736 393 750 l 557 736 m 11 -155 q 44 -251 11 -222 q 143 -281 78 -281 q 280 -231 226 -281 q 335 -100 335 -180 q 308 -24 335 -56 q 224 24 280 7 l 163 40 q 54 -37 98 18 q 11 -155 11 -92 m 180 415 q 200 339 180 365 q 256 313 219 313 q 332 348 298 313 q 389 455 366 384 q 411 593 411 527 q 338 697 411 697 q 261 659 296 697 q 203 548 227 621 q 180 415 180 474 m 530 1003 q 480 884 515 926 q 378 842 444 842 q 293 873 323 842 q 262 964 262 905 q 265 1003 262 989 l 311 1003 l 309 993 l 309 982 q 330 921 309 940 q 383 903 351 903 q 443 926 420 903 q 483 1003 466 949 l 530 1003 z "},"Ġ":{"ha":656,"x_min":92,"x_max":722,"o":"m 437 503 l 637 503 l 534 22 q 339 -14 441 -14 q 92 297 92 -14 q 126 561 92 422 q 220 803 161 700 q 355 957 279 906 q 518 1007 431 1007 q 722 943 633 1007 l 679 884 q 594 930 633 918 q 514 942 556 942 q 375 893 439 942 q 263 752 312 844 q 186 534 215 659 q 158 293 158 409 q 204 106 158 163 q 346 49 251 49 q 476 68 414 49 l 555 439 l 424 439 l 437 503 m 522 1149 q 538 1208 522 1183 q 578 1234 553 1234 q 610 1194 610 1234 q 595 1131 610 1156 q 555 1105 580 1105 q 522 1149 522 1105 z "},"ġ":{"ha":453,"x_min":-50,"x_max":557,"o":"m 557 736 l 547 690 l 454 679 q 475 582 475 640 q 445 430 475 508 q 365 307 414 351 q 254 262 315 262 l 237 262 l 222 264 q 138 157 138 205 q 143 131 138 141 q 160 115 149 121 q 240 87 172 109 q 360 21 326 61 q 395 -87 395 -20 q 323 -265 395 -197 q 138 -334 251 -334 q -1 -288 48 -334 q -50 -160 -50 -243 q -6 -30 -50 -89 q 119 65 38 28 q 77 142 77 94 q 98 210 77 177 q 176 283 120 243 q 118 425 118 332 q 152 588 118 509 q 236 709 185 668 q 350 750 288 750 q 416 736 393 750 l 557 736 m 11 -155 q 44 -251 11 -222 q 143 -281 78 -281 q 280 -231 226 -281 q 335 -100 335 -180 q 308 -24 335 -56 q 224 24 280 7 l 163 40 q 54 -37 98 18 q 11 -155 11 -92 m 180 415 q 200 339 180 365 q 256 313 219 313 q 332 348 298 313 q 389 455 366 384 q 411 593 411 527 q 338 697 411 697 q 261 659 296 697 q 203 548 227 621 q 180 415 180 474 m 354 920 q 370 979 354 954 q 410 1004 385 1004 q 441 965 441 1004 q 427 901 441 926 q 387 876 412 876 q 354 920 354 876 z "},"Ģ":{"ha":656,"x_min":92,"x_max":722,"o":"m 437 503 l 637 503 l 534 22 q 339 -14 441 -14 q 92 297 92 -14 q 126 561 92 422 q 220 803 161 700 q 355 957 279 906 q 518 1007 431 1007 q 722 943 633 1007 l 679 884 q 594 930 633 918 q 514 942 556 942 q 375 893 439 942 q 263 752 312 844 q 186 534 215 659 q 158 293 158 409 q 204 106 158 163 q 346 49 251 49 q 476 68 414 49 l 555 439 l 424 439 l 437 503 m 197 -286 q 254 -193 221 -254 q 302 -85 287 -132 l 374 -85 l 374 -100 q 319 -200 367 -129 q 226 -307 271 -272 l 197 -307 l 197 -286 z "},"ģ":{"ha":453,"x_min":-50,"x_max":557,"o":"m 557 736 l 547 690 l 454 679 q 475 582 475 640 q 445 430 475 508 q 365 307 414 351 q 254 262 315 262 l 237 262 l 222 264 q 138 157 138 205 q 143 131 138 141 q 160 115 149 121 q 240 87 172 109 q 360 21 326 61 q 395 -87 395 -20 q 323 -265 395 -197 q 138 -334 251 -334 q -1 -288 48 -334 q -50 -160 -50 -243 q -6 -30 -50 -89 q 119 65 38 28 q 77 142 77 94 q 98 210 77 177 q 176 283 120 243 q 118 425 118 332 q 152 588 118 509 q 236 709 185 668 q 350 750 288 750 q 416 736 393 750 l 557 736 m 11 -155 q 44 -251 11 -222 q 143 -281 78 -281 q 280 -231 226 -281 q 335 -100 335 -180 q 308 -24 335 -56 q 224 24 280 7 l 163 40 q 54 -37 98 18 q 11 -155 11 -92 m 180 415 q 200 339 180 365 q 256 313 219 313 q 332 348 298 313 q 389 455 366 384 q 411 593 411 527 q 338 697 411 697 q 261 659 296 697 q 203 548 227 621 q 180 415 180 474 m 522 1051 q 466 957 502 1027 q 414 842 429 886 l 347 842 l 347 856 q 410 966 363 899 q 493 1064 456 1034 l 522 1064 l 522 1051 z "},"Ĥ":{"ha":627,"x_min":45,"x_max":686,"o":"m 476 0 l 410 0 l 513 486 l 214 486 l 111 0 l 45 0 l 254 991 l 321 991 l 228 553 l 526 553 l 619 991 l 686 991 l 476 0 m 595 1071 q 510 1208 555 1131 q 361 1071 420 1119 l 331 1071 l 334 1084 q 496 1293 442 1207 l 554 1293 q 586 1191 562 1259 q 629 1084 611 1124 l 627 1071 l 595 1071 z "},"ĥ":{"ha":532,"x_min":50,"x_max":590,"o":"m 342 0 l 458 553 q 465 610 465 580 q 397 686 465 686 q 278 618 326 686 q 200 404 230 549 l 114 0 l 50 0 l 273 1055 l 338 1055 l 271 747 l 243 633 l 245 633 q 410 750 309 750 q 498 717 467 750 q 529 623 529 684 q 519 541 529 585 l 406 0 l 342 0 m 555 1108 q 471 1246 515 1168 q 322 1108 381 1156 l 292 1108 l 294 1121 q 456 1331 403 1244 l 515 1331 q 547 1229 522 1296 q 590 1121 572 1161 l 587 1108 l 555 1108 z "},"Ħ":{"ha":627,"x_min":45,"x_max":743,"o":"m 476 0 l 408 0 l 511 486 l 214 486 l 111 0 l 45 0 l 200 737 l 103 737 l 117 803 l 214 803 l 254 991 l 321 991 l 281 803 l 578 803 l 618 991 l 686 991 l 646 803 l 743 803 l 729 737 l 632 737 l 476 0 m 525 553 l 564 737 l 267 737 l 228 553 l 525 553 z "},"ħ":{"ha":530,"x_min":50,"x_max":529,"o":"m 342 0 l 458 553 q 465 610 465 580 q 397 686 465 686 q 278 618 326 686 q 200 404 230 549 l 114 0 l 50 0 l 233 867 l 144 867 l 155 924 l 244 924 l 273 1055 l 338 1055 l 309 924 l 444 924 l 433 867 l 296 867 l 271 747 l 243 633 l 245 633 q 410 750 309 750 q 498 717 467 750 q 529 623 529 684 q 519 541 529 585 l 406 0 l 342 0 z "},"ĩ":{"ha":236,"x_min":46,"x_max":449,"o":"m 110 0 l 46 0 l 203 736 l 267 736 l 110 0 m 342 848 q 298 862 318 848 q 259 893 278 876 q 223 923 241 909 q 189 937 206 937 q 147 913 162 937 q 120 847 132 890 l 73 847 q 124 966 94 928 q 195 1003 154 1003 q 239 989 219 1003 q 276 959 258 975 q 309 928 293 942 q 342 914 326 914 q 374 929 362 914 q 401 1006 386 945 l 449 1006 q 405 882 429 915 q 342 848 380 848 z "},"ī":{"ha":236,"x_min":46,"x_max":425,"o":"m 110 0 l 46 0 l 203 736 l 267 736 l 110 0 m 85 904 l 425 904 l 414 848 l 75 848 l 85 904 z "},"ĭ":{"ha":236,"x_min":46,"x_max":408,"o":"m 110 0 l 46 0 l 203 736 l 267 736 l 110 0 m 408 1003 q 357 884 393 926 q 256 842 321 842 q 170 873 201 842 q 139 964 139 905 q 142 1003 139 989 l 188 1003 l 186 993 l 186 982 q 208 921 186 940 q 260 903 229 903 q 320 926 297 903 q 360 1003 343 949 l 408 1003 z "},"į":{"ha":236,"x_min":-80,"x_max":322,"o":"m 110 0 l 46 0 l 203 736 l 267 736 l 110 0 m 235 920 q 250 979 235 954 q 290 1004 266 1004 q 322 965 322 1004 q 307 901 322 926 q 268 876 292 876 q 235 920 235 876 m -13 -196 q 35 -250 -13 -250 q 81 -243 56 -250 l 71 -292 q 7 -302 45 -302 q -58 -276 -35 -302 q -80 -207 -80 -249 q -51 -105 -80 -155 q 54 0 -21 -56 l 104 0 q -13 -196 -13 -102 z "},"ı":{"ha":236,"x_min":46,"x_max":267,"o":"m 110 0 l 46 0 l 203 736 l 267 736 l 110 0 z "},"ĳ":{"ha":469,"x_min":46,"x_max":555,"o":"m 110 0 l 46 0 l 203 736 l 267 736 l 110 0 m 235 920 q 250 979 235 954 q 290 1004 266 1004 q 322 965 322 1004 q 307 901 322 926 q 268 876 292 876 q 235 920 235 876 m 468 920 q 484 979 468 954 q 524 1004 499 1004 q 555 965 555 1004 q 541 901 555 926 q 501 876 526 876 q 468 920 468 876 m 436 736 l 500 736 l 328 -72 q 283 -233 304 -180 q 234 -310 262 -286 q 154 -334 205 -334 q 94 -326 119 -334 l 94 -264 q 151 -272 119 -272 q 201 -254 183 -272 q 233 -194 218 -236 q 265 -68 248 -152 l 436 736 z "},"Ĵ":{"ha":244,"x_min":-154,"x_max":444,"o":"m -77 -250 q -154 -233 -124 -250 l -135 -171 q -74 -184 -106 -184 q -3 -147 -28 -184 q 40 -24 22 -110 l 256 991 l 322 991 l 104 -39 q 38 -199 81 -148 q -77 -250 -5 -250 m 409 1071 q 324 1208 369 1131 q 176 1071 235 1119 l 145 1071 l 148 1084 q 310 1293 256 1207 l 368 1293 q 400 1191 376 1259 q 444 1084 425 1124 l 441 1071 l 409 1071 z "},"ĵ":{"ha":236,"x_min":-139,"x_max":394,"o":"m 203 736 l 267 736 l 94 -72 q 50 -233 71 -180 q 0 -310 29 -286 q -79 -334 -28 -334 q -139 -326 -114 -334 l -139 -264 q -82 -272 -114 -272 q -33 -254 -50 -272 q 0 -194 -15 -236 q 32 -68 14 -152 l 203 736 m 359 842 q 275 979 319 901 q 126 842 185 890 l 96 842 l 98 854 q 260 1064 207 978 l 319 1064 q 351 962 326 1029 q 394 854 376 895 l 391 842 l 359 842 z "},"Ķ":{"ha":504,"x_min":45,"x_max":643,"o":"m 452 0 l 383 0 l 282 481 l 195 393 l 111 0 l 45 0 l 254 991 l 321 991 l 210 467 l 293 589 l 575 991 l 643 991 l 336 539 l 452 0 m 98 -286 q 155 -193 122 -254 q 203 -85 188 -132 l 275 -85 l 275 -100 q 220 -200 268 -129 q 127 -307 172 -272 l 98 -307 l 98 -286 z "},"ķ":{"ha":433,"x_min":49,"x_max":528,"o":"m 187 372 l 220 412 l 275 484 l 458 736 l 528 736 l 319 444 l 385 0 l 318 0 l 261 389 l 175 294 l 113 0 l 49 0 l 273 1055 l 338 1055 l 216 501 q 186 372 211 474 l 187 372 m 67 -286 q 124 -193 92 -254 q 173 -85 157 -132 l 244 -85 l 244 -100 q 189 -200 237 -129 q 96 -307 141 -272 l 67 -307 l 67 -286 z "},"ĸ":{"ha":440,"x_min":49,"x_max":528,"o":"m 187 366 q 458 736 265 469 l 528 736 l 319 444 l 385 0 l 318 0 l 264 390 l 174 288 l 113 0 l 49 0 l 205 736 l 268 736 l 216 501 l 184 366 l 187 366 z "},"Ĺ":{"ha":433,"x_min":45,"x_max":527,"o":"m 45 0 l 254 991 l 321 991 l 125 64 l 368 64 l 355 0 l 45 0 m 281 1071 l 281 1082 q 433 1293 386 1208 l 527 1293 l 527 1282 q 435 1176 498 1239 q 316 1071 371 1113 l 281 1071 z "},"ĺ":{"ha":235,"x_min":49,"x_max":519,"o":"m 113 0 l 49 0 l 273 1055 l 338 1055 l 113 0 m 273 1109 l 273 1120 q 425 1332 378 1246 l 519 1332 l 519 1320 q 427 1215 490 1278 q 308 1109 363 1152 l 273 1109 z "},"Ļ":{"ha":433,"x_min":34,"x_max":368,"o":"m 45 0 l 254 991 l 321 991 l 125 64 l 368 64 l 355 0 l 45 0 m 34 -286 q 91 -193 58 -254 q 140 -85 124 -132 l 211 -85 l 211 -100 q 156 -200 204 -129 q 63 -307 108 -272 l 34 -307 l 34 -286 z "},"ļ":{"ha":235,"x_min":-73,"x_max":338,"o":"m 113 0 l 49 0 l 273 1055 l 338 1055 l 113 0 m -73 -286 q -16 -193 -49 -254 q 33 -85 17 -132 l 104 -85 l 104 -100 q 49 -200 97 -129 q -44 -307 1 -272 l -73 -307 l -73 -286 z "},"Ľ":{"ha":433,"x_min":45,"x_max":543,"o":"m 45 0 l 254 991 l 321 991 l 125 64 l 368 64 l 355 0 l 45 0 m 393 781 q 471 992 449 920 l 543 992 l 543 979 q 488 870 528 938 q 420 770 448 803 l 393 770 l 393 781 z "},"ľ":{"ha":235,"x_min":49,"x_max":513,"o":"m 113 0 l 49 0 l 273 1055 l 338 1055 l 113 0 m 363 844 q 440 1055 418 983 l 513 1055 l 513 1042 q 457 933 497 1001 q 390 833 417 866 l 363 833 l 363 844 z "},"Ŀ":{"ha":433,"x_min":45,"x_max":415,"o":"m 45 0 l 254 991 l 321 991 l 125 64 l 368 64 l 355 0 l 45 0 m 328 487 q 343 547 328 522 q 383 572 359 572 q 415 532 415 572 q 400 469 415 494 q 361 444 385 444 q 328 487 328 444 z "},"ŀ":{"ha":335,"x_min":49,"x_max":383,"o":"m 113 0 l 49 0 l 273 1055 l 338 1055 l 113 0 m 296 437 q 311 496 296 471 q 351 522 327 522 q 383 482 383 522 q 368 418 383 444 q 329 393 353 393 q 296 437 296 393 z "},"Ł":{"ha":433,"x_min":11,"x_max":393,"o":"m 45 0 l 123 374 l 35 322 l 11 374 l 139 447 l 254 991 l 321 991 l 215 492 l 368 581 l 393 529 l 199 416 l 125 64 l 368 64 l 355 0 l 45 0 z "},"ł":{"ha":265,"x_min":36,"x_max":379,"o":"m 235 576 l 351 653 l 379 606 l 220 500 l 113 0 l 49 0 l 144 452 l 61 397 l 36 444 l 161 526 l 273 1055 l 338 1055 l 235 576 z "},"Ń":{"ha":665,"x_min":45,"x_max":725,"o":"m 515 0 l 433 0 l 297 889 l 292 889 q 261 711 282 811 l 111 0 l 45 0 l 254 991 l 343 991 l 473 113 l 478 113 l 488 171 l 511 298 l 659 991 l 725 991 l 515 0 m 449 1071 l 449 1082 q 600 1293 553 1208 l 694 1293 l 694 1282 q 602 1176 666 1239 q 484 1071 538 1113 l 449 1071 z "},"ń":{"ha":530,"x_min":49,"x_max":586,"o":"m 340 0 l 457 553 q 464 610 464 580 q 396 686 464 686 q 277 618 325 686 q 199 404 229 549 l 113 0 l 49 0 l 204 736 l 258 736 l 241 633 l 244 633 q 408 750 307 750 q 496 717 465 750 q 528 623 528 684 q 518 541 528 585 l 404 0 l 340 0 m 340 842 l 340 852 q 492 1064 445 979 l 586 1064 l 586 1053 q 494 947 557 1010 q 375 842 430 884 l 340 842 z "},"Ņ":{"ha":665,"x_min":45,"x_max":725,"o":"m 515 0 l 433 0 l 297 889 l 292 889 q 261 711 282 811 l 111 0 l 45 0 l 254 991 l 343 991 l 473 113 l 478 113 l 488 171 l 511 298 l 659 991 l 725 991 l 515 0 m 121 -286 q 179 -193 146 -254 q 227 -85 212 -132 l 298 -85 l 298 -100 q 243 -200 292 -129 q 151 -307 195 -272 l 121 -307 l 121 -286 z "},"ņ":{"ha":530,"x_min":49,"x_max":528,"o":"m 340 0 l 457 553 q 464 610 464 580 q 396 686 464 686 q 277 618 325 686 q 199 404 229 549 l 113 0 l 49 0 l 204 736 l 258 736 l 241 633 l 244 633 q 408 750 307 750 q 496 717 465 750 q 528 623 528 684 q 518 541 528 585 l 404 0 l 340 0 m 73 -286 q 130 -193 97 -254 q 178 -85 163 -132 l 250 -85 l 250 -100 q 195 -200 243 -129 q 102 -307 146 -272 l 73 -307 l 73 -286 z "},"Ň":{"ha":665,"x_min":45,"x_max":725,"o":"m 515 0 l 433 0 l 297 889 l 292 889 q 261 711 282 811 l 111 0 l 45 0 l 254 991 l 343 991 l 473 113 l 478 113 l 488 171 l 511 298 l 659 991 l 725 991 l 515 0 m 420 1293 q 505 1156 442 1261 q 654 1293 597 1247 l 685 1293 l 682 1280 q 594 1175 645 1240 q 519 1071 543 1109 l 461 1071 q 430 1171 453 1106 q 386 1280 406 1236 l 389 1293 l 420 1293 z "},"ň":{"ha":530,"x_min":49,"x_max":578,"o":"m 340 0 l 457 553 q 464 610 464 580 q 396 686 464 686 q 277 618 325 686 q 199 404 229 549 l 113 0 l 49 0 l 204 736 l 258 736 l 241 633 l 244 633 q 408 750 307 750 q 496 717 465 750 q 528 623 528 684 q 518 541 528 585 l 404 0 l 340 0 m 314 1064 q 399 926 336 1031 q 548 1064 490 1018 l 578 1064 l 576 1051 q 488 945 538 1010 q 413 842 437 880 l 355 842 q 323 942 347 877 q 279 1051 300 1007 l 282 1064 l 314 1064 z "},"ŉ":{"ha":590,"x_min":73,"x_max":586,"o":"m 399 0 l 515 553 q 522 610 522 580 q 454 686 522 686 q 335 618 383 686 q 257 404 287 549 l 171 0 l 107 0 l 262 736 l 317 736 l 300 633 l 302 633 q 467 750 366 750 q 555 717 524 750 q 586 623 586 684 q 576 541 586 585 l 463 0 l 399 0 m 283 977 q 117 673 218 840 l 73 673 q 202 991 154 846 l 277 991 l 283 977 z "},"Ŋ":{"ha":665,"x_min":45,"x_max":725,"o":"m 323 -248 q 280 -241 305 -248 q 248 -228 255 -235 l 261 -163 q 330 -178 288 -178 q 400 -139 374 -178 q 437 -17 427 -100 l 297 889 l 292 889 q 261 711 282 811 l 111 0 l 45 0 l 254 991 l 343 991 l 473 117 l 478 117 q 501 248 485 163 q 659 991 517 334 l 725 991 l 515 0 q 468 -160 490 -113 q 413 -228 446 -208 q 323 -248 380 -248 z "},"ŋ":{"ha":530,"x_min":49,"x_max":528,"o":"m 464 610 q 396 686 464 686 q 277 618 325 686 q 199 404 229 549 l 113 0 l 49 0 l 204 736 l 258 736 l 241 633 l 244 633 q 408 750 307 750 q 496 717 465 750 q 528 623 528 684 q 518 541 528 585 l 389 -72 q 345 -234 366 -180 q 295 -311 323 -288 q 215 -334 267 -334 q 155 -326 180 -334 l 155 -264 q 212 -272 180 -272 q 262 -254 244 -272 q 294 -194 279 -236 q 326 -68 309 -152 l 457 553 q 464 610 464 583 z "},"Ō":{"ha":650,"x_min":92,"x_max":671,"o":"m 279 -14 q 92 257 92 -14 q 123 538 92 390 q 207 793 154 686 q 328 953 260 901 q 476 1006 396 1006 q 663 746 663 1006 q 608 368 663 553 q 468 85 554 183 q 279 -14 382 -14 m 158 256 q 285 50 158 50 q 402 105 347 50 q 500 261 458 159 q 570 498 543 362 q 596 746 596 633 q 469 942 596 942 q 353 892 408 942 q 255 743 298 842 q 185 505 212 643 q 158 256 158 368 m 332 1133 l 671 1133 l 660 1078 l 321 1078 l 332 1133 z "},"ō":{"ha":529,"x_min":81,"x_max":572,"o":"m 231 -14 q 119 41 158 -14 q 81 195 81 95 q 105 401 81 291 q 169 589 130 512 q 261 708 208 666 q 379 750 314 750 q 491 694 451 750 q 532 536 532 638 q 507 334 532 442 q 442 148 482 226 q 349 28 402 71 q 231 -14 295 -14 m 147 182 q 239 45 147 45 q 350 114 299 45 q 433 308 401 182 q 465 550 465 433 q 371 689 465 689 q 264 623 314 689 q 181 429 214 556 q 147 182 147 301 m 233 904 l 572 904 l 561 848 l 222 848 l 233 904 z "},"Ŏ":{"ha":650,"x_min":92,"x_max":663,"o":"m 279 -14 q 92 257 92 -14 q 123 538 92 390 q 207 793 154 686 q 328 953 260 901 q 476 1006 396 1006 q 663 746 663 1006 q 608 368 663 553 q 468 85 554 183 q 279 -14 382 -14 m 158 256 q 285 50 158 50 q 402 105 347 50 q 500 261 458 159 q 570 498 543 362 q 596 746 596 633 q 469 942 596 942 q 353 892 408 942 q 255 743 298 842 q 185 505 212 643 q 158 256 158 368 m 649 1232 q 598 1113 634 1156 q 497 1071 563 1071 q 411 1103 442 1071 q 380 1193 380 1135 q 384 1232 380 1219 l 429 1232 l 428 1222 l 428 1211 q 449 1151 428 1169 q 502 1132 470 1132 q 562 1155 538 1132 q 602 1232 585 1179 l 649 1232 z "},"ŏ":{"ha":529,"x_min":81,"x_max":558,"o":"m 231 -14 q 119 41 158 -14 q 81 195 81 95 q 105 401 81 291 q 169 589 130 512 q 261 708 208 666 q 379 750 314 750 q 491 694 451 750 q 532 536 532 638 q 507 334 532 442 q 442 148 482 226 q 349 28 402 71 q 231 -14 295 -14 m 147 182 q 239 45 147 45 q 350 114 299 45 q 433 308 401 182 q 465 550 465 433 q 371 689 465 689 q 264 623 314 689 q 181 429 214 556 q 147 182 147 301 m 558 1003 q 508 884 543 926 q 406 842 472 842 q 320 873 351 842 q 290 964 290 905 q 293 1003 290 989 l 338 1003 l 337 993 l 337 982 q 358 921 337 940 q 411 903 379 903 q 471 926 448 903 q 511 1003 494 949 l 558 1003 z "},"Ő":{"ha":650,"x_min":92,"x_max":775,"o":"m 279 -14 q 92 257 92 -14 q 123 538 92 390 q 207 793 154 686 q 328 953 260 901 q 476 1006 396 1006 q 663 746 663 1006 q 608 368 663 553 q 468 85 554 183 q 279 -14 382 -14 m 158 256 q 285 50 158 50 q 402 105 347 50 q 500 261 458 159 q 570 498 543 362 q 596 746 596 633 q 469 942 596 942 q 353 892 408 942 q 255 743 298 842 q 185 505 212 643 q 158 256 158 368 m 343 1071 l 346 1084 q 494 1293 446 1204 l 589 1293 l 587 1282 q 494 1174 557 1236 q 378 1071 431 1112 l 343 1071 m 529 1071 l 532 1084 q 681 1293 632 1204 l 775 1293 l 774 1282 q 681 1175 742 1236 q 564 1071 619 1114 l 529 1071 z "},"ő":{"ha":529,"x_min":81,"x_max":703,"o":"m 231 -14 q 119 41 158 -14 q 81 195 81 95 q 105 401 81 291 q 169 589 130 512 q 261 708 208 666 q 379 750 314 750 q 491 694 451 750 q 532 536 532 638 q 507 334 532 442 q 442 148 482 226 q 349 28 402 71 q 231 -14 295 -14 m 147 182 q 239 45 147 45 q 350 114 299 45 q 433 308 401 182 q 465 550 465 433 q 371 689 465 689 q 264 623 314 689 q 181 429 214 556 q 147 182 147 301 m 271 842 l 273 854 q 422 1064 373 975 l 517 1064 l 515 1053 q 422 945 485 1007 q 305 842 359 883 l 271 842 m 456 842 l 460 854 q 608 1064 559 975 l 703 1064 l 701 1053 q 608 946 669 1007 q 492 842 547 884 l 456 842 z "},"Œ":{"ha":749,"x_min":92,"x_max":846,"o":"m 636 0 l 400 0 l 297 -4 q 145 66 199 -4 q 92 268 92 137 q 143 623 92 442 q 282 900 195 804 q 479 996 369 996 l 607 991 l 846 991 l 832 926 l 576 926 l 497 551 l 737 551 l 724 488 l 484 488 l 393 64 l 648 64 l 636 0 m 509 930 l 488 932 l 468 932 q 348 880 403 932 q 252 735 293 828 q 184 512 211 643 q 158 267 158 381 q 198 106 158 153 q 325 58 238 58 l 509 930 z "},"œ":{"ha":832,"x_min":81,"x_max":848,"o":"m 231 -14 q 119 41 158 -14 q 81 195 81 95 q 105 401 81 291 q 169 589 130 512 q 261 708 208 666 q 379 750 314 750 q 513 571 503 750 q 607 703 553 655 q 725 750 662 750 q 816 716 784 750 q 848 612 848 682 q 808 467 848 529 q 693 374 768 404 q 514 343 618 343 l 505 343 q 492 208 492 273 q 616 45 492 45 q 679 53 650 45 q 745 82 708 61 l 745 24 q 600 -14 680 -14 q 437 157 456 -14 q 231 -14 361 -14 m 147 182 q 239 45 147 45 q 350 114 299 45 q 433 308 401 182 q 465 550 465 433 q 371 689 465 689 q 264 623 314 689 q 181 429 214 556 q 147 182 147 301 m 714 690 q 600 610 654 690 q 514 399 545 530 q 785 614 785 399 q 769 670 785 650 q 714 690 753 690 z "},"Ŕ":{"ha":539,"x_min":45,"x_max":616,"o":"m 203 433 l 111 0 l 45 0 l 254 991 l 376 991 q 526 936 471 991 q 581 782 581 880 q 554 627 581 701 q 480 506 528 554 q 371 446 432 458 l 453 0 l 380 0 l 301 433 l 203 433 m 215 494 l 286 494 q 452 568 393 494 q 511 777 511 642 q 472 888 511 849 q 359 926 432 926 l 307 926 l 215 494 m 371 1071 l 371 1082 q 522 1293 475 1208 l 616 1293 l 616 1282 q 524 1176 588 1239 q 406 1071 460 1113 l 371 1071 z "},"ŕ":{"ha":342,"x_min":49,"x_max":528,"o":"m 395 750 q 444 742 421 750 l 427 676 q 382 686 406 686 q 275 607 324 686 q 196 390 225 528 l 113 0 l 49 0 l 204 736 l 252 736 l 232 607 l 235 607 q 395 750 294 750 m 283 842 l 283 852 q 434 1064 387 979 l 528 1064 l 528 1053 q 436 947 500 1010 q 317 842 372 884 l 283 842 z "},"Ŗ":{"ha":539,"x_min":45,"x_max":581,"o":"m 203 433 l 111 0 l 45 0 l 254 991 l 376 991 q 526 936 471 991 q 581 782 581 880 q 554 627 581 701 q 480 506 528 554 q 371 446 432 458 l 453 0 l 380 0 l 301 433 l 203 433 m 215 494 l 286 494 q 452 568 393 494 q 511 777 511 642 q 472 888 511 849 q 359 926 432 926 l 307 926 l 215 494 m 106 -286 q 163 -193 130 -254 q 212 -85 196 -132 l 283 -85 l 283 -100 q 228 -200 276 -129 q 135 -307 180 -272 l 106 -307 l 106 -286 z "},"ŗ":{"ha":342,"x_min":-64,"x_max":444,"o":"m 395 750 q 444 742 421 750 l 427 676 q 382 686 406 686 q 275 607 324 686 q 196 390 225 528 l 113 0 l 49 0 l 204 736 l 252 736 l 232 607 l 235 607 q 395 750 294 750 m -64 -286 q -6 -193 -39 -254 q 42 -85 26 -132 l 113 -85 l 113 -100 q 58 -200 106 -129 q -35 -307 10 -272 l -64 -307 l -64 -286 z "},"Ř":{"ha":539,"x_min":45,"x_max":619,"o":"m 203 433 l 111 0 l 45 0 l 254 991 l 376 991 q 526 936 471 991 q 581 782 581 880 q 554 627 581 701 q 480 506 528 554 q 371 446 432 458 l 453 0 l 380 0 l 301 433 l 203 433 m 215 494 l 286 494 q 452 568 393 494 q 511 777 511 642 q 472 888 511 849 q 359 926 432 926 l 307 926 l 215 494 m 355 1293 q 439 1156 376 1261 q 589 1293 531 1247 l 619 1293 l 616 1280 q 528 1175 579 1240 q 454 1071 477 1109 l 395 1071 q 364 1171 387 1106 q 320 1280 340 1236 l 323 1293 l 355 1293 z "},"ř":{"ha":342,"x_min":49,"x_max":528,"o":"m 395 750 q 444 742 421 750 l 427 676 q 382 686 406 686 q 275 607 324 686 q 196 390 225 528 l 113 0 l 49 0 l 204 736 l 252 736 l 232 607 l 235 607 q 395 750 294 750 m 263 1064 q 348 926 285 1031 q 497 1064 439 1018 l 528 1064 l 525 1051 q 437 945 488 1010 q 362 842 386 880 l 304 842 q 272 942 296 877 q 229 1051 249 1007 l 231 1064 l 263 1064 z "},"Ś":{"ha":493,"x_min":7,"x_max":598,"o":"m 444 271 q 374 62 444 138 q 179 -14 303 -14 q 79 -2 125 -14 q 7 25 32 9 l 7 98 q 184 50 89 50 q 325 109 275 50 q 375 269 375 168 q 364 347 375 313 q 334 412 353 382 q 260 501 315 442 q 186 589 207 557 q 155 657 166 621 q 144 736 144 692 q 177 876 144 813 q 270 972 210 939 q 408 1006 329 1006 q 500 994 452 1006 q 572 965 549 981 l 536 901 q 401 940 475 940 q 302 915 345 940 q 237 845 260 890 q 214 746 214 800 q 234 652 214 695 q 313 551 254 610 q 397 452 375 488 q 431 372 418 416 q 444 271 444 328 m 353 1071 l 353 1082 q 504 1293 457 1208 l 598 1293 l 598 1282 q 506 1176 570 1239 q 387 1071 442 1113 l 353 1071 z "},"ś":{"ha":403,"x_min":20,"x_max":522,"o":"m 155 -14 q 76 -4 117 -14 q 20 17 35 5 l 20 92 q 74 61 36 75 q 151 47 113 47 q 254 86 217 47 q 290 195 290 124 q 283 249 290 224 q 263 295 275 274 q 211 361 252 316 q 151 434 167 409 q 127 487 136 458 q 118 553 118 515 q 172 695 118 641 q 313 750 227 750 q 461 708 405 750 l 427 650 q 310 689 378 689 q 218 654 254 689 q 182 561 182 619 q 196 488 182 521 q 252 411 211 456 q 318 331 300 358 q 345 272 335 304 q 355 201 355 240 q 303 42 355 98 q 155 -14 252 -14 m 276 842 l 276 852 q 427 1064 380 979 l 522 1064 l 522 1053 q 429 947 493 1010 q 311 842 366 884 l 276 842 z "},"Ŝ":{"ha":493,"x_min":7,"x_max":572,"o":"m 444 271 q 374 62 444 138 q 179 -14 303 -14 q 79 -2 125 -14 q 7 25 32 9 l 7 98 q 184 50 89 50 q 325 109 275 50 q 375 269 375 168 q 364 347 375 313 q 334 412 353 382 q 260 501 315 442 q 186 589 207 557 q 155 657 166 621 q 144 736 144 692 q 177 876 144 813 q 270 972 210 939 q 408 1006 329 1006 q 500 994 452 1006 q 572 965 549 981 l 536 901 q 401 940 475 940 q 302 915 345 940 q 237 845 260 890 q 214 746 214 800 q 234 652 214 695 q 313 551 254 610 q 397 452 375 488 q 431 372 418 416 q 444 271 444 328 m 524 1071 q 439 1208 484 1131 q 291 1071 350 1119 l 260 1071 l 263 1084 q 425 1293 372 1207 l 484 1293 q 516 1191 491 1259 q 559 1084 541 1124 l 556 1071 l 524 1071 z "},"ŝ":{"ha":403,"x_min":20,"x_max":477,"o":"m 155 -14 q 76 -4 117 -14 q 20 17 35 5 l 20 92 q 74 61 36 75 q 151 47 113 47 q 254 86 217 47 q 290 195 290 124 q 283 249 290 224 q 263 295 275 274 q 211 361 252 316 q 151 434 167 409 q 127 487 136 458 q 118 553 118 515 q 172 695 118 641 q 313 750 227 750 q 461 708 405 750 l 427 650 q 310 689 378 689 q 218 654 254 689 q 182 561 182 619 q 196 488 182 521 q 252 411 211 456 q 318 331 300 358 q 345 272 335 304 q 355 201 355 240 q 303 42 355 98 q 155 -14 252 -14 m 442 842 q 357 979 402 901 q 209 842 268 890 l 178 842 l 181 854 q 343 1064 290 978 l 401 1064 q 434 962 409 1029 q 477 854 458 895 l 474 842 l 442 842 z "},"Ş":{"ha":493,"x_min":7,"x_max":572,"o":"m 444 271 q 374 62 444 138 q 179 -14 303 -14 q 79 -2 125 -14 q 7 25 32 9 l 7 98 q 184 50 89 50 q 325 109 275 50 q 375 269 375 168 q 364 347 375 313 q 334 412 353 382 q 260 501 315 442 q 186 589 207 557 q 155 657 166 621 q 144 736 144 692 q 177 876 144 813 q 270 972 210 939 q 408 1006 329 1006 q 500 994 452 1006 q 572 965 549 981 l 536 901 q 401 940 475 940 q 302 915 345 940 q 237 845 260 890 q 214 746 214 800 q 234 652 214 695 q 313 551 254 610 q 397 452 375 488 q 431 372 418 416 q 444 271 444 328 m 277 -180 q 230 -291 277 -248 q 109 -334 184 -334 q 68 -331 92 -334 q 35 -326 43 -329 l 35 -273 q 104 -281 52 -281 q 187 -256 157 -281 q 217 -189 217 -231 q 193 -139 217 -159 q 114 -109 170 -119 l 184 0 l 239 0 l 185 -78 q 253 -118 229 -90 q 277 -180 277 -145 z "},"ş":{"ha":403,"x_min":-1,"x_max":461,"o":"m 155 -14 q 76 -4 117 -14 q 20 17 35 5 l 20 92 q 74 61 36 75 q 151 47 113 47 q 254 86 217 47 q 290 195 290 124 q 283 249 290 224 q 263 295 275 274 q 211 361 252 316 q 151 434 167 409 q 127 487 136 458 q 118 553 118 515 q 172 695 118 641 q 313 750 227 750 q 461 708 405 750 l 427 650 q 310 689 378 689 q 218 654 254 689 q 182 561 182 619 q 196 488 182 521 q 252 411 211 456 q 318 331 300 358 q 345 272 335 304 q 355 201 355 240 q 303 42 355 98 q 155 -14 252 -14 m 241 -180 q 194 -291 241 -248 q 73 -334 148 -334 q 32 -331 56 -334 q -1 -326 7 -329 l -1 -273 q 68 -281 16 -281 q 151 -256 121 -281 q 181 -189 181 -231 q 157 -139 181 -159 q 78 -109 134 -119 l 148 0 l 203 0 l 149 -78 q 217 -118 193 -90 q 241 -180 241 -145 z "},"Š":{"ha":493,"x_min":7,"x_max":618,"o":"m 444 271 q 374 62 444 138 q 179 -14 303 -14 q 79 -2 125 -14 q 7 25 32 9 l 7 98 q 184 50 89 50 q 325 109 275 50 q 375 269 375 168 q 364 347 375 313 q 334 412 353 382 q 260 501 315 442 q 186 589 207 557 q 155 657 166 621 q 144 736 144 692 q 177 876 144 813 q 270 972 210 939 q 408 1006 329 1006 q 500 994 452 1006 q 572 965 549 981 l 536 901 q 401 940 475 940 q 302 915 345 940 q 237 845 260 890 q 214 746 214 800 q 234 652 214 695 q 313 551 254 610 q 397 452 375 488 q 431 372 418 416 q 444 271 444 328 m 353 1293 q 438 1156 375 1261 q 587 1293 530 1247 l 618 1293 l 615 1280 q 527 1175 578 1240 q 452 1071 476 1109 l 394 1071 q 362 1171 386 1106 q 319 1280 339 1236 l 321 1293 l 353 1293 z "},"š":{"ha":403,"x_min":20,"x_max":528,"o":"m 155 -14 q 76 -4 117 -14 q 20 17 35 5 l 20 92 q 74 61 36 75 q 151 47 113 47 q 254 86 217 47 q 290 195 290 124 q 283 249 290 224 q 263 295 275 274 q 211 361 252 316 q 151 434 167 409 q 127 487 136 458 q 118 553 118 515 q 172 695 118 641 q 313 750 227 750 q 461 708 405 750 l 427 650 q 310 689 378 689 q 218 654 254 689 q 182 561 182 619 q 196 488 182 521 q 252 411 211 456 q 318 331 300 358 q 345 272 335 304 q 355 201 355 240 q 303 42 355 98 q 155 -14 252 -14 m 263 1064 q 348 926 285 1031 q 497 1064 439 1018 l 528 1064 l 525 1051 q 437 945 488 1010 q 362 842 386 880 l 304 842 q 272 942 296 877 q 229 1051 249 1007 l 231 1064 l 263 1064 z "},"Ț":{"ha":433,"x_min":10,"x_max":581,"o":"m 197 0 l 129 0 l 325 926 l 151 926 l 165 991 l 581 991 l 567 926 l 393 926 l 197 0 m 10 -286 q 67 -193 35 -254 q 116 -85 100 -132 l 187 -85 l 187 -100 q 132 -200 180 -129 q 39 -307 84 -272 l 10 -307 l 10 -286 z "},"ț":{"ha":273,"x_min":-15,"x_max":357,"o":"m 222 54 l 222 0 q 151 -14 184 -14 q 65 89 65 -14 q 74 157 65 115 l 184 679 l 118 679 l 126 717 l 196 736 l 250 911 l 297 911 l 260 736 l 357 736 l 345 679 l 248 679 l 140 175 q 131 103 131 132 q 142 59 131 73 q 178 46 153 46 q 222 54 199 46 m -15 -286 q 42 -193 9 -254 q 91 -85 75 -132 l 162 -85 l 162 -100 q 107 -200 155 -129 q 14 -307 59 -272 l -15 -307 l -15 -286 z "},"Ť":{"ha":433,"x_min":129,"x_max":581,"o":"m 197 0 l 129 0 l 325 926 l 151 926 l 165 991 l 581 991 l 567 926 l 393 926 l 197 0 m 310 1293 q 395 1156 332 1261 q 544 1293 486 1247 l 574 1293 l 572 1280 q 484 1175 534 1240 q 409 1071 433 1109 l 351 1071 q 319 1171 342 1106 q 275 1280 296 1236 l 278 1293 l 310 1293 z "},"ť":{"ha":273,"x_min":65,"x_max":499,"o":"m 222 54 l 222 0 q 151 -14 184 -14 q 65 89 65 -14 q 74 157 65 115 l 184 679 l 118 679 l 126 717 l 196 736 l 250 911 l 297 911 l 260 736 l 357 736 l 345 679 l 248 679 l 140 175 q 131 103 131 132 q 142 59 131 73 q 178 46 153 46 q 222 54 199 46 m 349 844 q 427 1055 405 983 l 499 1055 l 499 1042 q 444 933 484 1001 q 376 833 404 866 l 349 833 l 349 844 z "},"Ŧ":{"ha":433,"x_min":104,"x_max":581,"o":"m 311 543 l 453 543 l 441 492 l 300 492 l 197 0 l 129 0 l 233 492 l 104 492 l 115 543 l 244 543 l 325 926 l 151 926 l 165 991 l 581 991 l 567 926 l 393 926 l 311 543 z "},"ŧ":{"ha":273,"x_min":56,"x_max":357,"o":"m 222 0 q 151 -14 184 -14 q 65 89 65 -14 q 74 157 65 115 l 134 436 l 56 436 l 68 496 l 146 496 l 184 679 l 118 679 l 126 717 l 196 736 l 250 911 l 297 911 l 260 736 l 357 736 l 345 679 l 248 679 l 208 496 l 313 496 l 300 436 l 196 436 l 140 175 q 131 103 131 132 q 142 59 131 73 q 178 46 153 46 q 222 54 199 46 l 222 0 z "},"Ũ":{"ha":618,"x_min":87,"x_max":686,"o":"m 686 991 l 541 311 q 438 63 503 140 q 261 -14 372 -14 q 132 39 176 -14 q 87 187 87 92 q 100 298 87 238 l 249 991 l 315 991 l 165 290 q 153 187 153 236 q 269 50 153 50 q 396 111 347 50 q 473 310 445 172 l 619 991 l 686 991 m 572 1078 q 528 1092 548 1078 q 489 1122 508 1105 q 453 1153 471 1139 q 419 1166 436 1166 q 377 1143 392 1166 q 350 1076 361 1119 l 302 1076 q 354 1195 323 1158 q 425 1232 384 1232 q 469 1218 449 1232 q 506 1188 488 1204 q 539 1157 523 1171 q 572 1143 555 1143 q 604 1159 592 1143 q 631 1235 616 1174 l 679 1235 q 634 1111 659 1144 q 572 1078 610 1078 z "},"ũ":{"ha":533,"x_min":83,"x_max":605,"o":"m 268 736 l 158 224 q 146 132 146 171 q 210 49 146 49 q 411 332 351 49 l 497 736 l 561 736 l 404 0 l 354 0 l 359 92 l 357 92 q 195 -14 288 -14 q 83 121 83 -14 q 97 233 83 174 l 204 736 l 268 736 m 498 848 q 454 862 474 848 q 415 893 434 876 q 379 923 397 909 q 345 937 362 937 q 303 913 318 937 q 276 847 288 890 l 229 847 q 280 966 250 928 q 351 1003 310 1003 q 395 989 375 1003 q 432 959 414 975 q 465 928 449 942 q 498 914 481 914 q 530 929 518 914 q 557 1006 542 945 l 605 1006 q 561 882 585 915 q 498 848 536 848 z "},"Ū":{"ha":618,"x_min":87,"x_max":686,"o":"m 686 991 l 541 311 q 438 63 503 140 q 261 -14 372 -14 q 132 39 176 -14 q 87 187 87 92 q 100 298 87 238 l 249 991 l 315 991 l 165 290 q 153 187 153 236 q 269 50 153 50 q 396 111 347 50 q 473 310 445 172 l 619 991 l 686 991 m 321 1133 l 660 1133 l 649 1078 l 310 1078 l 321 1133 z "},"ū":{"ha":533,"x_min":83,"x_max":578,"o":"m 268 736 l 158 224 q 146 132 146 171 q 210 49 146 49 q 411 332 351 49 l 497 736 l 561 736 l 404 0 l 354 0 l 359 92 l 357 92 q 195 -14 288 -14 q 83 121 83 -14 q 97 233 83 174 l 204 736 l 268 736 m 239 904 l 578 904 l 568 848 l 229 848 l 239 904 z "},"Ŭ":{"ha":618,"x_min":87,"x_max":686,"o":"m 686 991 l 541 311 q 438 63 503 140 q 261 -14 372 -14 q 132 39 176 -14 q 87 187 87 92 q 100 298 87 238 l 249 991 l 315 991 l 165 290 q 153 187 153 236 q 269 50 153 50 q 396 111 347 50 q 473 310 445 172 l 619 991 l 686 991 m 628 1232 q 577 1113 613 1156 q 476 1071 542 1071 q 390 1103 421 1071 q 359 1193 359 1135 q 363 1232 359 1219 l 408 1232 l 407 1222 l 407 1211 q 428 1151 407 1169 q 481 1132 449 1132 q 541 1155 517 1132 q 581 1232 564 1179 l 628 1232 z "},"ŭ":{"ha":533,"x_min":83,"x_max":561,"o":"m 268 736 l 158 224 q 146 132 146 171 q 210 49 146 49 q 411 332 351 49 l 497 736 l 561 736 l 404 0 l 354 0 l 359 92 l 357 92 q 195 -14 288 -14 q 83 121 83 -14 q 97 233 83 174 l 204 736 l 268 736 m 551 1003 q 500 884 536 926 q 399 842 465 842 q 313 873 344 842 q 282 964 282 905 q 286 1003 282 989 l 331 1003 l 330 993 l 330 982 q 351 921 330 940 q 404 903 372 903 q 463 926 440 903 q 503 1003 486 949 l 551 1003 z "},"Ů":{"ha":618,"x_min":87,"x_max":686,"o":"m 686 991 l 541 311 q 438 63 503 140 q 261 -14 372 -14 q 132 39 176 -14 q 87 187 87 92 q 100 298 87 238 l 249 991 l 315 991 l 165 290 q 153 187 153 236 q 269 50 153 50 q 396 111 347 50 q 473 310 445 172 l 619 991 l 686 991 m 626 1207 q 591 1113 626 1147 q 497 1078 557 1078 q 402 1112 436 1078 q 368 1204 368 1147 q 402 1296 368 1262 q 497 1331 436 1331 q 590 1296 554 1331 q 626 1207 626 1261 m 578 1204 q 556 1263 578 1240 q 497 1286 535 1286 q 438 1263 459 1286 q 416 1204 416 1240 q 436 1146 416 1168 q 497 1124 455 1124 q 555 1146 533 1124 q 578 1204 578 1168 z "},"ů":{"ha":533,"x_min":83,"x_max":561,"o":"m 268 736 l 158 224 q 146 132 146 171 q 210 49 146 49 q 411 332 351 49 l 497 736 l 561 736 l 404 0 l 354 0 l 359 92 l 357 92 q 195 -14 288 -14 q 83 121 83 -14 q 97 233 83 174 l 204 736 l 268 736 m 542 978 q 507 883 542 918 q 413 848 473 848 q 318 883 352 848 q 283 975 283 918 q 318 1067 283 1033 q 413 1101 352 1101 q 506 1067 470 1101 q 542 978 542 1032 m 494 975 q 472 1034 494 1010 q 413 1057 451 1057 q 354 1034 375 1057 q 332 975 332 1010 q 352 917 332 939 q 413 895 371 895 q 471 917 449 895 q 494 975 494 939 z "},"Ű":{"ha":618,"x_min":87,"x_max":777,"o":"m 686 991 l 541 311 q 438 63 503 140 q 261 -14 372 -14 q 132 39 176 -14 q 87 187 87 92 q 100 298 87 238 l 249 991 l 315 991 l 165 290 q 153 187 153 236 q 269 50 153 50 q 396 111 347 50 q 473 310 445 172 l 619 991 l 686 991 m 345 1071 l 347 1084 q 496 1293 447 1204 l 591 1293 l 589 1282 q 496 1174 559 1236 q 379 1071 433 1112 l 345 1071 m 530 1071 l 534 1084 q 682 1293 633 1204 l 777 1293 l 775 1282 q 682 1175 743 1236 q 566 1071 621 1114 l 530 1071 z "},"ű":{"ha":533,"x_min":83,"x_max":694,"o":"m 268 736 l 158 224 q 146 132 146 171 q 210 49 146 49 q 411 332 351 49 l 497 736 l 561 736 l 404 0 l 354 0 l 359 92 l 357 92 q 195 -14 288 -14 q 83 121 83 -14 q 97 233 83 174 l 204 736 l 268 736 m 262 842 l 265 854 q 414 1064 365 975 l 509 1064 l 507 1053 q 414 945 477 1007 q 297 842 351 883 l 262 842 m 448 842 l 452 854 q 600 1064 551 975 l 694 1064 l 693 1053 q 600 946 661 1007 q 484 842 538 884 l 448 842 z "},"Ų":{"ha":618,"x_min":87,"x_max":686,"o":"m 686 991 l 541 311 q 438 63 503 140 q 261 -14 372 -14 q 132 39 176 -14 q 87 187 87 92 q 100 298 87 238 l 249 991 l 315 991 l 165 290 q 153 187 153 236 q 269 50 153 50 q 396 111 347 50 q 473 310 445 172 l 619 991 l 686 991 m 218 -196 q 267 -250 218 -250 q 313 -243 288 -250 l 302 -292 q 239 -302 277 -302 q 174 -276 196 -302 q 151 -207 151 -249 q 181 -105 151 -155 q 285 0 210 -56 l 335 0 q 218 -196 218 -102 z "},"ų":{"ha":530,"x_min":83,"x_max":561,"o":"m 268 736 l 158 224 q 146 132 146 171 q 210 49 146 49 q 411 332 351 49 l 497 736 l 561 736 l 404 0 l 354 0 l 359 92 l 357 92 q 195 -14 288 -14 q 83 121 83 -14 q 97 233 83 174 l 204 736 l 268 736 m 288 -196 q 336 -250 288 -250 q 382 -243 357 -250 l 371 -292 q 308 -302 346 -302 q 243 -276 265 -302 q 220 -207 220 -249 q 250 -105 220 -155 q 354 0 279 -56 l 404 0 q 288 -196 288 -102 z "},"Ŵ":{"ha":861,"x_min":139,"x_max":1002,"o":"m 933 991 l 1002 991 l 603 0 l 521 0 l 553 742 l 564 904 l 510 743 l 221 0 l 139 0 l 157 991 l 225 991 l 207 309 q 195 75 202 165 l 212 125 l 279 306 l 543 991 l 616 991 l 595 334 q 578 75 587 162 q 664 309 635 239 l 933 991 m 693 1071 q 608 1208 653 1131 q 460 1071 519 1119 l 429 1071 l 432 1084 q 594 1293 541 1207 l 652 1293 q 685 1191 660 1259 q 728 1084 709 1124 l 725 1071 l 693 1071 z "},"ŵ":{"ha":686,"x_min":115,"x_max":790,"o":"m 412 0 l 432 498 l 440 653 q 404 546 413 573 q 195 0 394 519 l 115 0 l 129 736 l 193 736 l 184 307 q 170 83 182 188 l 172 83 q 199 161 178 102 q 419 736 220 220 l 493 736 l 482 307 q 472 130 480 246 l 469 83 l 472 83 l 513 190 l 725 736 l 790 736 l 494 0 l 412 0 m 582 842 q 497 979 542 901 q 349 842 408 890 l 318 842 l 321 854 q 483 1064 429 978 l 541 1064 q 573 962 549 1029 q 616 854 598 895 l 614 842 l 582 842 z "},"Ŷ":{"ha":418,"x_min":122,"x_max":575,"o":"m 257 479 l 505 991 l 575 991 l 272 387 l 191 0 l 122 0 l 204 387 l 154 991 l 222 991 l 257 479 m 487 1071 q 402 1208 447 1131 q 254 1071 313 1119 l 223 1071 l 226 1084 q 388 1293 334 1207 l 446 1293 q 478 1191 454 1259 q 522 1084 503 1124 l 519 1071 l 487 1071 z "},"ŷ":{"ha":399,"x_min":-107,"x_max":510,"o":"m -46 -334 q -107 -321 -77 -334 l -107 -262 q -47 -273 -82 -273 q 15 -244 -11 -273 q 79 -126 41 -214 l 127 -11 l 122 736 l 186 736 l 186 302 q 178 83 186 193 l 182 83 q 248 262 218 190 l 443 736 l 510 736 l 129 -165 q 50 -296 90 -259 q -46 -334 11 -334 m 434 842 q 349 979 394 901 q 201 842 260 890 l 170 842 l 173 854 q 335 1064 281 978 l 393 1064 q 426 962 401 1029 q 469 854 450 895 l 466 842 l 434 842 z "},"Ÿ":{"ha":418,"x_min":122,"x_max":575,"o":"m 257 479 l 505 991 l 575 991 l 272 387 l 191 0 l 122 0 l 204 387 l 154 991 l 222 991 l 257 479 m 252 1153 q 268 1208 252 1186 q 308 1230 283 1230 q 340 1190 340 1230 q 325 1132 340 1154 q 286 1109 311 1109 q 252 1153 252 1109 m 437 1153 q 452 1208 437 1186 q 492 1230 468 1230 q 524 1190 524 1230 q 510 1132 524 1154 q 470 1109 495 1109 q 437 1153 437 1109 z "},"Ź":{"ha":393,"x_min":-17,"x_max":557,"o":"m 315 0 l -17 0 l -4 60 l 431 926 l 182 926 l 196 991 l 517 991 l 504 930 l 62 64 l 328 64 l 315 0 m 312 1071 l 312 1082 q 463 1293 416 1208 l 557 1293 l 557 1282 q 465 1176 529 1239 q 347 1071 401 1113 l 312 1071 z "},"ź":{"ha":330,"x_min":-3,"x_max":494,"o":"m 264 0 l -3 0 l 7 52 l 329 679 l 150 679 l 163 736 l 410 736 l 399 684 l 75 57 l 277 57 l 264 0 m 248 842 l 248 852 q 399 1064 353 979 l 494 1064 l 494 1053 q 401 947 465 1010 q 283 842 338 884 l 248 842 z "},"Ż":{"ha":393,"x_min":-17,"x_max":517,"o":"m 315 0 l -17 0 l -4 60 l 431 926 l 182 926 l 196 991 l 517 991 l 504 930 l 62 64 l 328 64 l 315 0 m 340 1149 q 356 1208 340 1183 q 396 1234 372 1234 q 428 1194 428 1234 q 413 1131 428 1156 q 374 1105 398 1105 q 340 1149 340 1105 z "},"ż":{"ha":330,"x_min":-3,"x_max":410,"o":"m 264 0 l -3 0 l 7 52 l 329 679 l 150 679 l 163 736 l 410 736 l 399 684 l 75 57 l 277 57 l 264 0 m 273 920 q 289 979 273 954 q 329 1004 304 1004 q 361 965 361 1004 q 346 901 361 926 q 307 876 331 876 q 273 920 273 876 z "},"Ž":{"ha":393,"x_min":-17,"x_max":568,"o":"m 315 0 l -17 0 l -4 60 l 431 926 l 182 926 l 196 991 l 517 991 l 504 930 l 62 64 l 328 64 l 315 0 m 303 1293 q 388 1156 325 1261 q 537 1293 479 1247 l 568 1293 l 565 1280 q 477 1175 528 1240 q 402 1071 426 1109 l 344 1071 q 312 1171 336 1106 q 269 1280 289 1236 l 271 1293 l 303 1293 z "},"ž":{"ha":330,"x_min":-3,"x_max":490,"o":"m 264 0 l -3 0 l 7 52 l 329 679 l 150 679 l 163 736 l 410 736 l 399 684 l 75 57 l 277 57 l 264 0 m 225 1064 q 310 926 247 1031 q 459 1064 401 1018 l 490 1064 l 487 1051 q 399 945 450 1010 q 324 842 348 880 l 266 842 q 234 942 258 877 q 191 1051 211 1007 l 193 1064 l 225 1064 z "},"ſ":{"ha":232,"x_min":-154,"x_max":463,"o":"m -94 -334 q -154 -326 -129 -334 l -154 -264 q -97 -272 -130 -272 q -49 -256 -66 -272 q -17 -198 -32 -239 q 17 -68 -2 -157 l 204 810 q 248 963 225 909 q 302 1039 271 1016 q 387 1063 333 1063 q 463 1046 432 1063 l 435 986 q 379 1000 408 1000 q 331 983 348 1000 q 299 924 313 965 q 267 798 285 882 l 79 -72 q 34 -236 55 -183 q -16 -311 13 -288 q -94 -334 -44 -334 z "},"ƒ":{"ha":500,"x_min":-41,"x_max":615,"o":"m 32 -334 q -41 -321 -5 -334 l -41 -258 q 37 -273 3 -273 q 90 -255 71 -273 q 125 -194 109 -237 q 158 -68 141 -151 l 294 574 l 199 574 l 205 610 l 309 637 l 334 753 q 378 903 353 848 q 435 982 402 958 q 524 1006 468 1006 q 600 987 567 1006 l 615 979 l 581 921 l 569 928 q 509 943 543 943 q 472 935 487 943 q 445 905 457 927 q 420 842 432 882 q 372 631 409 802 l 489 631 l 476 574 l 359 574 l 220 -79 q 174 -231 199 -176 q 118 -310 150 -286 q 32 -334 85 -334 z "},"Ǻ":{"ha":496,"x_min":-46,"x_max":583,"o":"m 505 946 q 482 865 505 897 q 418 822 458 833 l 450 0 l 385 0 l 371 359 l 176 359 l 26 0 l -46 0 l 309 831 q 248 943 248 863 q 281 1035 248 1001 q 376 1069 315 1069 q 469 1035 433 1069 q 505 946 505 1000 m 371 427 l 363 812 l 201 427 l 371 427 m 454 943 q 434 1000 454 978 q 376 1022 413 1022 q 319 1000 340 1022 q 298 943 298 978 q 317 886 298 907 q 376 865 336 865 q 433 886 411 865 q 454 943 454 907 m 351 1112 l 351 1124 q 420 1211 384 1164 q 489 1314 457 1257 l 583 1314 l 583 1303 q 492 1203 547 1256 q 386 1112 437 1150 l 351 1112 z "},"ǻ":{"ha":554,"x_min":81,"x_max":646,"o":"m 414 1112 l 414 1124 q 483 1211 446 1164 q 551 1314 520 1257 l 646 1314 l 646 1303 q 563 1211 616 1263 q 449 1112 509 1158 l 414 1112 m 216 -14 q 81 178 81 -14 q 123 458 81 319 q 233 674 165 597 q 380 750 300 750 q 498 648 471 750 l 503 648 l 529 736 l 583 736 l 428 0 l 376 0 l 389 106 l 386 106 q 216 -14 309 -14 m 229 43 q 343 113 290 43 q 433 319 396 184 q 469 575 469 455 q 445 660 469 631 q 378 689 421 689 q 267 620 318 689 q 182 418 216 551 q 147 168 147 286 q 165 75 147 106 q 229 43 183 43 m 545 936 q 510 842 545 877 q 415 807 475 807 q 321 841 357 807 q 286 933 286 874 q 320 1025 286 991 q 415 1060 355 1060 q 509 1025 473 1060 q 545 936 545 991 m 496 933 q 474 992 496 969 q 415 1015 453 1015 q 356 992 378 1015 q 335 933 335 969 q 415 852 335 852 q 473 874 451 852 q 496 933 496 897 z "},"Ǽ":{"ha":703,"x_min":-52,"x_max":800,"o":"m 590 0 l 267 0 l 343 359 l 183 359 l 17 0 l -52 0 l 412 991 l 800 991 l 786 926 l 530 926 l 452 551 l 693 551 l 679 488 l 437 488 l 347 64 l 603 64 l 590 0 m 212 427 l 357 427 l 463 925 l 443 925 l 212 427 m 534 1071 l 534 1082 q 685 1293 638 1208 l 779 1293 l 779 1282 q 687 1176 751 1239 q 568 1071 623 1113 l 534 1071 z "},"ǽ":{"ha":808,"x_min":81,"x_max":822,"o":"m 216 -14 q 81 178 81 -14 q 123 458 81 319 q 233 674 165 597 q 380 750 300 750 q 446 727 420 750 q 485 646 471 703 l 511 736 l 566 736 l 543 640 q 699 750 618 750 q 790 716 758 750 q 822 612 822 682 q 782 467 822 529 q 666 374 741 404 q 488 343 591 343 l 479 343 q 465 208 465 276 q 497 84 465 124 q 593 45 529 45 q 718 82 653 45 l 718 24 q 653 -5 684 4 q 582 -14 623 -14 q 483 19 522 -14 q 432 111 444 52 l 410 0 l 358 0 l 374 106 q 216 -14 314 -14 m 229 43 q 337 111 289 43 q 416 313 386 180 q 447 575 447 446 q 429 660 447 630 q 378 689 411 689 q 267 620 318 689 q 182 418 216 551 q 147 168 147 286 q 165 75 147 106 q 229 43 183 43 m 688 690 q 579 617 631 690 q 489 399 528 543 q 690 453 621 399 q 758 614 758 507 q 743 670 758 650 q 688 690 728 690 m 450 842 l 450 852 q 602 1064 555 979 l 696 1064 l 696 1053 q 604 947 667 1010 q 485 842 540 884 l 450 842 z "},"Ǿ":{"ha":650,"x_min":16,"x_max":743,"o":"m 279 -14 q 138 56 185 -14 l 62 -64 l 16 -36 l 110 115 q 92 257 92 172 q 123 538 92 390 q 207 793 154 686 q 328 953 260 901 q 476 1006 396 1006 q 621 932 574 1006 l 694 1048 l 743 1018 l 648 868 q 663 746 663 814 q 608 368 663 553 q 468 85 554 183 q 279 -14 382 -14 m 158 256 q 161 197 158 214 l 578 863 q 469 942 547 942 q 353 892 408 942 q 255 743 298 842 q 185 505 212 643 q 158 256 158 368 m 285 50 q 402 105 347 50 q 500 261 458 159 q 570 498 543 362 q 596 746 596 633 l 595 782 l 179 122 q 285 50 210 50 m 460 1071 l 460 1082 q 611 1293 564 1208 l 705 1293 l 705 1282 q 613 1176 677 1239 q 494 1071 549 1113 l 460 1071 z "},"ǿ":{"ha":529,"x_min":7,"x_max":615,"o":"m 231 -14 q 125 33 163 -14 l 50 -79 l 7 -50 l 96 85 q 81 195 81 128 q 105 401 81 291 q 169 589 130 512 q 261 708 208 666 q 379 750 314 750 q 496 688 456 750 l 567 794 l 612 765 l 521 628 q 532 536 532 589 q 507 334 532 442 q 442 148 482 226 q 349 28 402 71 q 231 -14 295 -14 m 454 625 q 371 689 433 689 q 262 620 313 689 q 179 420 212 550 q 146 163 146 290 l 454 625 m 239 45 q 349 111 298 45 q 432 298 399 177 q 467 545 465 418 l 163 90 q 239 45 185 45 m 370 842 l 370 852 q 521 1064 474 979 l 615 1064 l 615 1053 q 523 947 587 1010 q 404 842 459 884 l 370 842 z "},"Ș":{"ha":493,"x_min":7,"x_max":572,"o":"m 444 271 q 374 62 444 138 q 179 -14 303 -14 q 79 -2 125 -14 q 7 25 32 9 l 7 98 q 184 50 89 50 q 325 109 275 50 q 375 269 375 168 q 364 347 375 313 q 334 412 353 382 q 260 501 315 442 q 186 589 207 557 q 155 657 166 621 q 144 736 144 692 q 177 876 144 813 q 270 972 210 939 q 408 1006 329 1006 q 500 994 452 1006 q 572 965 549 981 l 536 901 q 401 940 475 940 q 302 915 345 940 q 237 845 260 890 q 214 746 214 800 q 234 652 214 695 q 313 551 254 610 q 397 452 375 488 q 431 372 418 416 q 444 271 444 328 m 52 -286 q 109 -193 76 -254 q 157 -85 142 -132 l 229 -85 l 229 -100 q 174 -200 222 -129 q 81 -307 125 -272 l 52 -307 l 52 -286 z "},"ș":{"ha":403,"x_min":12,"x_max":461,"o":"m 155 -14 q 76 -4 117 -14 q 20 17 35 5 l 20 92 q 74 61 36 75 q 151 47 113 47 q 254 86 217 47 q 290 195 290 124 q 283 249 290 224 q 263 295 275 274 q 211 361 252 316 q 151 434 167 409 q 127 487 136 458 q 118 553 118 515 q 172 695 118 641 q 313 750 227 750 q 461 708 405 750 l 427 650 q 310 689 378 689 q 218 654 254 689 q 182 561 182 619 q 196 488 182 521 q 252 411 211 456 q 318 331 300 358 q 345 272 335 304 q 355 201 355 240 q 303 42 355 98 q 155 -14 252 -14 m 12 -286 q 69 -193 36 -254 q 117 -85 102 -132 l 189 -85 l 189 -100 q 134 -200 182 -129 q 41 -307 85 -272 l 12 -307 l 12 -286 z "},"ˆ":{"ha":705,"x_min":281,"x_max":579,"o":"m 545 842 q 460 979 505 901 q 311 842 370 890 l 281 842 l 283 854 q 446 1064 392 978 l 504 1064 q 536 962 511 1029 q 579 854 561 895 l 576 842 l 545 842 z "},"ˇ":{"ha":705,"x_min":326,"x_max":625,"o":"m 361 1064 q 446 926 382 1031 q 595 1064 537 1018 l 625 1064 l 623 1051 q 534 945 585 1010 q 460 842 484 880 l 401 842 q 370 942 393 877 q 326 1051 347 1007 l 329 1064 l 361 1064 z "},"ˉ":{"ha":679,"x_min":257,"x_max":607,"o":"m 268 904 l 607 904 l 596 848 l 257 848 l 268 904 z "},"˘":{"ha":705,"x_min":330,"x_max":599,"o":"m 599 1003 q 548 884 584 926 q 447 842 513 842 q 361 873 392 842 q 330 964 330 905 q 334 1003 330 989 l 379 1003 l 378 993 l 378 982 q 399 921 378 940 q 452 903 420 903 q 511 926 488 903 q 551 1003 534 949 l 599 1003 z "},"˙":{"ha":235,"x_min":207,"x_max":294,"o":"m 207 920 q 222 979 207 954 q 262 1004 238 1004 q 294 965 294 1004 q 279 901 294 926 q 240 876 264 876 q 207 920 207 876 z "},"˚":{"ha":721,"x_min":330,"x_max":589,"o":"m 589 978 q 554 883 589 918 q 460 848 519 848 q 365 883 399 848 q 330 975 330 918 q 365 1067 330 1033 q 460 1101 399 1101 q 553 1067 517 1101 q 589 978 589 1032 m 541 975 q 519 1034 541 1010 q 460 1057 498 1057 q 400 1034 422 1057 q 379 975 379 1010 q 398 917 379 939 q 460 895 418 895 q 518 917 496 895 q 541 975 541 939 z "},"˛":{"ha":233,"x_min":9,"x_max":193,"o":"m 77 -196 q 125 -250 77 -250 q 171 -243 146 -250 l 160 -292 q 97 -302 135 -302 q 32 -276 54 -302 q 9 -207 9 -249 q 39 -105 9 -155 q 143 0 68 -56 l 193 0 q 77 -196 77 -102 z "},"˜":{"ha":705,"x_min":262,"x_max":639,"o":"m 532 848 q 488 862 508 848 q 449 893 468 876 q 413 923 431 909 q 379 937 396 937 q 337 913 352 937 q 310 847 321 890 l 262 847 q 314 966 283 928 q 385 1003 344 1003 q 429 989 409 1003 q 466 959 448 975 q 499 928 483 942 q 532 914 515 914 q 564 929 552 914 q 591 1006 576 945 l 639 1006 q 594 882 619 915 q 532 848 570 848 z "},"˝":{"ha":708,"x_min":232,"x_max":664,"o":"m 232 842 l 235 854 q 383 1064 334 975 l 478 1064 l 476 1053 q 383 945 446 1007 q 267 842 320 883 l 232 842 m 418 842 l 421 854 q 570 1064 521 975 l 664 1064 l 663 1053 q 569 946 631 1007 q 453 842 508 884 l 418 842 z "},"΄":{"ha":721,"x_min":392,"x_max":586,"o":"m 511 1092 l 586 1092 l 583 1078 q 511 961 562 1039 q 429 842 460 884 l 392 842 l 395 856 q 457 973 420 899 q 511 1092 494 1047 z "},"΅":{"ha":721,"x_min":293,"x_max":606,"o":"m 293 924 q 309 979 293 957 q 349 1000 324 1000 q 380 961 380 1000 q 366 903 380 925 q 326 880 351 880 q 293 924 293 880 m 518 924 q 533 979 518 957 q 574 1000 549 1000 q 606 961 606 1000 q 591 903 606 925 q 551 880 576 880 q 518 924 518 880 m 415 956 q 471 1063 444 1004 q 511 1164 498 1123 l 583 1164 l 583 1150 q 523 1044 567 1113 q 450 942 479 975 l 418 942 l 415 956 z "},"Ά":{"ha":496,"x_min":-53,"x_max":441,"o":"m 376 0 l 376 359 l 168 359 l 18 0 l -53 0 l 358 996 l 441 996 l 441 0 l 376 0 m 376 427 l 376 677 l 380 918 q 345 815 370 883 q 192 427 320 747 l 376 427 m 212 1070 l 287 1070 l 284 1056 q 212 940 263 1017 q 130 820 161 862 l 93 820 l 96 834 q 158 951 121 877 q 212 1070 195 1025 z "},"·":{"ha":257,"x_min":143,"x_max":252,"o":"m 143 464 q 162 533 143 505 q 213 562 181 562 q 241 547 231 562 q 252 510 252 533 q 233 443 252 469 q 185 417 214 417 q 156 429 168 417 q 143 464 143 441 z "},"Έ":{"ha":562,"x_min":94,"x_max":659,"o":"m 449 0 l 125 0 l 335 991 l 659 991 l 644 926 l 389 926 l 310 551 l 550 551 l 536 488 l 296 488 l 205 64 l 461 64 l 449 0 m 214 1070 l 288 1070 l 286 1056 q 214 940 264 1017 q 132 820 163 862 l 94 820 l 97 834 q 159 951 122 877 q 214 1070 196 1025 z "},"Ή":{"ha":710,"x_min":90,"x_max":770,"o":"m 559 0 l 493 0 l 596 486 l 297 486 l 195 0 l 128 0 l 338 991 l 404 991 l 311 553 l 610 553 l 703 991 l 770 991 l 559 0 m 210 1070 l 284 1070 l 281 1056 q 210 940 260 1017 q 127 820 159 862 l 90 820 l 93 834 q 155 951 118 877 q 210 1070 192 1025 z "},"Ό":{"ha":713,"x_min":122,"x_max":725,"o":"m 342 -14 q 154 257 154 -14 q 185 538 154 390 q 270 793 216 686 q 391 953 323 901 q 538 1006 458 1006 q 725 746 725 1006 q 671 368 725 553 q 530 85 616 183 q 342 -14 444 -14 m 220 256 q 347 50 220 50 q 465 105 410 50 q 563 261 520 159 q 632 498 606 362 q 659 746 659 633 q 532 942 659 942 q 415 892 470 942 q 317 743 361 842 q 247 505 274 643 q 220 256 220 368 m 241 1070 l 316 1070 l 313 1056 q 241 940 292 1017 q 159 820 191 862 l 122 820 l 125 834 q 187 951 150 877 q 241 1070 224 1025 z "},"Ύ":{"ha":564,"x_min":77,"x_max":720,"o":"m 401 479 l 650 991 l 720 991 l 416 387 l 335 0 l 267 0 l 349 387 l 298 991 l 367 991 l 401 479 m 197 1070 l 271 1070 l 269 1056 q 197 940 248 1017 q 115 820 146 862 l 77 820 l 80 834 q 142 951 105 877 q 197 1070 179 1025 z "},"Ώ":{"ha":722,"x_min":54,"x_max":736,"o":"m 534 942 q 419 892 473 942 q 321 751 364 842 q 253 540 279 659 q 227 319 227 421 q 296 35 227 161 l 289 0 l 54 0 l 66 64 l 218 64 q 178 180 195 109 q 161 322 161 252 q 214 662 161 496 q 353 917 267 829 q 542 1006 439 1006 q 685 937 634 1006 q 736 749 736 869 q 671 385 736 568 q 493 64 607 201 l 646 64 l 632 0 l 389 0 l 396 35 q 593 350 522 163 q 665 737 665 536 q 534 942 665 942 m 214 1070 l 288 1070 l 286 1056 q 214 940 264 1017 q 132 820 163 862 l 94 820 l 97 834 q 159 951 122 877 q 214 1070 196 1025 z "},"ΐ":{"ha":272,"x_min":69,"x_max":434,"o":"m 268 736 l 143 150 q 135 89 135 115 q 172 47 135 47 q 224 58 193 47 l 224 0 q 155 -14 189 -14 q 69 77 69 -14 q 73 117 69 92 q 204 736 77 142 l 268 736 m 121 924 q 137 979 121 957 q 177 1000 153 1000 q 209 961 209 1000 q 194 903 209 925 q 155 880 180 880 q 121 924 121 880 m 347 924 q 362 979 347 957 q 402 1000 377 1000 q 434 961 434 1000 q 419 903 434 925 q 380 880 405 880 q 347 924 347 880 m 243 956 q 299 1063 272 1004 q 340 1164 326 1123 l 412 1164 l 412 1150 q 351 1044 395 1113 q 279 942 307 975 l 246 942 l 243 956 z "},"Α":{"ha":496,"x_min":-53,"x_max":441,"o":"m 376 0 l 376 359 l 168 359 l 18 0 l -53 0 l 358 996 l 441 996 l 441 0 l 376 0 m 376 427 l 376 677 l 380 918 q 345 815 370 883 q 192 427 320 747 l 376 427 z "},"Β":{"ha":554,"x_min":45,"x_max":602,"o":"m 254 991 l 407 991 q 548 941 495 991 q 602 806 602 890 q 551 616 602 692 q 412 524 500 541 l 411 519 q 491 459 460 507 q 522 346 522 411 q 488 165 522 243 q 387 43 453 86 q 229 0 321 0 l 45 0 l 254 991 m 228 551 l 328 551 q 435 583 389 551 q 506 670 481 614 q 532 798 532 727 q 497 895 532 863 q 392 926 463 926 l 309 926 l 228 551 m 215 488 l 125 64 l 232 64 q 395 137 336 64 q 453 335 453 210 q 418 447 453 406 q 322 488 384 488 l 215 488 z "},"Γ":{"ha":406,"x_min":45,"x_max":532,"o":"m 532 991 l 517 924 l 306 924 l 111 0 l 45 0 l 254 991 l 532 991 z "},"Δ":{"ha":492,"x_min":-25,"x_max":441,"o":"m 441 62 l 431 0 l -17 0 l -25 66 l 358 996 l 441 996 l 441 62 m 45 66 l 378 66 l 378 677 l 380 918 q 294 679 366 867 l 45 66 z "},"Ε":{"ha":481,"x_min":45,"x_max":578,"o":"m 368 0 l 45 0 l 254 991 l 578 991 l 564 926 l 309 926 l 229 551 l 469 551 l 456 488 l 215 488 l 125 64 l 380 64 l 368 0 z "},"Ζ":{"ha":393,"x_min":-17,"x_max":517,"o":"m 315 0 l -17 0 l -4 60 l 431 926 l 182 926 l 196 991 l 517 991 l 504 930 l 62 64 l 328 64 l 315 0 z "},"Η":{"ha":627,"x_min":45,"x_max":686,"o":"m 476 0 l 410 0 l 513 486 l 214 486 l 111 0 l 45 0 l 254 991 l 321 991 l 228 553 l 526 553 l 619 991 l 686 991 l 476 0 z "},"Θ":{"ha":671,"x_min":92,"x_max":684,"o":"m 314 545 l 475 545 l 460 473 l 298 473 l 314 545 m 286 -14 q 92 257 92 -14 q 125 542 92 393 q 213 796 158 690 q 338 954 268 902 q 490 1006 408 1006 q 684 746 684 1006 q 628 369 684 553 q 483 86 572 185 q 286 -14 393 -14 m 158 256 q 290 50 158 50 q 414 105 356 50 q 517 263 471 161 q 589 500 562 366 q 616 746 616 634 q 485 942 616 942 q 361 891 419 942 q 257 736 304 840 q 184 498 211 633 q 158 256 158 364 z "},"Κ":{"ha":504,"x_min":45,"x_max":643,"o":"m 452 0 l 383 0 l 282 481 l 195 393 l 111 0 l 45 0 l 254 991 l 321 991 l 210 467 l 293 589 l 575 991 l 643 991 l 336 539 l 452 0 z "},"Λ":{"ha":496,"x_min":-53,"x_max":441,"o":"m 376 677 l 380 918 q 294 679 356 831 l 20 0 l -53 0 l 358 996 l 441 996 l 441 0 l 376 0 l 376 677 z "},"Μ":{"ha":851,"x_min":45,"x_max":911,"o":"m 335 0 l 300 903 l 296 903 l 266 740 l 110 0 l 45 0 l 254 991 l 363 991 l 386 240 l 389 129 l 387 69 l 389 69 q 461 239 400 103 l 796 991 l 911 991 l 701 0 l 633 0 l 795 761 l 828 901 l 825 901 l 421 0 l 335 0 z "},"Ν":{"ha":665,"x_min":45,"x_max":725,"o":"m 515 0 l 433 0 l 297 889 l 292 889 q 261 711 282 811 l 111 0 l 45 0 l 254 991 l 343 991 l 473 113 l 478 113 l 488 171 l 511 298 l 659 991 l 725 991 l 515 0 z "},"Ξ":{"ha":463,"x_min":7,"x_max":547,"o":"m 229 991 l 547 991 l 534 928 l 216 928 l 229 991 m 363 64 l 350 0 l 7 0 l 20 64 l 363 64 m 158 551 l 432 551 l 418 488 l 144 488 l 158 551 z "},"Ο":{"ha":650,"x_min":92,"x_max":663,"o":"m 279 -14 q 92 257 92 -14 q 123 538 92 390 q 207 793 154 686 q 328 953 260 901 q 476 1006 396 1006 q 663 746 663 1006 q 608 368 663 553 q 468 85 554 183 q 279 -14 382 -14 m 158 256 q 285 50 158 50 q 402 105 347 50 q 500 261 458 159 q 570 498 543 362 q 596 746 596 633 q 469 942 596 942 q 353 892 408 942 q 255 743 298 842 q 185 505 212 643 q 158 256 158 368 z "},"Π":{"ha":627,"x_min":45,"x_max":686,"o":"m 476 0 l 410 0 l 607 928 l 307 928 l 111 0 l 45 0 l 254 991 l 686 991 l 476 0 z "},"Ρ":{"ha":524,"x_min":45,"x_max":582,"o":"m 582 783 q 543 591 582 677 q 432 458 505 506 q 262 410 359 410 l 197 410 l 111 0 l 45 0 l 254 991 l 370 991 q 525 935 468 991 q 582 783 582 878 m 211 473 l 258 473 q 445 552 379 473 q 511 772 511 630 q 472 886 511 845 q 359 926 432 926 l 307 926 l 211 473 z "},"Σ":{"ha":460,"x_min":-14,"x_max":571,"o":"m -14 0 l -3 57 l 304 518 l 189 930 l 201 991 l 571 991 l 558 928 l 258 928 l 375 514 l 75 64 l 392 64 l 379 0 l -14 0 z "},"Τ":{"ha":433,"x_min":129,"x_max":581,"o":"m 197 0 l 129 0 l 325 926 l 151 926 l 165 991 l 581 991 l 567 926 l 393 926 l 197 0 z "},"Υ":{"ha":418,"x_min":122,"x_max":575,"o":"m 257 479 l 505 991 l 575 991 l 272 387 l 191 0 l 122 0 l 204 387 l 154 991 l 222 991 l 257 479 z "},"Φ":{"ha":734,"x_min":102,"x_max":734,"o":"m 489 1006 l 554 1006 l 529 884 q 734 623 734 869 q 685 379 734 494 q 554 202 635 264 q 371 139 472 141 l 338 -14 l 272 -14 l 306 139 q 102 401 102 153 q 149 645 102 532 q 278 818 197 757 q 464 884 359 879 l 489 1006 m 383 200 q 525 256 463 201 q 627 414 588 310 q 665 632 665 519 q 627 773 665 724 q 515 822 589 822 l 383 200 m 450 822 q 306 767 368 820 q 206 613 243 713 q 170 395 170 513 q 318 200 170 208 l 450 822 z "},"Χ":{"ha":441,"x_min":-39,"x_max":581,"o":"m 371 0 l 302 0 l 267 452 l 31 0 l -39 0 l 245 536 l 191 991 l 258 991 l 304 581 l 513 991 l 581 991 l 325 504 l 371 0 z "},"Ψ":{"ha":710,"x_min":146,"x_max":782,"o":"m 332 0 l 265 0 l 329 306 q 188 363 230 313 q 146 513 146 413 q 167 681 146 584 l 232 991 l 298 991 l 233 682 q 212 518 212 580 q 244 405 212 439 q 343 370 275 370 l 475 991 l 542 991 l 410 370 q 521 398 479 370 q 593 493 563 427 q 650 682 623 559 l 715 991 l 782 991 l 713 660 q 645 454 686 532 q 546 341 604 377 q 396 306 488 306 l 332 0 z "},"Ω":{"ha":660,"x_min":-8,"x_max":673,"o":"m 472 942 q 356 892 411 942 q 259 751 302 842 q 190 540 216 659 q 164 319 164 421 q 233 35 164 161 l 227 0 l -8 0 l 4 64 l 155 64 q 115 180 132 109 q 98 322 98 252 q 152 662 98 496 q 291 917 205 829 q 479 1006 376 1006 q 623 937 572 1006 q 673 749 673 869 q 609 385 673 568 q 431 64 545 201 l 583 64 l 570 0 l 326 0 l 334 35 q 531 350 459 163 q 603 737 603 536 q 472 942 603 942 z "},"Ϋ":{"ha":418,"x_min":122,"x_max":575,"o":"m 257 479 l 505 991 l 575 991 l 272 387 l 191 0 l 122 0 l 204 387 l 154 991 l 222 991 l 257 479 m 252 1153 q 268 1208 252 1186 q 308 1230 283 1230 q 340 1190 340 1230 q 325 1132 340 1154 q 286 1109 311 1109 q 252 1153 252 1109 m 437 1153 q 452 1208 437 1186 q 492 1230 468 1230 q 524 1190 524 1230 q 510 1132 524 1154 q 470 1109 495 1109 q 437 1153 437 1109 z "},"ά":{"ha":566,"x_min":81,"x_max":610,"o":"m 454 87 q 486 39 454 39 q 521 46 505 39 l 521 -1 q 471 -14 503 -14 q 396 71 396 -14 l 400 111 l 395 111 q 308 14 351 42 q 216 -14 265 -14 q 81 176 81 -14 q 121 458 81 325 q 230 671 161 591 q 379 750 298 750 q 466 716 434 750 q 510 628 498 683 l 514 628 q 539 687 524 657 q 567 736 554 718 l 610 736 q 536 500 568 661 l 460 144 q 454 87 454 122 m 231 45 q 344 117 290 45 q 434 318 398 189 q 469 557 469 448 q 446 659 469 628 q 371 689 422 689 q 264 618 315 689 q 181 420 214 547 q 147 179 147 293 q 164 78 147 112 q 231 45 182 45 m 490 1092 l 564 1092 l 562 1078 q 490 961 541 1039 q 408 842 439 884 l 370 842 l 373 856 q 435 973 398 899 q 490 1092 472 1047 z "},"έ":{"ha":393,"x_min":46,"x_max":498,"o":"m 323 419 l 311 361 l 278 361 q 156 307 203 361 q 110 171 110 254 q 137 79 110 113 q 212 46 163 46 q 274 55 246 46 q 334 85 301 64 l 334 20 q 203 -14 277 -14 q 89 35 131 -14 q 46 167 46 84 q 88 314 46 254 q 211 395 130 374 l 212 400 q 164 455 181 421 q 147 529 147 488 q 201 689 147 629 q 345 750 254 750 q 465 711 419 750 l 432 659 q 345 689 396 689 q 248 648 284 689 q 211 538 211 607 q 297 419 211 419 l 323 419 m 423 1092 l 498 1092 l 495 1078 q 423 961 474 1039 q 341 842 372 884 l 304 842 l 307 856 q 369 973 332 899 q 423 1092 406 1047 z "},"ή":{"ha":530,"x_min":49,"x_max":555,"o":"m 269 -332 l 457 553 q 464 610 464 580 q 396 686 464 686 q 277 618 325 686 q 199 404 229 549 l 113 0 l 49 0 l 204 736 l 258 736 l 241 633 l 244 633 q 408 750 307 750 q 496 717 465 750 q 528 623 528 684 q 518 541 528 585 l 334 -332 l 269 -332 m 480 1092 l 555 1092 l 552 1078 q 480 961 531 1039 q 398 842 429 884 l 361 842 l 363 856 q 426 973 389 899 q 480 1092 463 1047 z "},"ί":{"ha":272,"x_min":69,"x_max":421,"o":"m 268 736 l 143 150 q 135 89 135 115 q 172 47 135 47 q 224 58 193 47 l 224 0 q 155 -14 189 -14 q 69 77 69 -14 q 73 117 69 92 q 204 736 77 142 l 268 736 m 347 1092 l 421 1092 l 418 1078 q 347 961 397 1039 q 264 842 296 884 l 227 842 l 230 856 q 292 973 255 899 q 347 1092 329 1047 z "},"ΰ":{"ha":528,"x_min":81,"x_max":557,"o":"m 146 151 q 224 46 146 46 q 348 138 293 46 q 432 386 404 229 q 465 736 460 542 l 529 736 q 445 201 522 416 q 218 -14 368 -14 q 115 23 149 -14 q 81 136 81 60 q 106 306 81 195 l 197 736 l 261 736 l 168 301 q 146 151 146 212 m 245 924 q 260 979 245 957 q 300 1000 276 1000 q 332 961 332 1000 q 318 903 332 925 q 278 880 303 880 q 245 924 245 880 m 470 924 q 485 979 470 957 q 526 1000 500 1000 q 557 961 557 1000 q 543 903 557 925 q 503 880 528 880 q 470 924 470 880 m 367 956 q 422 1063 395 1004 q 463 1164 450 1123 l 535 1164 l 535 1150 q 475 1044 519 1113 q 402 942 431 975 l 370 942 l 367 956 z "},"α":{"ha":566,"x_min":81,"x_max":610,"o":"m 454 87 q 486 39 454 39 q 521 46 505 39 l 521 -1 q 471 -14 503 -14 q 396 71 396 -14 l 400 111 l 395 111 q 308 14 351 42 q 216 -14 265 -14 q 81 176 81 -14 q 121 458 81 325 q 230 671 161 591 q 379 750 298 750 q 466 716 434 750 q 510 628 498 683 l 514 628 q 539 687 524 657 q 567 736 554 718 l 610 736 q 536 500 568 661 l 460 144 q 454 87 454 122 m 231 45 q 344 117 290 45 q 434 318 398 189 q 469 557 469 448 q 446 659 469 628 q 371 689 422 689 q 264 618 315 689 q 181 420 214 547 q 147 179 147 293 q 164 78 147 112 q 231 45 182 45 z "},"β":{"ha":543,"x_min":-22,"x_max":595,"o":"m 443 1063 q 553 1017 512 1063 q 595 890 595 971 q 541 664 595 756 q 397 557 487 572 l 396 551 q 485 487 452 543 q 518 351 518 432 q 485 164 518 252 q 393 32 451 77 q 258 -14 335 -14 q 118 37 172 -14 l 36 -334 l -22 -334 l 220 810 q 301 1008 251 954 q 443 1063 352 1063 m 431 1002 q 339 957 374 1002 q 282 810 304 913 l 132 100 q 188 61 155 74 q 254 47 220 47 q 357 83 313 47 q 427 189 401 118 q 453 349 453 260 q 421 478 453 430 q 334 526 390 526 l 307 526 l 321 587 l 339 587 q 438 623 395 587 q 505 731 480 659 q 530 889 530 804 q 506 971 530 941 q 431 1002 481 1002 z "},"γ":{"ha":406,"x_min":28,"x_max":510,"o":"m 90 -334 l 28 -334 q 69 -180 41 -273 q 126 -9 97 -87 l 126 736 l 189 736 l 189 385 q 176 81 189 189 l 182 81 q 292 371 245 260 l 444 736 l 510 736 l 222 56 q 143 -155 179 -47 q 90 -334 106 -263 z "},"δ":{"ha":553,"x_min":81,"x_max":635,"o":"m 364 646 q 303 754 326 703 q 281 854 281 805 q 337 997 281 941 q 486 1054 393 1054 q 579 1040 541 1054 q 635 1011 617 1027 l 599 954 q 550 982 576 972 q 484 993 524 993 q 385 956 423 993 q 347 861 347 918 q 359 792 347 827 q 398 714 372 757 q 435 656 425 671 q 502 512 481 584 q 522 353 522 439 q 453 91 522 195 q 261 -14 385 -14 q 131 43 180 -14 q 81 199 81 100 q 156 469 81 350 q 364 646 231 587 m 267 45 q 366 84 323 45 q 433 197 410 124 q 457 351 457 269 q 450 447 457 405 q 430 522 442 489 q 387 600 418 554 q 211 442 277 550 q 146 201 146 334 q 178 88 146 131 q 267 45 211 45 z "},"ε":{"ha":393,"x_min":46,"x_max":465,"o":"m 323 419 l 311 361 l 278 361 q 156 307 203 361 q 110 171 110 254 q 137 79 110 113 q 212 46 163 46 q 274 55 246 46 q 334 85 301 64 l 334 20 q 203 -14 277 -14 q 89 35 131 -14 q 46 167 46 84 q 88 314 46 254 q 211 395 130 374 l 212 400 q 164 455 181 421 q 147 529 147 488 q 201 689 147 629 q 345 750 254 750 q 465 711 419 750 l 432 659 q 345 689 396 689 q 248 648 284 689 q 211 538 211 607 q 297 419 211 419 l 323 419 z "},"ζ":{"ha":378,"x_min":62,"x_max":550,"o":"m 250 997 l 262 1055 l 550 1055 l 538 1002 q 239 578 349 786 q 129 224 129 370 q 150 137 129 175 q 232 52 170 100 q 283 -6 267 24 q 300 -72 300 -35 q 192 -286 300 -169 l 118 -286 l 155 -245 q 235 -81 235 -157 q 224 -42 235 -60 q 172 11 214 -24 q 105 74 125 47 q 74 135 85 101 q 62 214 62 169 q 157 558 62 368 q 463 1002 252 747 q 336 997 417 997 l 250 997 z "},"η":{"ha":530,"x_min":49,"x_max":528,"o":"m 269 -332 l 457 553 q 464 610 464 580 q 396 686 464 686 q 277 618 325 686 q 199 404 229 549 l 113 0 l 49 0 l 204 736 l 258 736 l 241 633 l 244 633 q 408 750 307 750 q 496 717 465 750 q 528 623 528 684 q 518 541 528 585 l 334 -332 l 269 -332 z "},"θ":{"ha":541,"x_min":81,"x_max":595,"o":"m 595 839 q 561 539 595 707 q 473 243 527 371 q 356 51 419 115 q 225 -14 292 -14 q 117 47 154 -14 q 81 221 81 107 q 135 605 81 388 q 272 947 190 823 q 446 1071 353 1071 q 595 839 595 1071 m 233 47 q 370 164 307 47 q 489 515 433 281 l 184 515 q 147 222 147 323 q 168 91 147 134 q 233 47 189 47 m 440 1010 q 307 900 367 1010 q 196 574 247 789 l 498 574 q 528 835 528 729 q 507 966 528 922 q 440 1010 487 1010 z "},"ι":{"ha":272,"x_min":69,"x_max":268,"o":"m 268 736 l 143 150 q 135 89 135 115 q 172 47 135 47 q 224 58 193 47 l 224 0 q 155 -14 189 -14 q 69 77 69 -14 q 73 117 69 92 q 204 736 77 142 l 268 736 z "},"κ":{"ha":440,"x_min":49,"x_max":528,"o":"m 187 366 q 458 736 265 469 l 528 736 l 319 444 l 385 0 l 318 0 l 264 390 l 174 288 l 113 0 l 49 0 l 205 736 l 268 736 l 216 501 l 184 366 l 187 366 z "},"λ":{"ha":436,"x_min":-28,"x_max":421,"o":"m 306 624 l 300 624 q 264 529 283 577 q 36 0 245 481 l -28 0 l 298 746 l 304 932 q 294 988 304 971 q 256 1006 283 1006 q 218 999 234 1006 l 218 1055 q 272 1064 237 1064 q 345 1029 323 1064 q 367 928 367 994 q 355 385 367 834 l 349 131 q 356 65 349 85 q 387 45 364 45 q 421 52 406 45 l 421 -5 q 368 -14 404 -14 q 307 19 326 -14 q 288 122 288 51 l 297 453 l 306 624 z "},"μ":{"ha":530,"x_min":-22,"x_max":561,"o":"m 268 736 l 158 224 q 146 132 146 171 q 210 49 146 49 q 411 332 351 49 l 497 736 l 561 736 l 404 0 l 354 0 l 359 92 l 357 92 q 200 -14 288 -14 q 115 41 140 -14 q 101 -43 108 -5 q 39 -334 94 -81 l -22 -334 l 204 736 l 268 736 z "},"ν":{"ha":441,"x_min":122,"x_max":528,"o":"m 135 736 l 199 736 q 182 81 188 205 l 187 81 q 351 380 276 203 q 464 736 426 557 l 528 736 q 201 0 438 326 l 122 0 l 135 736 z "},"ξ":{"ha":393,"x_min":62,"x_max":539,"o":"m 383 1002 q 301 997 338 997 l 237 997 l 250 1055 l 539 1055 l 526 1002 l 505 1002 q 381 963 437 1002 q 293 857 326 924 q 261 720 261 790 q 291 619 261 650 q 385 589 320 589 l 421 589 l 408 526 l 363 526 q 235 490 288 526 q 156 392 183 454 q 129 249 129 330 q 145 152 129 186 q 207 79 162 117 l 239 54 q 301 -68 301 5 q 275 -173 301 -121 q 192 -286 249 -225 l 118 -286 q 189 -200 168 -231 q 223 -139 210 -170 q 236 -79 236 -109 q 195 5 236 -30 l 171 26 q 104 94 123 66 q 74 160 85 123 q 62 250 62 198 q 94 392 62 321 q 175 506 126 463 q 285 561 223 549 l 286 567 q 215 628 235 592 q 195 720 195 664 q 245 890 195 813 q 383 1002 296 967 z "},"ο":{"ha":529,"x_min":81,"x_max":532,"o":"m 231 -14 q 119 41 158 -14 q 81 195 81 95 q 105 401 81 291 q 169 589 130 512 q 261 708 208 666 q 379 750 314 750 q 491 694 451 750 q 532 536 532 638 q 507 334 532 442 q 442 148 482 226 q 349 28 402 71 q 231 -14 295 -14 m 147 182 q 239 45 147 45 q 350 114 299 45 q 433 308 401 182 q 465 550 465 433 q 371 689 465 689 q 264 623 314 689 q 181 429 214 556 q 147 182 147 301 z "},"π":{"ha":530,"x_min":57,"x_max":614,"o":"m 397 102 q 408 63 397 74 q 440 53 419 53 l 451 53 l 463 54 l 463 -3 q 418 -8 444 -8 q 355 13 380 -8 q 330 85 330 35 q 340 163 330 115 l 452 679 l 265 679 l 121 0 l 57 0 l 201 679 l 109 679 l 113 701 l 167 736 l 614 736 l 603 679 l 515 679 l 404 158 q 397 102 397 129 z "},"ρ":{"ha":541,"x_min":-20,"x_max":547,"o":"m 547 558 q 508 271 547 408 q 402 61 469 135 q 253 -14 336 -14 q 123 49 166 -14 l 118 49 q 101 -47 113 12 q 43 -334 90 -107 l -20 -334 l 139 429 q 236 672 173 594 q 397 750 298 750 q 508 699 469 750 q 547 558 547 648 m 387 689 q 272 616 318 689 q 193 385 226 543 l 138 114 q 252 45 170 45 q 368 108 317 45 q 451 296 420 172 q 482 555 482 421 q 459 653 482 617 q 387 689 436 689 z "},"ς":{"ha":390,"x_min":78,"x_max":481,"o":"m 78 248 q 121 499 78 376 q 233 686 165 621 q 383 750 301 750 q 481 728 441 750 l 454 669 q 378 689 418 689 q 268 631 319 689 q 184 463 218 573 q 150 258 150 353 q 157 183 150 213 q 177 132 163 153 q 225 82 190 111 q 285 24 270 45 q 309 -21 300 4 q 317 -78 317 -45 q 216 -286 317 -164 l 140 -286 q 227 -166 201 -215 q 252 -82 252 -118 q 201 16 252 -24 q 121 90 138 68 q 96 136 105 111 q 82 188 86 161 q 78 248 78 214 z "},"σ":{"ha":534,"x_min":81,"x_max":628,"o":"m 519 542 q 482 255 519 385 q 380 56 444 125 q 232 -14 315 -14 q 121 40 161 -14 q 81 189 81 94 q 127 467 81 334 q 247 668 173 601 q 418 736 321 736 l 628 736 l 615 677 l 504 677 q 519 542 519 616 m 236 45 q 348 107 299 45 q 425 294 397 170 q 453 561 453 418 q 446 677 453 633 l 412 677 q 278 618 337 677 q 183 439 219 559 q 147 191 147 319 q 168 83 147 121 q 236 45 188 45 z "},"τ":{"ha":334,"x_min":98,"x_max":433,"o":"m 281 677 l 178 195 q 165 106 165 141 q 222 43 165 43 q 282 54 252 43 l 282 -3 q 208 -17 247 -17 q 98 97 102 -17 q 111 193 98 137 l 215 677 l 106 677 l 110 701 l 164 736 l 433 736 l 421 677 l 281 677 z "},"υ":{"ha":528,"x_min":81,"x_max":529,"o":"m 146 151 q 224 46 146 46 q 348 138 293 46 q 432 386 404 229 q 465 736 460 542 l 529 736 q 445 201 522 416 q 218 -14 368 -14 q 115 23 149 -14 q 81 136 81 60 q 106 306 81 195 l 197 736 l 261 736 l 168 301 q 146 151 146 212 z "},"φ":{"ha":669,"x_min":81,"x_max":677,"o":"m 191 -334 l 258 -14 q 126 58 172 -4 q 81 227 81 119 q 136 500 81 370 q 297 739 191 631 l 342 701 q 200 489 250 602 q 150 241 150 376 q 182 100 150 150 q 271 43 214 51 l 376 547 q 439 704 399 656 q 551 753 479 753 q 644 704 610 753 q 677 567 677 656 q 628 278 677 418 q 499 63 579 138 q 321 -17 420 -12 l 254 -334 l 191 -334 m 335 43 q 473 116 412 50 q 572 303 534 182 q 610 555 610 423 q 545 693 610 693 q 479 651 505 693 q 436 522 454 609 l 335 43 z "},"χ":{"ha":422,"x_min":-118,"x_max":514,"o":"m 245 338 l 446 736 l 514 736 l 245 225 l 245 -170 q 252 -250 245 -224 q 285 -275 259 -275 q 318 -268 303 -275 l 318 -322 q 267 -334 291 -334 q 203 -299 222 -334 q 184 -189 184 -265 l 184 122 l -49 -334 l -118 -334 l 184 240 l 186 572 q 178 666 186 646 q 150 686 170 686 q 115 679 130 686 l 115 736 q 170 745 134 745 q 229 717 212 745 q 245 612 245 689 l 245 338 z "},"ψ":{"ha":608,"x_min":82,"x_max":610,"o":"m 149 184 q 170 85 149 119 q 235 46 191 51 l 449 1055 l 513 1055 l 298 46 q 420 129 365 46 q 510 374 475 212 q 546 700 546 535 l 546 736 l 610 736 l 610 690 q 566 328 610 500 q 451 70 523 156 q 286 -16 379 -16 l 218 -334 l 154 -334 l 222 -14 q 116 42 151 -3 q 82 176 82 88 q 104 347 82 242 l 187 736 l 252 736 l 170 353 q 149 184 149 258 z "},"ω":{"ha":568,"x_min":64,"x_max":575,"o":"m 264 106 q 217 18 244 49 q 147 -14 190 -14 q 85 26 106 -14 q 64 138 64 66 q 109 422 64 263 q 232 736 154 582 l 297 736 q 175 428 223 595 q 126 132 126 260 q 164 47 126 47 q 224 107 199 47 q 278 301 250 166 l 311 458 l 374 458 l 340 301 q 313 110 313 175 q 322 61 313 75 q 349 47 331 47 q 421 132 385 47 q 485 360 458 216 q 511 627 511 505 q 507 736 511 680 l 570 736 q 575 625 575 692 q 541 322 575 477 q 455 77 507 168 q 347 -14 403 -14 q 288 14 307 -14 q 269 98 269 41 l 269 106 l 264 106 z "},"ϊ":{"ha":272,"x_min":69,"x_max":409,"o":"m 268 736 l 143 150 q 135 89 135 115 q 172 47 135 47 q 224 58 193 47 l 224 0 q 155 -14 189 -14 q 69 77 69 -14 q 73 117 69 92 q 204 736 77 142 l 268 736 m 137 924 q 152 979 137 957 q 193 1000 168 1000 q 224 961 224 1000 q 210 903 224 925 q 170 880 195 880 q 137 924 137 880 m 321 924 q 337 979 321 957 q 377 1000 353 1000 q 409 961 409 1000 q 394 903 409 925 q 355 880 380 880 q 321 924 321 880 z "},"ϋ":{"ha":528,"x_min":81,"x_max":529,"o":"m 146 151 q 224 46 146 46 q 348 138 293 46 q 432 386 404 229 q 465 736 460 542 l 529 736 q 445 201 522 416 q 218 -14 368 -14 q 115 23 149 -14 q 81 136 81 60 q 106 306 81 195 l 197 736 l 261 736 l 168 301 q 146 151 146 212 m 254 924 q 269 979 254 957 q 309 1000 284 1000 q 341 961 341 1000 q 327 903 341 925 q 287 880 312 880 q 254 924 254 880 m 438 924 q 454 979 438 957 q 494 1000 469 1000 q 526 961 526 1000 q 511 903 526 925 q 471 880 496 880 q 438 924 438 880 z "},"ό":{"ha":529,"x_min":81,"x_max":566,"o":"m 231 -14 q 119 41 158 -14 q 81 195 81 95 q 105 401 81 291 q 169 589 130 512 q 261 708 208 666 q 379 750 314 750 q 491 694 451 750 q 532 536 532 638 q 507 334 532 442 q 442 148 482 226 q 349 28 402 71 q 231 -14 295 -14 m 147 182 q 239 45 147 45 q 350 114 299 45 q 433 308 401 182 q 465 550 465 433 q 371 689 465 689 q 264 623 314 689 q 181 429 214 556 q 147 182 147 301 m 491 1092 l 566 1092 l 563 1078 q 491 961 542 1039 q 409 842 440 884 l 372 842 l 374 856 q 436 973 399 899 q 491 1092 473 1047 z "},"ύ":{"ha":528,"x_min":81,"x_max":529,"o":"m 146 151 q 224 46 146 46 q 348 138 293 46 q 432 386 404 229 q 465 736 460 542 l 529 736 q 445 201 522 416 q 218 -14 368 -14 q 115 23 149 -14 q 81 136 81 60 q 106 306 81 195 l 197 736 l 261 736 l 168 301 q 146 151 146 212 m 448 1092 l 523 1092 l 520 1078 q 448 961 499 1039 q 366 842 397 884 l 329 842 l 332 856 q 394 973 357 899 q 448 1092 431 1047 z "},"ώ":{"ha":568,"x_min":64,"x_max":575,"o":"m 264 106 q 217 18 244 49 q 147 -14 190 -14 q 85 26 106 -14 q 64 138 64 66 q 109 422 64 263 q 232 736 154 582 l 297 736 q 175 428 223 595 q 126 132 126 260 q 164 47 126 47 q 224 107 199 47 q 278 301 250 166 l 311 458 l 374 458 l 340 301 q 313 110 313 175 q 322 61 313 75 q 349 47 331 47 q 421 132 385 47 q 485 360 458 216 q 511 627 511 505 q 507 736 511 680 l 570 736 q 575 625 575 692 q 541 322 575 477 q 455 77 507 168 q 347 -14 403 -14 q 288 14 307 -14 q 269 98 269 41 l 269 106 l 264 106 m 491 1092 l 566 1092 l 563 1078 q 491 961 542 1039 q 409 842 440 884 l 372 842 l 374 856 q 436 973 399 899 q 491 1092 473 1047 z "},"Ё":{"ha":481,"x_min":45,"x_max":583,"o":"m 368 0 l 45 0 l 254 991 l 578 991 l 564 926 l 309 926 l 229 551 l 469 551 l 456 488 l 215 488 l 125 64 l 380 64 l 368 0 m 311 1153 q 327 1208 311 1186 q 367 1230 342 1230 q 399 1190 399 1230 q 384 1132 399 1154 q 345 1109 370 1109 q 311 1153 311 1109 m 496 1153 q 511 1208 496 1186 q 551 1230 527 1230 q 583 1190 583 1230 q 569 1132 583 1154 q 529 1109 554 1109 q 496 1153 496 1109 z "},"Ђ":{"ha":568,"x_min":89,"x_max":532,"o":"m 302 -14 q 220 1 267 -14 l 233 64 q 300 50 262 50 q 378 89 350 50 q 425 220 406 127 l 457 368 q 465 435 465 406 q 439 506 465 481 q 350 530 414 530 l 268 530 l 155 0 l 89 0 l 286 928 l 139 928 l 153 991 l 529 991 l 515 928 l 353 928 l 282 595 l 338 595 q 485 559 439 595 q 532 446 532 523 q 522 368 532 419 l 486 199 q 417 33 460 79 q 302 -14 374 -14 z "},"Ѓ":{"ha":406,"x_min":45,"x_max":598,"o":"m 532 991 l 517 924 l 306 924 l 111 0 l 45 0 l 254 991 l 532 991 m 353 1071 l 353 1082 q 504 1293 457 1208 l 598 1293 l 598 1282 q 506 1176 570 1239 q 387 1071 442 1113 l 353 1071 z "},"Є":{"ha":525,"x_min":96,"x_max":646,"o":"m 505 942 q 321 837 404 942 q 193 551 239 732 l 473 551 l 460 488 l 179 488 q 163 317 163 398 q 199 111 163 173 q 315 49 235 49 q 439 77 383 49 l 439 14 q 377 -6 413 1 q 309 -14 342 -14 q 147 65 199 -14 q 96 304 96 143 q 152 651 96 484 q 302 913 208 819 q 507 1007 396 1007 q 646 965 595 1007 l 604 907 q 505 942 564 942 z "},"Ѕ":{"ha":493,"x_min":7,"x_max":572,"o":"m 444 271 q 374 62 444 138 q 179 -14 303 -14 q 79 -2 125 -14 q 7 25 32 9 l 7 98 q 184 50 89 50 q 325 109 275 50 q 375 269 375 168 q 364 347 375 313 q 334 412 353 382 q 260 501 315 442 q 186 589 207 557 q 155 657 166 621 q 144 736 144 692 q 177 876 144 813 q 270 972 210 939 q 408 1006 329 1006 q 500 994 452 1006 q 572 965 549 981 l 536 901 q 401 940 475 940 q 302 915 345 940 q 237 845 260 890 q 214 746 214 800 q 234 652 214 695 q 313 551 254 610 q 397 452 375 488 q 431 372 418 416 q 444 271 444 328 z "},"Ј":{"ha":244,"x_min":-154,"x_max":322,"o":"m -77 -250 q -154 -233 -124 -250 l -135 -171 q -74 -184 -106 -184 q -3 -147 -28 -184 q 40 -24 22 -110 l 256 991 l 322 991 l 104 -39 q 38 -199 81 -148 q -77 -250 -5 -250 z "},"Љ":{"ha":783,"x_min":-57,"x_max":754,"o":"m 595 991 l 503 551 l 532 551 q 697 497 640 551 q 754 339 754 443 q 673 92 754 183 q 452 0 592 0 l 319 0 l 514 928 l 383 928 q 252 471 321 705 q 150 151 182 237 q 84 30 118 66 q -1 -7 50 -7 q -57 1 -26 -7 l -57 65 q -12 57 -36 57 q 108 216 58 57 l 134 297 q 215 568 158 373 l 338 991 l 595 991 m 399 61 l 465 61 q 627 135 570 61 q 685 338 685 208 q 643 453 685 416 q 515 490 602 490 l 490 490 l 399 61 z "},"Њ":{"ha":818,"x_min":45,"x_max":791,"o":"m 632 991 l 541 551 l 570 551 q 735 497 678 551 q 791 339 791 442 q 711 91 791 182 q 489 0 630 0 l 357 0 l 460 490 l 215 490 l 111 0 l 45 0 l 254 991 l 321 991 l 228 551 l 472 551 l 566 991 l 632 991 m 436 61 l 503 61 q 665 135 607 61 q 722 338 722 208 q 681 453 722 416 q 553 490 639 490 l 528 490 l 436 61 z "},"Ћ":{"ha":581,"x_min":103,"x_max":542,"o":"m 296 595 l 353 595 q 489 559 446 595 q 532 450 532 524 q 522 368 532 410 l 444 0 l 378 0 l 456 368 q 464 439 464 410 q 438 510 464 490 q 357 530 412 530 l 282 530 l 170 0 l 103 0 l 300 928 l 153 928 l 165 991 l 542 991 l 529 928 l 367 928 l 296 595 z "},"Ќ":{"ha":494,"x_min":45,"x_max":643,"o":"m 220 513 l 558 991 l 632 991 l 289 507 l 444 0 l 371 0 l 218 507 l 111 0 l 45 0 l 254 991 l 321 991 l 220 513 m 397 1071 l 397 1082 q 549 1293 502 1208 l 643 1293 l 643 1282 q 551 1176 614 1239 q 432 1071 487 1113 l 397 1071 z "},"Ў":{"ha":418,"x_min":-26,"x_max":576,"o":"m 193 290 l 154 991 l 221 991 l 241 530 l 243 455 l 243 386 l 249 386 q 301 522 260 420 l 510 991 l 576 991 l 200 153 q 122 25 159 62 q 32 -11 85 -11 q -26 0 -5 -11 l -26 62 q 28 50 -3 50 q 87 79 63 50 q 143 176 112 107 l 193 290 m 373 1071 q 271 1109 306 1071 q 235 1213 235 1147 q 239 1261 235 1236 l 295 1261 q 292 1215 292 1244 q 312 1146 292 1171 q 377 1122 331 1122 q 454 1157 425 1122 q 499 1261 482 1191 l 557 1261 q 490 1117 534 1162 q 373 1071 446 1071 z "},"Џ":{"ha":627,"x_min":46,"x_max":689,"o":"m 257 991 l 323 991 l 126 64 l 425 64 l 623 991 l 689 991 l 478 0 l 294 0 l 241 -250 l 176 -250 l 229 0 l 46 0 l 257 991 z "},"А":{"ha":496,"x_min":-53,"x_max":441,"o":"m 376 0 l 376 359 l 168 359 l 18 0 l -53 0 l 358 996 l 441 996 l 441 0 l 376 0 m 376 427 l 376 677 l 380 918 q 345 815 370 883 q 192 427 320 747 l 376 427 z "},"Б":{"ha":528,"x_min":45,"x_max":603,"o":"m 309 928 l 228 551 l 285 551 q 448 498 392 551 q 504 339 504 444 q 423 91 504 182 q 201 0 342 0 l 45 0 l 254 991 l 603 991 l 590 928 l 309 928 m 123 61 l 215 61 q 377 135 319 61 q 435 338 435 208 q 393 453 435 416 q 265 490 351 490 l 215 490 l 123 61 z "},"В":{"ha":554,"x_min":45,"x_max":602,"o":"m 254 991 l 407 991 q 548 941 495 991 q 602 806 602 890 q 551 616 602 692 q 412 524 500 541 l 411 519 q 491 459 460 507 q 522 346 522 411 q 488 165 522 243 q 387 43 453 86 q 229 0 321 0 l 45 0 l 254 991 m 228 551 l 328 551 q 435 583 389 551 q 506 670 481 614 q 532 798 532 727 q 497 895 532 863 q 392 926 463 926 l 309 926 l 228 551 m 215 488 l 125 64 l 232 64 q 395 137 336 64 q 453 335 453 210 q 418 447 453 406 q 322 488 384 488 l 215 488 z "},"Г":{"ha":406,"x_min":45,"x_max":532,"o":"m 532 991 l 517 924 l 306 924 l 111 0 l 45 0 l 254 991 l 532 991 z "},"Д":{"ha":572,"x_min":-86,"x_max":642,"o":"m 454 -250 l 387 -250 l 441 0 l 33 0 l -20 -250 l -86 -250 l -20 64 l 33 64 q 222 491 135 249 q 364 991 309 733 l 642 991 l 444 64 l 521 64 l 454 -250 m 378 64 l 561 928 l 416 928 q 321 590 376 760 q 208 287 265 421 q 102 64 151 152 l 378 64 z "},"Е":{"ha":481,"x_min":45,"x_max":578,"o":"m 368 0 l 45 0 l 254 991 l 578 991 l 564 926 l 309 926 l 229 551 l 469 551 l 456 488 l 215 488 l 125 64 l 380 64 l 368 0 z "},"Ж":{"ha":685,"x_min":-52,"x_max":835,"o":"m 467 991 l 533 991 l 432 514 l 765 991 l 835 991 l 497 509 l 632 0 l 561 0 l 431 509 l 323 0 l 257 0 l 364 507 l 25 0 l -52 0 l 298 515 l 163 991 l 231 991 l 366 513 l 467 991 z "},"З":{"ha":496,"x_min":-4,"x_max":530,"o":"m 530 818 q 474 621 530 701 q 322 518 417 541 l 321 514 q 436 314 436 471 q 359 78 436 169 q 157 -14 282 -14 q -4 20 54 -14 l -4 97 q 149 50 57 50 q 310 120 251 50 q 368 304 368 191 q 330 438 368 393 q 220 482 292 482 l 149 482 l 161 546 l 229 546 q 396 621 329 546 q 464 810 464 696 q 345 942 464 942 q 278 932 307 942 q 200 885 248 922 l 168 940 q 345 1006 247 1006 q 481 955 431 1006 q 530 818 530 905 z "},"И":{"ha":665,"x_min":45,"x_max":725,"o":"m 254 991 l 319 991 l 178 321 q 134 135 156 219 l 139 135 l 644 991 l 725 991 l 515 0 l 450 0 l 596 690 q 643 868 621 805 l 637 868 l 123 0 l 45 0 l 254 991 z "},"Й":{"ha":665,"x_min":45,"x_max":725,"o":"m 254 991 l 319 991 l 178 321 q 134 135 156 219 l 139 135 l 644 991 l 725 991 l 515 0 l 450 0 l 596 690 q 643 868 621 805 l 637 868 l 123 0 l 45 0 l 254 991 m 507 1071 q 405 1109 440 1071 q 370 1213 370 1147 q 374 1261 370 1236 l 429 1261 q 427 1215 427 1244 q 446 1146 427 1171 q 511 1122 465 1122 q 588 1157 559 1122 q 633 1261 616 1191 l 692 1261 q 624 1117 668 1162 q 507 1071 581 1071 z "},"К":{"ha":494,"x_min":45,"x_max":632,"o":"m 220 513 l 558 991 l 632 991 l 289 507 l 444 0 l 371 0 l 218 507 l 111 0 l 45 0 l 254 991 l 321 991 l 220 513 z "},"Л":{"ha":568,"x_min":-43,"x_max":642,"o":"m 431 0 l 364 0 l 561 928 l 397 928 q 242 392 307 609 q 149 113 176 176 q 89 22 121 50 q 12 -7 57 -7 q -43 1 -12 -7 l -43 65 q 1 57 -22 57 q 67 97 37 57 q 122 216 97 138 q 286 766 194 447 l 351 991 l 642 991 l 431 0 z "},"М":{"ha":851,"x_min":45,"x_max":911,"o":"m 335 0 l 300 903 l 296 903 l 266 740 l 110 0 l 45 0 l 254 991 l 363 991 l 386 240 l 389 129 l 387 69 l 389 69 q 461 239 400 103 l 796 991 l 911 991 l 701 0 l 633 0 l 795 761 l 828 901 l 825 901 l 421 0 l 335 0 z "},"Н":{"ha":627,"x_min":45,"x_max":686,"o":"m 476 0 l 410 0 l 513 486 l 214 486 l 111 0 l 45 0 l 254 991 l 321 991 l 228 553 l 526 553 l 619 991 l 686 991 l 476 0 z "},"О":{"ha":650,"x_min":92,"x_max":663,"o":"m 279 -14 q 92 257 92 -14 q 123 538 92 390 q 207 793 154 686 q 328 953 260 901 q 476 1006 396 1006 q 663 746 663 1006 q 608 368 663 553 q 468 85 554 183 q 279 -14 382 -14 m 158 256 q 285 50 158 50 q 402 105 347 50 q 500 261 458 159 q 570 498 543 362 q 596 746 596 633 q 469 942 596 942 q 353 892 408 942 q 255 743 298 842 q 185 505 212 643 q 158 256 158 368 z "},"П":{"ha":627,"x_min":45,"x_max":686,"o":"m 476 0 l 410 0 l 607 928 l 307 928 l 111 0 l 45 0 l 254 991 l 686 991 l 476 0 z "},"Р":{"ha":524,"x_min":45,"x_max":582,"o":"m 582 783 q 543 591 582 677 q 432 458 505 506 q 262 410 359 410 l 197 410 l 111 0 l 45 0 l 254 991 l 370 991 q 525 935 468 991 q 582 783 582 878 m 211 473 l 258 473 q 445 552 379 473 q 511 772 511 630 q 472 886 511 845 q 359 926 432 926 l 307 926 l 211 473 z "},"С":{"ha":493,"x_min":92,"x_max":642,"o":"m 501 942 q 335 854 413 942 q 207 613 256 767 q 158 317 158 460 q 193 114 158 178 q 310 49 228 49 q 427 75 361 49 l 427 11 q 300 -14 363 -14 q 144 65 196 -14 q 92 304 92 143 q 150 647 92 478 q 303 911 208 815 q 509 1007 398 1007 q 642 965 591 1007 l 600 907 q 501 942 559 942 z "},"Т":{"ha":433,"x_min":129,"x_max":581,"o":"m 197 0 l 129 0 l 325 926 l 151 926 l 165 991 l 581 991 l 567 926 l 393 926 l 197 0 z "},"У":{"ha":418,"x_min":-26,"x_max":576,"o":"m 193 290 l 154 991 l 221 991 l 241 530 l 243 455 l 243 386 l 249 386 q 301 522 260 420 l 510 991 l 576 991 l 200 153 q 122 25 159 62 q 32 -11 85 -11 q -26 0 -5 -11 l -26 62 q 28 50 -3 50 q 87 79 63 50 q 143 176 112 107 l 193 290 z "},"Ф":{"ha":734,"x_min":102,"x_max":734,"o":"m 489 1006 l 554 1006 l 529 884 q 734 623 734 869 q 685 379 734 494 q 554 202 635 264 q 371 139 472 141 l 338 -14 l 272 -14 l 306 139 q 102 401 102 153 q 149 645 102 532 q 278 818 197 757 q 464 884 359 879 l 489 1006 m 383 200 q 525 256 463 201 q 627 414 588 310 q 665 632 665 519 q 627 773 665 724 q 515 822 589 822 l 383 200 m 450 822 q 306 767 368 820 q 206 613 243 713 q 170 395 170 513 q 318 200 170 208 l 450 822 z "},"Х":{"ha":441,"x_min":-39,"x_max":581,"o":"m 371 0 l 302 0 l 267 452 l 31 0 l -39 0 l 245 536 l 191 991 l 258 991 l 304 581 l 513 991 l 581 991 l 325 504 l 371 0 z "},"Ц":{"ha":639,"x_min":52,"x_max":694,"o":"m 497 64 l 564 64 l 497 -250 l 431 -250 l 485 0 l 52 0 l 262 991 l 329 991 l 132 64 l 431 64 l 628 991 l 694 991 l 497 64 z "},"Ч":{"ha":611,"x_min":142,"x_max":664,"o":"m 454 0 l 387 0 l 478 425 q 379 374 419 388 q 302 361 339 361 q 185 402 229 361 q 142 526 142 443 q 151 610 142 570 l 232 991 l 300 991 l 216 602 q 208 534 208 564 q 236 453 208 481 q 317 425 263 425 q 394 437 356 425 q 490 484 433 449 l 597 991 l 664 991 l 454 0 z "},"Ш":{"ha":859,"x_min":45,"x_max":918,"o":"m 708 0 l 45 0 l 254 991 l 321 991 l 123 64 l 355 64 l 553 991 l 619 991 l 422 64 l 654 64 l 851 991 l 918 991 l 708 0 z "},"Щ":{"ha":864,"x_min":45,"x_max":920,"o":"m 790 64 l 724 -250 l 660 -250 l 713 0 l 45 0 l 254 991 l 321 991 l 123 64 l 355 64 l 553 991 l 619 991 l 422 64 l 656 64 l 852 991 l 920 991 l 722 64 l 790 64 z "},"Ъ":{"ha":629,"x_min":121,"x_max":581,"o":"m 317 926 l 139 926 l 153 991 l 397 991 l 304 551 l 361 551 q 524 498 468 551 q 581 339 581 445 q 499 92 581 183 q 278 0 418 0 l 121 0 l 317 926 m 200 61 l 292 61 q 454 135 396 61 q 511 338 511 208 q 470 453 511 416 q 342 490 428 490 l 292 490 l 200 61 z "},"Ы":{"ha":783,"x_min":45,"x_max":843,"o":"m 633 0 l 567 0 l 777 991 l 843 991 l 633 0 m 321 991 l 228 551 l 285 551 q 448 498 392 551 q 504 339 504 444 q 423 91 504 182 q 201 0 342 0 l 45 0 l 254 991 l 321 991 m 123 61 l 215 61 q 377 135 319 61 q 435 338 435 208 q 393 453 435 416 q 265 490 351 490 l 215 490 l 123 61 z "},"Ь":{"ha":533,"x_min":45,"x_max":504,"o":"m 319 991 l 228 551 l 282 551 q 447 497 391 551 q 504 339 504 442 q 423 91 504 182 q 201 0 342 0 l 45 0 l 253 991 l 319 991 m 123 61 l 215 61 q 377 135 319 61 q 435 338 435 208 q 393 453 435 416 q 265 490 351 490 l 215 490 l 123 61 z "},"Э":{"ha":525,"x_min":0,"x_max":534,"o":"m 334 1007 q 481 932 429 1007 q 534 715 534 858 q 485 331 534 500 q 345 75 435 163 q 135 -14 255 -14 q 0 9 59 -14 l 0 77 q 135 50 71 50 q 330 158 250 50 q 446 488 410 267 l 164 488 l 178 551 l 454 551 q 468 708 468 631 q 429 883 468 823 q 319 943 391 943 q 197 905 258 943 l 174 966 q 334 1007 241 1007 z "},"Ю":{"ha":844,"x_min":45,"x_max":863,"o":"m 863 757 q 812 396 863 583 q 676 97 761 208 q 492 -14 591 -14 q 323 233 323 -14 q 355 488 323 336 l 214 488 l 111 0 l 45 0 l 254 991 l 321 991 l 228 551 l 368 551 q 505 897 425 787 q 696 1006 585 1006 q 820 941 777 1006 q 863 757 863 877 m 685 942 q 544 834 611 942 q 433 546 476 726 q 390 231 390 367 q 497 50 390 50 q 637 150 570 50 q 750 429 704 250 q 796 762 796 609 q 770 895 796 848 q 685 942 745 942 z "},"Я":{"ha":534,"x_min":-25,"x_max":595,"o":"m 323 432 l 52 0 l -25 0 l 264 449 q 177 531 208 473 q 147 671 147 588 q 184 839 147 766 q 290 952 220 912 q 456 991 359 991 l 595 991 l 385 0 l 318 0 l 410 432 l 323 432 m 515 930 l 450 930 q 279 863 342 930 q 216 675 216 795 q 370 492 216 492 l 422 492 l 515 930 z "},"а":{"ha":554,"x_min":81,"x_max":583,"o":"m 216 -14 q 81 178 81 -14 q 123 458 81 319 q 233 674 165 597 q 380 750 300 750 q 498 648 471 750 l 503 648 l 529 736 l 583 736 l 428 0 l 376 0 l 389 106 l 386 106 q 216 -14 309 -14 m 229 43 q 343 113 290 43 q 433 319 396 184 q 469 575 469 455 q 445 660 469 631 q 378 689 421 689 q 267 620 318 689 q 182 418 216 551 q 147 168 147 286 q 165 75 147 106 q 229 43 183 43 z "},"б":{"ha":519,"x_min":81,"x_max":629,"o":"m 144 197 q 231 45 144 45 q 336 102 290 45 q 413 275 383 160 q 443 488 443 389 q 419 589 443 557 q 349 621 395 621 q 258 584 304 621 q 180 479 212 547 q 144 197 144 298 m 629 1060 l 629 1002 q 413 951 487 988 q 293 836 339 915 q 201 582 246 756 l 207 582 q 371 682 273 682 q 474 632 439 682 q 510 488 510 582 q 487 301 510 401 q 426 132 463 201 q 338 24 389 62 q 227 -14 288 -14 q 121 39 161 -14 q 81 199 81 92 q 129 537 81 328 q 232 848 177 747 q 373 996 288 949 q 629 1060 458 1043 z "},"в":{"ha":545,"x_min":81,"x_max":558,"o":"m 489 216 q 425 51 489 116 q 260 -14 361 -14 q 81 195 81 -14 q 124 481 81 351 q 241 681 168 612 q 406 750 315 750 q 516 710 474 750 q 558 604 558 669 q 510 450 558 512 q 379 371 462 387 l 379 368 q 460 317 432 357 q 489 216 489 277 m 161 343 q 147 199 147 248 q 178 80 147 118 q 268 43 208 43 q 381 92 337 43 q 425 215 425 141 q 389 310 425 277 q 283 343 352 343 l 161 343 m 396 690 q 262 620 317 690 q 171 399 208 549 l 294 399 q 395 421 349 399 q 468 487 441 444 q 494 593 494 530 q 469 665 494 640 q 396 690 444 690 z "},"г":{"ha":396,"x_min":37,"x_max":433,"o":"m 37 153 q 56 257 37 214 q 106 335 74 301 q 225 421 138 368 q 316 485 291 460 q 356 539 342 509 q 370 608 370 568 q 348 668 370 647 q 286 689 327 689 q 223 678 252 689 q 165 652 194 667 l 147 707 q 292 750 218 750 q 395 714 357 750 q 433 611 433 678 q 416 522 433 561 q 369 453 399 484 q 264 376 339 422 q 203 338 233 357 q 152 294 174 319 q 115 235 129 269 q 102 153 102 201 q 129 73 102 100 q 207 46 156 46 q 277 60 247 46 q 330 92 307 75 l 330 22 q 197 -14 269 -14 q 81 31 124 -14 q 37 153 37 75 z "},"д":{"ha":538,"x_min":81,"x_max":554,"o":"m 554 722 q 513 339 554 515 q 401 75 471 164 q 241 -14 332 -14 q 124 43 167 -14 q 81 196 81 99 q 118 454 81 323 q 217 648 156 584 q 358 713 278 713 q 439 690 401 713 q 493 632 477 668 l 494 757 q 338 1006 494 1006 q 240 979 293 1006 l 220 1036 q 345 1067 281 1067 q 503 987 452 1067 q 554 722 554 907 m 241 45 q 352 105 302 45 q 438 290 402 166 q 482 558 473 414 q 432 627 467 602 q 354 652 398 652 q 250 594 296 652 q 175 424 203 537 q 147 197 147 311 q 171 82 147 119 q 241 45 194 45 z "},"е":{"ha":490,"x_min":81,"x_max":504,"o":"m 253 -14 q 126 43 172 -14 q 81 201 81 100 q 122 474 81 347 q 233 675 163 601 q 380 750 303 750 q 472 716 439 750 q 504 612 504 682 q 464 467 504 529 q 348 374 423 404 q 170 343 273 343 l 161 343 q 147 208 147 276 q 272 45 147 45 q 332 54 304 45 q 396 83 360 62 l 396 18 q 253 -14 339 -14 m 370 690 q 255 610 309 690 q 170 399 201 530 q 440 614 440 399 q 425 670 440 650 q 370 690 410 690 z "},"ж":{"ha":741,"x_min":-17,"x_max":839,"o":"m 447 399 l 539 399 q 645 655 575 565 q 810 745 715 745 l 825 745 l 839 743 l 827 685 l 816 686 l 804 686 q 690 622 741 686 q 608 436 640 557 q 576 191 576 315 q 602 82 576 117 q 679 47 627 47 l 691 47 l 701 49 l 701 -5 q 668 -8 686 -8 q 517 189 517 -8 q 529 345 517 265 l 435 345 l 363 0 l 301 0 l 375 345 l 283 345 q 177 82 247 173 q 12 -8 107 -8 l -2 -8 l -17 -7 l -4 52 l 7 50 l 18 50 q 132 115 81 50 q 214 301 183 180 q 245 546 245 422 q 219 656 245 624 q 143 689 192 689 l 132 689 l 121 688 l 121 742 q 154 745 136 745 q 306 547 306 745 q 293 399 306 479 l 386 399 l 458 736 l 519 736 l 447 399 z "},"з":{"ha":393,"x_min":5,"x_max":403,"o":"m 197 419 q 298 471 256 419 q 339 595 339 522 q 254 689 339 689 q 165 664 204 689 l 143 720 q 264 750 199 750 q 367 711 332 750 q 403 603 403 673 q 368 474 403 528 q 271 396 334 419 l 269 390 q 331 334 313 372 q 350 233 350 296 q 325 107 350 164 q 253 19 299 51 q 143 -14 206 -14 q 5 21 51 -14 l 5 93 q 134 47 66 47 q 248 96 210 47 q 286 233 286 144 q 261 327 286 293 q 193 361 236 361 l 136 361 l 149 419 l 197 419 z "},"и":{"ha":533,"x_min":83,"x_max":561,"o":"m 268 736 l 158 224 q 146 132 146 171 q 210 49 146 49 q 411 332 351 49 l 497 736 l 561 736 l 404 0 l 354 0 l 359 92 l 357 92 q 195 -14 288 -14 q 83 121 83 -14 q 97 233 83 174 l 204 736 l 268 736 z "},"й":{"ha":533,"x_min":83,"x_max":580,"o":"m 268 736 l 158 224 q 146 132 146 171 q 210 49 146 49 q 411 332 351 49 l 497 736 l 561 736 l 404 0 l 354 0 l 359 92 l 357 92 q 195 -14 288 -14 q 83 121 83 -14 q 97 233 83 174 l 204 736 l 268 736 m 395 842 q 293 880 328 842 q 258 983 258 918 q 262 1032 258 1006 l 317 1032 q 315 986 315 1015 q 334 917 315 941 q 399 893 353 893 q 476 927 448 893 q 522 1032 505 962 l 580 1032 q 512 887 556 933 q 395 842 469 842 z "},"к":{"ha":422,"x_min":49,"x_max":522,"o":"m 450 736 l 522 736 l 261 385 l 382 0 l 311 0 l 195 385 l 113 0 l 49 0 l 205 736 l 269 736 l 196 390 l 450 736 z "},"л":{"ha":473,"x_min":-26,"x_max":519,"o":"m 444 673 q 407 677 428 677 q 327 646 359 677 q 271 553 295 614 q 215 342 247 492 q 159 139 187 215 q 96 28 130 64 q 9 -7 61 -7 q -26 -1 -12 -7 l -26 58 q 4 54 -14 54 q 60 83 38 54 q 105 175 83 112 q 153 350 127 239 q 211 564 187 503 q 264 662 235 625 q 331 719 293 699 q 418 739 369 739 q 519 729 458 739 l 366 0 l 301 0 l 444 673 z "},"м":{"ha":643,"x_min":49,"x_max":672,"o":"m 248 0 l 244 627 l 239 627 l 207 446 l 111 0 l 49 0 l 205 736 l 297 736 l 299 197 l 294 78 l 298 78 q 328 154 305 96 q 579 736 351 212 l 672 736 l 515 0 l 453 0 l 547 441 q 593 627 557 491 l 587 627 l 315 0 l 248 0 z "},"н":{"ha":539,"x_min":49,"x_max":567,"o":"m 269 736 l 201 414 l 435 414 l 503 736 l 567 736 l 410 0 l 346 0 l 422 355 l 189 355 l 113 0 l 49 0 l 205 736 l 269 736 z "},"о":{"ha":529,"x_min":81,"x_max":532,"o":"m 231 -14 q 119 41 158 -14 q 81 195 81 95 q 105 401 81 291 q 169 589 130 512 q 261 708 208 666 q 379 750 314 750 q 491 694 451 750 q 532 536 532 638 q 507 334 532 442 q 442 148 482 226 q 349 28 402 71 q 231 -14 295 -14 m 147 182 q 239 45 147 45 q 350 114 299 45 q 433 308 401 182 q 465 550 465 433 q 371 689 465 689 q 264 623 314 689 q 181 429 214 556 q 147 182 147 301 z "},"п":{"ha":539,"x_min":49,"x_max":567,"o":"m 567 736 l 410 0 l 346 0 l 490 677 l 257 677 l 113 0 l 49 0 l 205 736 l 567 736 z "},"р":{"ha":545,"x_min":-18,"x_max":553,"o":"m 416 750 q 553 558 553 750 q 510 277 553 416 q 400 62 467 138 q 253 -14 333 -14 q 175 14 207 -14 q 135 89 143 42 l 131 89 l 46 -319 l -18 -319 l 205 736 l 261 736 l 244 631 l 248 631 q 416 750 325 750 m 404 693 q 287 622 340 693 q 199 423 233 551 q 164 171 164 294 q 256 45 164 45 q 367 115 315 45 q 452 318 418 185 q 486 568 486 451 q 468 662 486 630 q 404 693 450 693 z "},"с":{"ha":399,"x_min":81,"x_max":484,"o":"m 243 -14 q 122 41 164 -14 q 81 197 81 95 q 123 478 81 345 q 234 681 166 611 q 386 750 302 750 q 484 728 444 750 l 457 669 q 380 689 421 689 q 266 623 318 689 q 181 435 214 557 q 147 196 147 313 q 256 45 147 45 q 353 72 298 45 l 353 14 q 243 -14 302 -14 z "},"т":{"ha":794,"x_min":49,"x_max":790,"o":"m 604 0 l 721 551 q 728 608 728 583 q 664 686 728 686 q 565 638 608 686 q 505 510 522 589 l 399 0 l 335 0 l 449 542 q 457 608 457 581 q 390 686 457 686 q 276 621 321 686 q 199 404 231 556 l 113 0 l 49 0 l 204 736 l 258 736 l 241 633 l 244 633 q 407 750 306 750 q 485 726 456 750 q 519 648 513 701 q 592 725 554 699 q 681 750 630 750 q 762 716 733 750 q 790 615 790 682 q 781 533 790 576 l 668 0 l 604 0 z "},"у":{"ha":399,"x_min":-107,"x_max":510,"o":"m -46 -334 q -107 -321 -77 -334 l -107 -262 q -47 -273 -82 -273 q 15 -244 -11 -273 q 79 -126 41 -214 l 127 -11 l 122 736 l 186 736 l 186 302 q 178 83 186 193 l 182 83 q 248 262 218 190 l 443 736 l 510 736 l 129 -165 q 50 -296 90 -259 q -46 -334 11 -334 z "},"ф":{"ha":610,"x_min":81,"x_max":610,"o":"m 610 511 q 565 254 610 383 q 449 56 519 125 q 294 -17 378 -13 l 228 -334 l 170 -334 l 237 -14 q 122 58 163 -5 q 81 229 81 122 q 124 484 81 360 q 238 674 168 608 q 399 750 309 741 l 460 1055 l 522 1055 l 458 749 q 610 511 610 730 m 383 692 q 264 619 317 680 q 179 449 212 558 q 146 229 146 340 q 172 100 146 148 q 245 45 197 52 l 383 692 m 309 45 q 423 112 370 49 q 510 290 475 175 q 545 511 545 404 q 521 640 545 595 q 446 692 497 684 l 309 45 z "},"х":{"ha":412,"x_min":-18,"x_max":500,"o":"m 212 387 l 150 736 l 215 736 l 262 441 l 432 736 l 500 736 l 278 371 l 351 0 l 286 0 l 232 313 l 50 0 l -18 0 l 212 387 z "},"ц":{"ha":547,"x_min":83,"x_max":561,"o":"m 268 736 l 158 224 q 146 132 146 171 q 210 49 146 49 q 411 332 351 49 l 497 736 l 561 736 l 429 119 l 427 98 q 469 61 427 61 l 497 64 l 431 -250 l 366 -250 l 416 -3 q 373 25 387 4 q 359 92 359 46 l 357 92 q 195 -14 288 -14 q 83 121 83 -14 q 97 233 83 174 l 204 736 l 268 736 z "},"ч":{"ha":526,"x_min":122,"x_max":554,"o":"m 256 736 l 191 432 q 186 392 186 410 q 257 313 186 313 q 453 558 401 313 l 490 736 l 554 736 l 397 0 l 334 0 l 408 346 q 333 279 379 304 q 236 253 287 253 q 154 285 185 253 q 122 380 122 317 q 131 447 122 412 l 192 736 l 256 736 z "},"ш":{"ha":802,"x_min":83,"x_max":815,"o":"m 542 736 l 432 224 q 419 132 419 168 q 484 49 419 49 q 592 115 550 49 q 665 332 634 182 l 751 736 l 815 736 l 657 0 l 607 0 l 612 79 l 610 79 q 545 8 576 29 q 468 -14 513 -14 q 358 85 374 -14 q 284 11 321 35 q 195 -14 246 -14 q 83 121 83 -14 q 97 233 83 174 l 204 736 l 268 736 l 158 224 q 146 132 146 171 q 210 49 146 49 q 311 105 270 49 q 385 302 352 162 l 478 736 l 542 736 z "},"щ":{"ha":802,"x_min":83,"x_max":815,"o":"m 542 736 l 432 224 q 419 132 419 168 q 484 49 419 49 q 592 115 550 49 q 665 332 634 182 l 751 736 l 815 736 l 684 119 l 681 98 q 724 61 681 61 l 751 64 l 685 -250 l 619 -250 l 671 -3 q 638 11 650 2 q 621 33 626 20 q 614 79 615 47 l 611 79 q 547 9 581 31 q 468 -14 514 -14 q 358 85 374 -14 q 284 11 321 35 q 195 -14 246 -14 q 83 121 83 -14 q 97 233 83 174 l 204 736 l 268 736 l 158 224 q 146 132 146 171 q 210 49 146 49 q 311 105 270 49 q 385 302 352 162 l 478 736 l 542 736 z "},"ъ":{"ha":543,"x_min":109,"x_max":500,"o":"m 258 401 q 336 406 292 406 q 500 221 500 402 q 443 53 500 119 q 296 -14 385 -14 q 146 140 146 -14 q 157 236 146 189 l 252 677 l 109 677 l 121 736 l 326 736 l 258 401 m 436 216 q 328 347 436 347 q 248 342 300 347 l 221 229 q 210 144 210 184 q 298 41 210 41 q 398 89 360 41 q 436 216 436 137 z "},"ы":{"ha":681,"x_min":87,"x_max":708,"o":"m 551 0 l 486 0 l 643 736 l 708 736 l 551 0 m 269 736 l 199 401 q 278 406 233 406 q 441 221 441 402 q 383 54 441 122 q 237 -14 325 -14 q 87 140 87 -14 q 98 236 87 189 l 205 736 l 269 736 m 378 216 q 269 347 378 347 q 187 342 239 347 l 163 229 q 151 144 151 184 q 240 41 151 41 q 339 91 300 41 q 378 216 378 140 z "},"ь":{"ha":479,"x_min":87,"x_max":446,"o":"m 269 736 l 199 401 q 282 406 232 406 q 446 221 446 402 q 386 53 446 119 q 237 -14 327 -14 q 87 140 87 -14 q 98 236 87 189 l 205 736 l 269 736 m 382 216 q 273 347 382 347 q 189 342 241 347 l 163 229 q 151 144 151 184 q 240 41 151 41 q 342 89 302 41 q 382 216 382 137 z "},"э":{"ha":416,"x_min":1,"x_max":418,"o":"m 154 355 l 167 414 l 342 414 q 354 542 354 487 q 240 689 354 689 q 151 665 193 689 l 138 722 q 258 750 195 750 q 376 699 334 750 q 418 550 418 647 q 378 260 418 393 q 268 57 338 127 q 106 -14 198 -14 q 1 4 51 -14 l 1 68 q 96 47 47 47 q 242 119 184 47 q 334 355 300 191 l 154 355 z "},"ю":{"ha":717,"x_min":49,"x_max":720,"o":"m 720 550 q 680 278 720 414 q 576 64 641 141 q 436 -14 511 -14 q 290 180 290 -14 q 310 355 290 263 l 187 355 l 111 0 l 49 0 l 205 736 l 268 736 l 200 414 l 322 414 q 426 663 360 576 q 579 750 491 750 q 720 550 720 750 m 574 689 q 467 620 516 689 q 385 421 418 550 q 353 179 353 293 q 372 78 353 112 q 436 45 392 45 q 543 114 494 45 q 625 310 592 183 q 657 550 657 437 q 636 656 657 624 q 574 689 616 689 z "},"я":{"ha":486,"x_min":-20,"x_max":514,"o":"m 296 325 q 252 311 271 325 q 217 271 233 296 q 170 167 201 245 l 144 102 q 94 23 123 49 q 21 -4 64 -3 q -20 0 -1 -4 l -20 56 q 11 52 -11 52 q 94 138 61 53 q 146 266 130 235 q 178 318 161 296 q 211 346 195 339 q 122 498 122 378 q 189 671 122 606 q 371 736 256 736 l 514 736 l 357 0 l 293 0 l 363 325 l 296 325 m 375 383 l 437 677 l 359 677 q 235 629 280 677 q 189 493 189 580 q 218 410 189 437 q 313 383 248 383 l 375 383 z "},"ё":{"ha":490,"x_min":81,"x_max":548,"o":"m 253 -14 q 126 43 172 -14 q 81 201 81 100 q 122 474 81 347 q 233 675 163 601 q 380 750 303 750 q 472 716 439 750 q 504 612 504 682 q 464 467 504 529 q 348 374 423 404 q 170 343 273 343 l 161 343 q 147 208 147 276 q 272 45 147 45 q 332 54 304 45 q 396 83 360 62 l 396 18 q 253 -14 339 -14 m 370 690 q 255 610 309 690 q 170 399 201 530 q 440 614 440 399 q 425 670 440 650 q 370 690 410 690 m 276 924 q 291 979 276 957 q 332 1000 307 1000 q 363 961 363 1000 q 349 903 363 925 q 309 880 334 880 q 276 924 276 880 m 460 924 q 476 979 460 957 q 516 1000 492 1000 q 548 961 548 1000 q 533 903 548 925 q 494 880 519 880 q 460 924 460 880 z "},"ђ":{"ha":530,"x_min":50,"x_max":529,"o":"m 172 918 l 244 918 l 273 1055 l 338 1055 l 307 918 l 461 918 l 450 861 l 294 861 l 271 747 l 243 633 l 245 633 q 410 750 309 750 q 498 717 467 750 q 529 623 529 684 q 519 541 529 585 l 392 -60 q 346 -224 368 -172 q 296 -299 325 -277 q 218 -321 268 -321 q 158 -314 181 -321 l 158 -252 q 215 -260 183 -260 q 264 -242 247 -260 q 297 -182 282 -224 q 329 -56 311 -140 l 458 553 q 465 610 465 580 q 397 686 465 686 q 278 618 326 686 q 200 404 230 549 l 114 0 l 50 0 l 232 861 l 161 861 l 172 918 z "},"ѓ":{"ha":396,"x_min":37,"x_max":531,"o":"m 37 153 q 56 257 37 214 q 106 335 74 301 q 225 421 138 368 q 316 485 291 460 q 356 539 342 509 q 370 608 370 568 q 348 668 370 647 q 286 689 327 689 q 223 678 252 689 q 165 652 194 667 l 147 707 q 292 750 218 750 q 395 714 357 750 q 433 611 433 678 q 416 522 433 561 q 369 453 399 484 q 264 376 339 422 q 203 338 233 357 q 152 294 174 319 q 115 235 129 269 q 102 153 102 201 q 129 73 102 100 q 207 46 156 46 q 277 60 247 46 q 330 92 307 75 l 330 22 q 197 -14 269 -14 q 81 31 124 -14 q 37 153 37 75 m 286 842 l 286 852 q 437 1064 390 979 l 531 1064 l 531 1053 q 439 947 503 1010 q 320 842 375 884 l 286 842 z "},"є":{"ha":419,"x_min":81,"x_max":484,"o":"m 236 -14 q 122 36 164 -14 q 81 189 81 85 q 123 472 81 336 q 234 679 166 607 q 386 750 302 750 q 484 728 444 750 l 457 669 q 380 689 421 689 q 260 616 314 689 q 175 414 206 544 l 350 414 l 338 355 l 163 355 q 147 191 147 277 q 173 78 147 112 q 248 45 198 45 q 353 72 298 45 l 353 14 q 298 -6 332 2 q 236 -14 263 -14 z "},"ѕ":{"ha":403,"x_min":20,"x_max":461,"o":"m 155 -14 q 76 -4 117 -14 q 20 17 35 5 l 20 92 q 74 61 36 75 q 151 47 113 47 q 254 86 217 47 q 290 195 290 124 q 283 249 290 224 q 263 295 275 274 q 211 361 252 316 q 151 434 167 409 q 127 487 136 458 q 118 553 118 515 q 172 695 118 641 q 313 750 227 750 q 461 708 405 750 l 427 650 q 310 689 378 689 q 218 654 254 689 q 182 561 182 619 q 196 488 182 521 q 252 411 211 456 q 318 331 300 358 q 345 272 335 304 q 355 201 355 240 q 303 42 355 98 q 155 -14 252 -14 z "},"і":{"ha":236,"x_min":46,"x_max":322,"o":"m 110 0 l 46 0 l 203 736 l 267 736 l 110 0 m 235 920 q 250 979 235 954 q 290 1004 266 1004 q 322 965 322 1004 q 307 901 322 926 q 268 876 292 876 q 235 920 235 876 z "},"ї":{"ha":236,"x_min":46,"x_max":402,"o":"m 110 0 l 46 0 l 203 736 l 267 736 l 110 0 m 130 924 q 145 979 130 957 q 186 1000 161 1000 q 218 961 218 1000 q 203 903 218 925 q 163 880 189 880 q 130 924 130 880 m 315 924 q 330 979 315 957 q 370 1000 346 1000 q 402 961 402 1000 q 388 903 402 925 q 348 880 373 880 q 315 924 315 880 z "},"ј":{"ha":236,"x_min":-139,"x_max":322,"o":"m 235 920 q 250 979 235 954 q 290 1004 266 1004 q 322 965 322 1004 q 307 901 322 926 q 268 876 292 876 q 235 920 235 876 m 203 736 l 267 736 l 94 -72 q 50 -233 71 -180 q 0 -310 29 -286 q -79 -334 -28 -334 q -139 -326 -114 -334 l -139 -264 q -82 -272 -114 -272 q -33 -254 -50 -272 q 0 -194 -15 -236 q 32 -68 14 -152 l 203 736 z "},"љ":{"ha":697,"x_min":-26,"x_max":673,"o":"m 431 675 q 407 677 424 677 q 327 646 359 677 q 271 553 295 614 q 215 342 247 492 q 159 139 187 215 q 96 28 130 64 q 9 -7 61 -7 q -26 -1 -12 -7 l -26 58 q 4 54 -14 54 q 60 83 38 54 q 105 175 83 112 q 153 350 127 239 q 211 564 187 503 q 264 662 235 625 q 331 719 293 699 q 418 739 369 739 q 464 736 435 739 q 505 729 492 732 l 436 401 q 510 406 470 406 q 673 221 673 402 q 614 53 673 119 q 465 -14 555 -14 q 360 22 395 -14 q 325 140 325 58 q 336 236 325 186 l 431 675 m 610 216 q 501 347 610 347 q 427 342 479 347 l 400 229 q 389 144 389 183 q 408 65 389 89 q 468 41 427 41 q 570 89 530 41 q 610 216 610 137 z "},"њ":{"ha":768,"x_min":49,"x_max":725,"o":"m 269 736 l 201 414 l 425 414 l 494 736 l 558 736 l 489 406 q 562 410 523 410 q 685 358 644 408 q 725 221 725 309 q 668 53 725 120 q 522 -14 612 -14 q 376 140 376 -14 q 387 236 376 189 l 412 355 l 189 355 l 113 0 l 49 0 l 205 736 l 269 736 m 661 216 q 635 316 661 281 q 554 351 608 351 q 479 346 532 351 l 452 229 q 440 144 440 184 q 526 41 440 41 q 625 89 588 41 q 661 216 661 136 z "},"ћ":{"ha":530,"x_min":50,"x_max":529,"o":"m 342 0 l 458 553 q 465 610 465 580 q 397 686 465 686 q 278 618 326 686 q 200 404 230 549 l 114 0 l 50 0 l 233 867 l 144 867 l 155 924 l 244 924 l 273 1055 l 338 1055 l 309 924 l 444 924 l 433 867 l 296 867 l 271 747 l 243 633 l 245 633 q 410 750 309 750 q 498 717 467 750 q 529 623 529 684 q 519 541 529 585 l 406 0 l 342 0 z "},"ќ":{"ha":422,"x_min":49,"x_max":560,"o":"m 450 736 l 522 736 l 261 385 l 382 0 l 311 0 l 195 385 l 113 0 l 49 0 l 205 736 l 269 736 l 196 390 l 450 736 m 315 842 l 315 852 q 466 1064 419 979 l 560 1064 l 560 1053 q 468 947 532 1010 q 349 842 404 884 l 315 842 z "},"ў":{"ha":399,"x_min":-107,"x_max":522,"o":"m -46 -334 q -107 -321 -77 -334 l -107 -262 q -47 -273 -82 -273 q 15 -244 -11 -273 q 79 -126 41 -214 l 127 -11 l 122 736 l 186 736 l 186 302 q 178 83 186 193 l 182 83 q 248 262 218 190 l 443 736 l 510 736 l 129 -165 q 50 -296 90 -259 q -46 -334 11 -334 m 337 842 q 235 880 270 842 q 199 983 199 918 q 203 1032 199 1006 l 259 1032 q 256 986 256 1015 q 276 917 256 941 q 341 893 295 893 q 418 927 389 893 q 463 1032 446 962 l 522 1032 q 454 887 498 933 q 337 842 410 842 z "},"џ":{"ha":530,"x_min":83,"x_max":561,"o":"m 268 736 l 158 224 q 146 132 146 171 q 210 49 146 49 q 411 332 351 49 l 497 736 l 561 736 l 404 0 l 354 0 l 359 92 l 357 92 q 195 -14 288 -14 q 83 121 83 -14 q 97 233 83 174 l 204 736 l 268 736 m 252 -49 l 261 -49 l 189 -321 l 125 -321 l 199 -74 l 252 -49 z "},"Ґ":{"ha":418,"x_min":43,"x_max":596,"o":"m 307 928 l 110 0 l 43 0 l 254 991 l 488 991 l 530 1196 l 596 1196 l 539 928 l 307 928 z "},"ґ":{"ha":361,"x_min":37,"x_max":482,"o":"m 375 736 l 421 957 l 482 957 l 422 675 l 244 675 l 102 0 l 37 0 l 195 736 l 375 736 z "},"Ẁ":{"ha":861,"x_min":139,"x_max":1002,"o":"m 933 991 l 1002 991 l 603 0 l 521 0 l 553 742 l 564 904 l 510 743 l 221 0 l 139 0 l 157 991 l 225 991 l 207 309 q 195 75 202 165 l 212 125 l 279 306 l 543 991 l 616 991 l 595 334 q 578 75 587 162 q 664 309 635 239 l 933 991 m 611 1071 q 542 1173 578 1109 q 494 1282 506 1237 l 494 1293 l 581 1293 q 637 1084 598 1187 l 637 1071 l 611 1071 z "},"ẁ":{"ha":686,"x_min":115,"x_max":790,"o":"m 412 0 l 432 498 l 440 653 q 404 546 413 573 q 195 0 394 519 l 115 0 l 129 736 l 193 736 l 184 307 q 170 83 182 188 l 172 83 q 199 161 178 102 q 419 736 220 220 l 493 736 l 482 307 q 472 130 480 246 l 469 83 l 472 83 l 513 190 l 725 736 l 790 736 l 494 0 l 412 0 m 496 842 q 428 944 464 880 q 380 1053 391 1008 l 380 1064 l 466 1064 q 523 854 484 958 l 523 842 l 496 842 z "},"Ẃ":{"ha":861,"x_min":139,"x_max":1002,"o":"m 933 991 l 1002 991 l 603 0 l 521 0 l 553 742 l 564 904 l 510 743 l 221 0 l 139 0 l 157 991 l 225 991 l 207 309 q 195 75 202 165 l 212 125 l 279 306 l 543 991 l 616 991 l 595 334 q 578 75 587 162 q 664 309 635 239 l 933 991 m 543 1071 l 543 1082 q 694 1293 648 1208 l 789 1293 l 789 1282 q 696 1176 760 1239 q 578 1071 633 1113 l 543 1071 z "},"ẃ":{"ha":686,"x_min":115,"x_max":790,"o":"m 412 0 l 432 498 l 440 653 q 404 546 413 573 q 195 0 394 519 l 115 0 l 129 736 l 193 736 l 184 307 q 170 83 182 188 l 172 83 q 199 161 178 102 q 419 736 220 220 l 493 736 l 482 307 q 472 130 480 246 l 469 83 l 472 83 l 513 190 l 725 736 l 790 736 l 494 0 l 412 0 m 404 842 l 404 852 q 555 1064 509 979 l 650 1064 l 650 1053 q 557 947 621 1010 q 439 842 494 884 l 404 842 z "},"Ẅ":{"ha":861,"x_min":139,"x_max":1002,"o":"m 933 991 l 1002 991 l 603 0 l 521 0 l 553 742 l 564 904 l 510 743 l 221 0 l 139 0 l 157 991 l 225 991 l 207 309 q 195 75 202 165 l 212 125 l 279 306 l 543 991 l 616 991 l 595 334 q 578 75 587 162 q 664 309 635 239 l 933 991 m 461 1153 q 476 1208 461 1186 q 517 1230 492 1230 q 549 1190 549 1230 q 534 1132 549 1154 q 494 1109 519 1109 q 461 1153 461 1109 m 646 1153 q 661 1208 646 1186 q 701 1230 677 1230 q 733 1190 733 1230 q 719 1132 733 1154 q 679 1109 704 1109 q 646 1153 646 1109 z "},"ẅ":{"ha":686,"x_min":115,"x_max":790,"o":"m 412 0 l 432 498 l 440 653 q 404 546 413 573 q 195 0 394 519 l 115 0 l 129 736 l 193 736 l 184 307 q 170 83 182 188 l 172 83 q 199 161 178 102 q 419 736 220 220 l 493 736 l 482 307 q 472 130 480 246 l 469 83 l 472 83 l 513 190 l 725 736 l 790 736 l 494 0 l 412 0 m 345 924 q 360 979 345 957 q 400 1000 375 1000 q 432 961 432 1000 q 417 903 432 925 q 378 880 403 880 q 345 924 345 880 m 529 924 q 545 979 529 957 q 585 1000 560 1000 q 616 961 616 1000 q 602 903 616 925 q 562 880 587 880 q 529 924 529 880 z "},"Ỳ":{"ha":418,"x_min":122,"x_max":575,"o":"m 257 479 l 505 991 l 575 991 l 272 387 l 191 0 l 122 0 l 204 387 l 154 991 l 222 991 l 257 479 m 376 1071 q 307 1173 343 1109 q 259 1282 271 1237 l 259 1293 l 345 1293 q 402 1084 363 1187 l 402 1071 l 376 1071 z "},"ỳ":{"ha":399,"x_min":-107,"x_max":510,"o":"m -46 -334 q -107 -321 -77 -334 l -107 -262 q -47 -273 -82 -273 q 15 -244 -11 -273 q 79 -126 41 -214 l 127 -11 l 122 736 l 186 736 l 186 302 q 178 83 186 193 l 182 83 q 248 262 218 190 l 443 736 l 510 736 l 129 -165 q 50 -296 90 -259 q -46 -334 11 -334 m 315 842 q 247 944 283 880 q 199 1053 210 1008 l 199 1064 l 285 1064 q 342 854 302 958 l 342 842 l 315 842 z "},"–":{"ha":625,"x_min":83,"x_max":619,"o":"m 83 347 l 94 403 l 619 403 l 608 347 l 83 347 z "},"—":{"ha":1250,"x_min":83,"x_max":1244,"o":"m 83 347 l 94 403 l 1244 403 l 1234 347 l 83 347 z "},"―":{"ha":1250,"x_min":83,"x_max":1244,"o":"m 83 347 l 94 403 l 1244 403 l 1234 347 l 83 347 z "},"‗":{"ha":514,"x_min":-55,"x_max":505,"o":"m 494 -180 l -24 -180 l -12 -125 l 505 -125 l 494 -180 m 463 -332 l -55 -332 l -43 -277 l 474 -277 l 463 -332 z "},"‘":{"ha":193,"x_min":100,"x_max":311,"o":"m 100 689 q 267 991 176 845 l 311 991 q 244 843 282 933 q 182 673 207 753 l 106 673 l 100 689 z "},"’":{"ha":193,"x_min":102,"x_max":311,"o":"m 311 977 q 146 673 247 840 l 102 673 q 231 991 182 846 l 306 991 l 311 977 z "},"‚":{"ha":257,"x_min":-14,"x_max":196,"o":"m 196 123 q 31 -179 127 -22 l -14 -179 q 52 -27 14 -119 q 113 139 90 65 l 191 139 l 196 123 z "},"‛":{"ha":193,"x_min":144,"x_max":233,"o":"m 155 991 l 233 991 q 224 796 224 908 q 227 673 224 732 l 182 673 q 144 977 153 827 l 155 991 z "},"“":{"ha":366,"x_min":109,"x_max":490,"o":"m 281 689 q 447 991 359 850 l 490 991 q 424 843 461 933 q 361 673 386 753 l 286 673 l 281 689 m 109 689 q 275 991 189 854 l 318 991 q 248 836 285 926 q 189 673 212 746 l 114 673 l 109 689 z "},"”":{"ha":366,"x_min":97,"x_max":478,"o":"m 306 977 q 140 673 241 840 l 97 673 q 227 991 173 831 l 300 991 l 306 977 m 478 977 q 313 673 414 840 l 269 673 q 399 991 345 831 l 473 991 l 478 977 z "},"„":{"ha":366,"x_min":-54,"x_max":326,"o":"m 154 123 q -11 -179 88 -17 l -54 -179 q 75 139 22 -22 l 149 139 l 154 123 m 326 123 q 161 -179 260 -17 l 118 -179 q 183 -32 144 -123 q 248 139 221 60 l 322 139 l 326 123 z "},"†":{"ha":539,"x_min":170,"x_max":572,"o":"m 559 715 l 385 722 l 245 0 l 170 0 l 339 722 l 171 715 l 183 778 l 347 765 l 395 1055 l 471 1055 l 393 765 l 572 778 l 559 715 z "},"‡":{"ha":539,"x_min":71,"x_max":579,"o":"m 293 302 l 473 310 l 460 248 l 285 258 l 244 0 l 168 0 l 239 258 l 71 248 l 85 310 l 248 302 l 289 533 l 343 753 l 176 746 l 191 808 l 353 796 l 393 1055 l 469 1055 l 399 796 l 579 808 l 566 746 l 389 753 l 350 533 l 293 302 z "},"•":{"ha":469,"x_min":143,"x_max":437,"o":"m 143 507 q 181 630 143 589 q 290 671 220 671 q 399 630 361 671 q 437 507 437 589 q 399 385 437 427 q 290 343 361 343 q 182 385 220 343 q 143 507 143 427 z "},"…":{"ha":772,"x_min":79,"x_max":704,"o":"m 79 36 q 98 105 79 77 q 149 134 116 134 q 177 119 167 134 q 187 82 187 105 q 169 15 187 41 q 121 -11 150 -11 q 92 1 104 -11 q 79 36 79 13 m 338 36 q 356 105 338 77 q 407 134 374 134 q 435 119 425 134 q 446 82 446 105 q 427 15 446 41 q 379 -11 408 -11 q 350 1 362 -11 q 338 36 338 13 m 596 36 q 614 105 596 77 q 665 134 633 134 q 694 119 684 134 q 704 82 704 105 q 685 15 704 41 q 637 -11 667 -11 q 608 1 621 -11 q 596 36 596 13 z "},"‰":{"ha":1048,"x_min":104,"x_max":1046,"o":"m 306 953 q 239 889 272 953 q 181 709 205 825 q 157 519 157 593 q 199 440 157 440 q 266 502 233 440 q 323 677 298 563 q 347 868 347 791 q 337 934 347 915 q 306 953 327 953 m 403 868 q 373 645 403 764 q 295 454 342 526 q 196 383 248 383 q 104 521 104 383 q 133 746 104 627 q 209 936 162 865 q 310 1006 256 1006 q 377 969 352 1006 q 403 868 403 933 m 690 991 l 192 0 l 135 0 l 636 991 l 690 991 m 628 555 q 562 493 594 555 q 505 315 530 431 q 479 122 479 200 q 521 43 479 43 q 588 104 555 43 q 645 279 621 165 q 669 471 669 393 q 659 536 669 517 q 628 555 649 555 m 725 471 q 695 248 725 367 q 617 58 665 129 q 518 -14 569 -14 q 427 123 427 -14 q 456 350 427 231 q 531 539 485 470 q 632 608 578 608 q 700 572 674 608 q 725 471 725 536 m 949 555 q 883 493 915 555 q 825 315 850 431 q 800 122 800 200 q 842 43 800 43 q 908 104 876 43 q 966 279 941 165 q 990 471 990 393 q 980 536 990 517 q 949 555 970 555 m 1046 471 q 1016 248 1046 367 q 938 58 985 129 q 839 -14 890 -14 q 747 123 747 -14 q 778 355 747 233 q 855 543 809 477 q 953 608 901 608 q 1020 572 995 608 q 1046 471 1046 536 z "},"′":{"ha":237,"x_min":144,"x_max":279,"o":"m 279 991 l 186 633 l 144 633 l 200 991 l 279 991 z "},"″":{"ha":418,"x_min":144,"x_max":461,"o":"m 279 991 l 186 633 l 144 633 l 200 991 l 279 991 m 461 991 l 367 633 l 325 633 l 382 991 l 461 991 z "},"‹":{"ha":313,"x_min":86,"x_max":354,"o":"m 315 615 l 354 587 l 167 357 l 252 119 l 208 100 l 86 349 l 89 367 l 315 615 z "},"›":{"ha":313,"x_min":33,"x_max":301,"o":"m 72 100 l 33 127 l 221 358 l 136 596 l 179 615 l 301 367 l 298 349 l 72 100 z "},"‼":{"ha":513,"x_min":65,"x_max":597,"o":"m 180 249 l 139 249 l 277 991 l 359 991 l 180 249 m 65 36 q 84 105 65 77 q 135 134 103 134 q 163 119 153 134 q 174 82 174 105 q 155 15 174 41 q 107 -11 136 -11 q 78 1 90 -11 q 65 36 65 13 m 418 249 l 376 249 l 514 991 l 597 991 l 418 249 m 302 36 q 321 105 302 77 q 372 134 340 134 q 401 119 391 134 q 411 82 411 105 q 392 15 411 41 q 345 -11 374 -11 q 315 1 328 -11 q 302 36 302 13 z "},"⁄":{"ha":163,"x_min":-281,"x_max":546,"o":"m 546 991 l -215 0 l -281 0 l 481 991 l 546 991 z "},"ⁿ":{"ha":406,"x_min":114,"x_max":447,"o":"m 325 554 l 378 806 q 389 889 389 857 q 342 953 389 953 q 267 913 295 953 q 221 790 239 873 l 171 554 l 114 554 l 207 996 l 250 996 l 241 933 l 245 933 q 295 985 269 968 q 361 1003 321 1003 q 425 976 404 1003 q 447 897 447 948 q 439 823 447 865 l 382 554 l 325 554 z "},"₣":{"ha":500,"x_min":43,"x_max":610,"o":"m 56 257 l 142 257 l 297 991 l 610 991 l 597 928 l 353 928 l 262 507 l 492 507 l 478 443 l 249 443 l 210 257 l 353 257 l 340 201 l 197 201 l 155 0 l 87 0 l 129 201 l 43 201 l 56 257 z "},"₤":{"ha":500,"x_min":5,"x_max":602,"o":"m 75 382 l 171 382 l 200 513 l 104 513 l 117 571 l 212 571 l 256 782 q 328 947 279 889 q 461 1006 376 1006 q 533 994 502 1006 q 602 950 565 982 l 558 897 q 456 945 515 945 q 370 902 402 945 q 317 760 338 860 l 279 571 l 429 571 l 416 513 l 267 513 l 237 382 l 390 382 l 378 323 l 225 323 l 212 268 q 104 64 180 117 l 414 64 l 400 0 l 5 0 l 18 56 q 95 129 61 75 q 146 267 128 182 l 158 323 l 62 323 l 75 382 z "},"₧":{"ha":699,"x_min":37,"x_max":746,"o":"m 532 783 q 494 591 532 676 q 384 458 456 507 q 214 410 311 410 l 189 410 l 103 0 l 37 0 l 248 991 l 321 991 q 475 936 418 991 q 532 783 532 880 m 203 473 l 218 473 q 398 552 334 473 q 463 772 463 630 q 423 886 463 845 q 311 926 383 926 l 298 926 l 203 473 m 644 54 l 644 1 q 572 -14 603 -14 q 492 86 492 -14 q 500 157 492 117 l 574 504 l 513 504 l 521 542 l 585 561 l 639 736 l 686 736 l 648 561 l 746 561 l 733 504 l 636 504 l 567 175 q 557 98 557 134 q 604 46 557 46 q 644 54 624 46 z "},"€":{"ha":500,"x_min":29,"x_max":621,"o":"m 494 942 q 340 853 412 942 q 225 610 269 764 l 444 610 l 432 554 l 211 554 q 187 418 199 505 l 385 418 l 372 363 l 183 363 l 183 317 q 214 111 183 172 q 317 49 245 49 q 424 75 378 49 l 435 14 q 302 -14 382 -14 q 163 68 210 -14 q 117 304 117 149 l 118 363 l 29 363 l 41 418 l 122 418 q 143 554 130 494 l 69 554 l 82 610 l 157 610 q 298 900 206 793 q 498 1007 390 1007 q 621 965 577 1007 l 583 907 q 494 942 548 942 z "},"℅":{"ha":685,"x_min":104,"x_max":664,"o":"m 664 991 l 161 0 l 104 0 l 607 991 l 664 991 m 647 322 q 622 160 647 242 q 556 37 596 79 q 465 -5 515 -5 q 392 29 420 -5 q 363 131 363 63 q 389 291 363 209 q 455 416 414 374 q 547 458 496 458 q 620 424 592 458 q 647 322 647 389 m 543 403 q 486 366 513 403 q 442 257 460 330 q 424 126 424 184 q 469 50 424 50 q 525 87 499 50 q 570 199 551 123 q 589 328 589 274 q 543 403 589 403 m 250 534 q 169 571 201 534 q 138 682 138 608 q 168 838 138 758 q 244 959 197 918 q 345 999 290 999 q 428 979 387 999 l 399 924 q 345 943 372 943 q 274 910 305 943 q 222 810 243 877 q 201 682 201 743 q 269 590 201 590 q 345 614 306 590 l 332 555 q 250 534 295 534 z "},"ℓ":{"ha":500,"x_min":71,"x_max":479,"o":"m 322 46 q 394 81 372 46 q 418 204 416 117 l 479 204 q 437 41 475 94 q 322 -12 398 -12 q 202 44 241 -12 q 164 211 164 100 l 164 404 q 118 384 142 391 q 71 370 94 377 l 71 428 q 119 444 96 437 q 164 463 142 450 l 164 806 q 198 955 164 904 q 297 1006 233 1006 q 401 954 364 1006 q 437 807 437 901 q 385 585 437 682 q 228 428 332 488 l 228 224 q 250 91 228 136 q 322 46 273 46 m 374 806 q 353 912 374 877 q 298 947 333 947 q 245 916 262 947 q 228 806 228 884 l 228 486 q 374 806 374 587 z "},"№":{"ha":918,"x_min":45,"x_max":917,"o":"m 917 501 q 889 346 917 424 q 817 227 861 267 q 718 186 772 186 q 604 325 604 186 q 630 483 604 404 q 700 602 656 562 q 798 643 743 643 q 886 607 855 643 q 917 501 917 570 m 791 585 q 729 551 757 585 q 684 451 701 517 q 667 325 667 384 q 681 263 667 283 q 725 244 694 244 q 789 276 761 244 q 836 372 818 309 q 854 501 854 436 q 838 563 854 541 q 791 585 822 585 m 802 0 l 554 0 l 566 58 l 812 58 l 802 0 m 456 0 l 374 0 l 293 871 l 288 871 q 276 791 286 845 q 111 0 267 737 l 45 0 l 254 991 l 343 991 l 419 129 l 424 129 q 452 298 434 215 l 599 991 l 665 991 l 456 0 z "},"™":{"ha":935,"x_min":157,"x_max":945,"o":"m 342 553 l 289 553 l 289 945 l 157 945 l 157 991 l 475 991 l 475 945 l 342 945 l 342 553 m 707 553 l 572 924 l 570 924 l 571 802 l 571 553 l 521 553 l 521 991 l 597 991 l 732 623 l 869 991 l 945 991 l 945 553 l 893 553 l 893 794 l 895 921 l 892 921 l 753 553 l 707 553 z "}}}
